<svg width="48" height="52" viewBox="0 0 48 52" fill="none" xmlns="http://www.w3.org/2000/svg">
<path d="M24.86 51.485C21.44 51.485 18.25 50.835 15.29 49.535C12.35 48.215 9.77 46.385 7.55 44.045C5.35 41.705 3.63 38.985 2.39 35.885C1.15 32.765 0.53 29.405 0.53 25.805C0.53 22.445 1.09 19.225 2.21 16.145C3.33 13.065 4.96 10.325 7.1 7.92502C9.24 5.52502 11.84 3.62502 14.9 2.22502C17.98 0.825022 21.46 0.125022 25.34 0.125022C27.78 0.125022 30.12 0.425022 32.36 1.02502C34.62 1.60502 36.72 2.43502 38.66 3.51502C40.6 4.59502 42.32 5.87502 43.82 7.35502L40.79 12.035C38.95 10.055 36.66 8.48502 33.92 7.32502C31.2 6.14502 28.34 5.55502 25.34 5.55502C22.44 5.55502 19.86 6.08502 17.6 7.14502C15.34 8.20502 13.43 9.66502 11.87 11.525C10.31 13.385 9.12 15.515 8.3 17.915C7.5 20.315 7.1 22.865 7.1 25.565C7.1 28.485 7.55 31.185 8.45 33.665C9.37 36.125 10.65 38.275 12.29 40.115C13.93 41.955 15.84 43.385 18.02 44.405C20.2 45.405 22.55 45.905 25.07 45.905C27.11 45.905 29.1 45.565 31.04 44.885C32.98 44.205 34.72 43.235 36.26 41.975C37.82 40.695 39.05 39.175 39.95 37.415C40.87 35.655 41.33 33.695 41.33 31.535V30.095H24.65V25.265H47.57V30.605C47.57 33.965 46.92 36.945 45.62 39.545C44.32 42.125 42.57 44.305 40.37 46.085C38.19 47.845 35.75 49.185 33.05 50.105C30.37 51.025 27.64 51.485 24.86 51.485Z" fill="#99C221"/>
</svg>
