<svg width="35" height="38" viewBox="0 0 35 38" fill="none" xmlns="http://www.w3.org/2000/svg">
<path d="M20.9 37.5C16.7333 37.5 13.15 36.75 10.15 35.25C7.18333 33.75 4.9 31.6 3.3 28.8C1.73333 26 0.95 22.65 0.95 18.75C0.95 14.85 1.73333 11.5 3.3 8.7C4.86667 5.9 7.1 3.75 10 2.25C12.9333 0.749999 16.4333 -4.76837e-07 20.5 -4.76837e-07C22.7333 -4.76837e-07 24.85 0.249999 26.85 0.749999C28.85 1.21667 30.6333 1.91667 32.2 2.85L30.65 8.7C29.2833 7.86667 27.7 7.23333 25.9 6.8C24.1 6.33333 22.3 6.1 20.5 6.1C17.9333 6.1 15.75 6.6 13.95 7.6C12.15 8.56667 10.7667 10 9.8 11.9C8.83333 13.7667 8.35 16.05 8.35 18.75C8.35 21.45 8.83333 23.75 9.8 25.65C10.7667 27.5167 12.1833 28.95 14.05 29.95C15.9167 30.9167 18.2 31.4 20.9 31.4C22.2667 31.4 23.5667 31.2667 24.8 31C26.0333 30.7333 27.1667 30.3333 28.2 29.8L27.25 31.9V21.4H16.45V15.55H34.25V34.6C32.4833 35.5333 30.4167 36.25 28.05 36.75C25.6833 37.25 23.3 37.5 20.9 37.5Z" fill="#99C221"/>
</svg>
