<svg width="48" height="52" viewBox="0 0 48 52" fill="none" xmlns="http://www.w3.org/2000/svg">
<path d="M24.86 51.96C21.44 51.96 18.25 51.31 15.29 50.01C12.35 48.69 9.77 46.86 7.55 44.52C5.35 42.18 3.63 39.46 2.39 36.36C1.15 33.24 0.53 29.88 0.53 26.28C0.53 22.92 1.09 19.7 2.21 16.62C3.33 13.54 4.96 10.8 7.1 8.4C9.24 6 11.84 4.1 14.9 2.7C17.98 1.3 21.46 0.599998 25.34 0.599998C27.78 0.599998 30.12 0.899998 32.36 1.5C34.62 2.08 36.72 2.91 38.66 3.99C40.6 5.07 42.32 6.35 43.82 7.83L40.79 12.51C38.95 10.53 36.66 8.96 33.92 7.8C31.2 6.62 28.34 6.03 25.34 6.03C22.44 6.03 19.86 6.56 17.6 7.62C15.34 8.68 13.43 10.14 11.87 12C10.31 13.86 9.12 15.99 8.3 18.39C7.5 20.79 7.1 23.34 7.1 26.04C7.1 28.96 7.55 31.66 8.45 34.14C9.37 36.6 10.65 38.75 12.29 40.59C13.93 42.43 15.84 43.86 18.02 44.88C20.2 45.88 22.55 46.38 25.07 46.38C27.11 46.38 29.1 46.04 31.04 45.36C32.98 44.68 34.72 43.71 36.26 42.45C37.82 41.17 39.05 39.65 39.95 37.89C40.87 36.13 41.33 34.17 41.33 32.01V30.57H24.65V25.74H47.57V31.08C47.57 34.44 46.92 37.42 45.62 40.02C44.32 42.6 42.57 44.78 40.37 46.56C38.19 48.32 35.75 49.66 33.05 50.58C30.37 51.5 27.64 51.96 24.86 51.96Z" fill="#FFD369"/>
</svg>
