<svg width="150" height="150" viewBox="0 0 150 150" fill="none" xmlns="http://www.w3.org/2000/svg">
<g clip-path="url(#clip0_124_900)">
<path d="M75 149C115.869 149 149 115.869 149 75C149 34.1309 115.869 1 75 1C34.1309 1 1 34.1309 1 75C1 115.869 34.1309 149 75 149Z" fill="white" stroke="#261E38" stroke-width="2"/>
<g clip-path="url(#clip1_124_900)">
<path d="M25.1348 77.2125C25.1348 70.551 26.4008 64.3377 28.9331 58.5723C31.5041 52.8459 35.0684 47.8207 39.6263 43.4966C44.1839 39.2116 49.4819 35.8614 55.52 33.4462C61.5968 31.031 68.1413 29.8234 75.1535 29.8234C81.6977 29.8234 87.9695 30.9141 93.9686 33.0956C99.9679 35.2771 105.305 38.4519 109.979 42.6202C114.654 46.7884 118.355 51.8525 121.082 57.8127C123.808 63.8118 125.172 70.59 125.172 78.1473C125.172 82.8999 124.588 87.4575 123.419 91.8207C122.289 96.2226 120.673 100.313 118.569 104.092C116.465 107.87 113.972 111.22 111.09 114.142L101.974 108.24C105.831 104.656 108.889 100.196 111.148 94.8591C113.446 89.5611 114.596 83.9907 114.596 78.1473C114.596 72.4989 113.563 67.4736 111.499 63.0717C109.434 58.6698 106.59 54.9495 102.967 51.911C99.3445 48.8725 95.1959 46.5546 90.5213 44.9575C85.8467 43.3993 80.8799 42.6202 75.6209 42.6202C69.9335 42.6202 64.6745 43.4966 59.8439 45.2496C55.0526 47.0416 50.8649 49.5347 47.2808 52.729C43.697 55.9233 40.9118 59.6436 38.9249 63.8898C36.9773 68.1357 36.0035 72.7131 36.0035 77.6214C36.0035 81.5949 36.6656 85.4709 37.9901 89.2497C39.3146 93.0282 41.204 96.4173 43.658 99.417C46.1513 102.455 49.1117 104.851 52.5398 106.604C55.9679 108.396 59.7854 109.292 63.9926 109.292H66.7976L66.7976 76.8033H76.2053L76.2053 121.446H65.804C59.2595 121.446 53.4554 120.18 48.3911 117.648C43.3658 115.116 39.1199 111.707 35.6528 107.422C32.2247 103.176 29.6147 98.4234 27.8228 93.1647C26.0309 87.9447 25.1348 82.6272 25.1348 77.2125Z" fill="black"/>
<mask id="mask0_124_900" style="mask-type:luminance" maskUnits="userSpaceOnUse" x="21" y="24" width="108" height="102">
<path d="M129 126L129 24L21 24L21 126L129 126Z" fill="white"/>
<path d="M25.1348 77.2125C25.1348 70.551 26.4008 64.3377 28.9331 58.5723C31.5041 52.8459 35.0684 47.8207 39.6263 43.4966C44.1839 39.2116 49.4819 35.8614 55.52 33.4462C61.5968 31.031 68.1413 29.8234 75.1535 29.8234C81.6977 29.8234 87.9695 30.9141 93.9686 33.0956C99.9679 35.2771 105.305 38.4519 109.979 42.6202C114.654 46.7884 118.355 51.8525 121.082 57.8127C123.808 63.8118 125.172 70.59 125.172 78.1473C125.172 82.8999 124.588 87.4575 123.419 91.8207C122.289 96.2226 120.673 100.313 118.569 104.092C116.465 107.87 113.972 111.22 111.09 114.142L101.974 108.24C105.831 104.656 108.889 100.196 111.148 94.8591C113.446 89.5611 114.596 83.9907 114.596 78.1473C114.596 72.4989 113.563 67.4736 111.499 63.0717C109.434 58.6698 106.59 54.9495 102.967 51.911C99.3445 48.8725 95.1959 46.5546 90.5213 44.9575C85.8467 43.3993 80.8799 42.6202 75.6209 42.6202C69.9335 42.6202 64.6745 43.4966 59.8439 45.2496C55.0526 47.0416 50.8649 49.5347 47.2808 52.729C43.697 55.9233 40.9118 59.6436 38.9249 63.8898C36.9773 68.1357 36.0035 72.7131 36.0035 77.6214C36.0035 81.5949 36.6656 85.4709 37.9901 89.2497C39.3146 93.0282 41.204 96.4173 43.658 99.417C46.1513 102.455 49.1117 104.851 52.5398 106.604C55.9679 108.396 59.7854 109.292 63.9926 109.292H66.7976L66.7976 76.8033H76.2053L76.2053 121.446H65.804C59.2595 121.446 53.4554 120.18 48.3911 117.648C43.3658 115.116 39.1199 111.707 35.6528 107.422C32.2247 103.176 29.6147 98.4234 27.8228 93.1647C26.0309 87.9447 25.1348 82.6272 25.1348 77.2125Z" fill="black"/>
</mask>
<g mask="url(#mask0_124_900)">
<path d="M28.9292 58.5723L26.1923 57.3435L26.1824 57.366L28.9292 58.5723ZM39.6224 43.4966L37.5674 41.3109L37.5575 41.3203L39.6224 43.4966ZM55.5161 33.4462L54.4079 30.6583L54.4019 30.6608L55.5161 33.4462ZM121.078 57.8127L123.809 56.5713L123.806 56.5647L121.078 57.8127ZM123.415 91.8207L120.517 91.0443L120.509 91.0749L123.415 91.8207ZM111.086 114.142L109.455 116.66L111.506 117.988L113.221 116.249L111.086 114.142ZM101.97 108.24L99.9279 106.043L97.106 108.665L100.34 110.759L101.97 108.24ZM111.144 94.8591L108.392 93.6651L108.381 93.6894L111.144 94.8591ZM90.5174 44.9575L91.4873 42.1185L91.466 42.1114L90.5174 44.9575ZM59.84 45.2496L58.8167 42.4295L58.7891 42.4397L59.84 45.2496ZM38.921 63.8898L36.2036 62.6184L36.1943 62.6388L38.921 63.8898ZM43.6541 99.417L41.3324 101.317L41.3348 101.32L43.6541 99.417ZM52.5359 106.604L53.9258 103.945L53.9018 103.933L52.5359 106.604ZM66.7937 109.292V112.292H69.7937V109.292H66.7937ZM66.7937 76.8033V73.8033H63.7937V76.8033H66.7937ZM76.2014 76.8033H79.2014V73.8033H76.2014V76.8033ZM76.2014 121.446V124.446H79.2014V121.446H76.2014ZM48.3872 117.648L47.0372 120.327L47.0456 120.331L48.3872 117.648ZM35.6489 107.422L33.3146 109.307L33.3167 109.309L35.6489 107.422ZM27.8189 93.1647L30.6584 92.1969L30.6563 92.1906L27.8189 93.1647ZM25.1309 77.2125H28.1309C28.1309 70.9419 29.3204 65.142 31.6757 59.7786L28.9292 58.5723L26.1824 57.366C23.4737 63.5334 22.1309 70.1601 22.1309 77.2125H25.1309ZM28.9292 58.5723L31.6658 59.8011C34.0766 54.4317 37.4126 49.7282 41.687 45.673L39.6224 43.4966L37.5575 41.3203C32.7164 45.9131 28.9235 51.2602 26.1923 57.3435L28.9292 58.5723ZM39.6224 43.4966L41.6771 45.6824C45.9509 41.6644 50.9264 38.5131 56.6303 36.2316L55.5161 33.4462L54.4019 30.6608C48.0296 33.2097 42.4091 36.7587 37.5674 41.3109L39.6224 43.4966ZM55.5161 33.4462L56.624 36.2341C62.3237 33.9689 68.4893 32.8234 75.1496 32.8234V29.8234V26.8234C67.7858 26.8234 60.8624 28.0931 54.4079 30.6583L55.5161 33.4462ZM75.1496 29.8234V32.8234C81.3533 32.8234 87.2774 33.856 92.9396 35.915L93.9647 33.0956L94.9901 30.2762C88.6541 27.9722 82.0346 26.8234 75.1496 26.8234V29.8234ZM93.9647 33.0956L92.9396 35.915C98.588 37.969 103.594 40.9493 107.979 44.8593L109.975 42.6202L111.972 40.381C107.008 35.9546 101.34 32.5852 94.9901 30.2762L93.9647 33.0956ZM109.975 42.6202L107.979 44.8593C112.329 48.7385 115.787 53.4601 118.35 59.0607L121.078 57.8127L123.806 56.5647C120.914 50.245 116.971 44.8382 111.972 40.381L109.975 42.6202ZM121.078 57.8127L118.347 59.0541C120.872 64.6101 122.168 70.9557 122.168 78.1473H125.168H128.168C128.168 70.2243 126.737 63.0135 123.809 56.5713L121.078 57.8127ZM125.168 78.1473H122.168C122.168 82.6515 121.614 86.9475 120.517 91.0443L123.415 91.8207L126.313 92.5968C127.553 87.9678 128.168 83.1483 128.168 78.1473H125.168ZM123.415 91.8207L120.509 91.0749C119.44 95.2404 117.916 99.0894 115.944 102.632L118.565 104.092L121.186 105.551C123.421 101.536 125.13 97.2048 126.321 92.5662L123.415 91.8207ZM118.565 104.092L115.944 102.632C113.965 106.187 111.632 109.316 108.95 112.035L111.086 114.142L113.221 116.249C116.304 113.124 118.958 109.553 121.186 105.551L118.565 104.092ZM111.086 114.142L112.716 111.624L103.601 105.722L101.97 108.24L100.34 110.759L109.455 116.66L111.086 114.142ZM101.97 108.24L104.012 110.438C108.209 106.538 111.499 101.716 113.907 96.0288L111.144 94.8591L108.381 93.6894C106.27 98.6763 103.445 102.775 99.9279 106.043L101.97 108.24ZM111.144 94.8591L113.896 96.0531C116.36 90.3738 117.592 84.3963 117.592 78.1473H114.592H111.592C111.592 83.5848 110.525 88.7487 108.392 93.6651L111.144 94.8591ZM114.592 78.1473H117.592C117.592 72.1293 116.49 66.6579 114.211 61.7976L111.495 63.0717L108.779 64.3455C110.628 68.2893 111.592 72.8682 111.592 78.1473H114.592ZM111.495 63.0717L114.211 61.7976C111.966 57.0126 108.858 52.9391 104.891 49.6124L102.964 51.911L101.036 54.2094C104.315 56.9598 106.894 60.327 108.779 64.3455L111.495 63.0717ZM102.964 51.911L104.891 49.6124C100.973 46.3258 96.4958 43.8298 91.4873 42.1185L90.5174 44.9575L89.5472 47.7963C93.8879 49.2794 97.7087 51.4192 101.036 54.2094L102.964 51.911ZM90.5174 44.9575L91.466 42.1114C86.4656 40.4446 81.1766 39.6202 75.617 39.6202V42.6202V45.6202C80.5751 45.6202 85.22 46.3539 89.5685 47.8035L90.5174 44.9575ZM75.617 42.6202V39.6202C69.6176 39.6202 64.0082 40.5454 58.8167 42.4295L59.84 45.2496L60.8636 48.0697C65.3327 46.4478 70.2413 45.6202 75.617 45.6202V42.6202ZM59.84 45.2496L58.7891 42.4397C53.6732 44.3531 49.1597 47.0324 45.281 50.4895L47.2769 52.729L49.2731 54.9687C52.562 52.037 56.4242 49.7301 60.8909 48.0596L59.84 45.2496ZM47.2769 52.729L45.281 50.4895C41.4011 53.9477 38.3666 57.9951 36.2036 62.6184L38.921 63.8898L41.6384 65.1612C43.4486 61.2921 45.9851 57.8991 49.2731 54.9687L47.2769 52.729ZM38.921 63.8898L36.1943 62.6388C34.0574 67.2972 32.9996 72.3036 32.9996 77.6214H35.9996H38.9996C38.9996 73.1223 39.8894 68.9745 41.648 65.1405L38.921 63.8898ZM35.9996 77.6214H32.9996C32.9996 81.9354 33.7196 86.1468 35.1551 90.2418L37.9862 89.2497L40.8173 88.2573C39.6038 84.795 38.9996 81.2544 38.9996 77.6214H35.9996ZM37.9862 89.2497L35.1551 90.2418C36.5912 94.3392 38.6495 98.0376 41.3324 101.317L43.6541 99.417L45.9761 97.5171C43.7504 94.797 42.0302 91.7172 40.8173 88.2573L37.9862 89.2497ZM43.6541 99.417L41.3348 101.32C44.084 104.67 47.3669 107.33 51.17 109.275L52.5359 106.604L53.9018 103.933C50.8487 102.372 48.2105 100.241 45.9734 97.5138L43.6541 99.417ZM52.5359 106.604L51.1463 109.263C55.04 111.298 59.3411 112.292 63.9887 112.292V109.292V106.292C60.2222 106.292 56.888 105.494 53.9258 103.945L52.5359 106.604ZM63.9887 109.292V112.292H66.7937V109.292V106.292H63.9887V109.292ZM66.7937 109.292H69.7937L69.7937 76.8033H66.7937H63.7937L63.7937 109.292H66.7937ZM66.7937 76.8033V79.8033H76.2014V76.8033V73.8033H66.7937V76.8033ZM76.2014 76.8033H73.2014L73.2014 121.446H76.2014H79.2014L79.2014 76.8033H76.2014ZM76.2014 121.446V118.446H65.8001V121.446V124.446H76.2014V121.446ZM65.8001 121.446V118.446C59.6489 118.446 54.3161 117.258 49.7288 114.965L48.3872 117.648L47.0456 120.331C52.5869 123.102 58.8626 124.446 65.8001 124.446V121.446ZM48.3872 117.648L49.7372 114.969C45.0836 112.624 41.1749 109.483 37.9811 105.535L35.6489 107.422L33.3167 109.309C37.0568 113.932 41.6402 117.608 47.0372 120.327L48.3872 117.648ZM35.6489 107.422L37.9832 105.538C34.7801 101.57 32.339 97.1292 30.6584 92.1969L27.8189 93.1647L24.9791 94.1322C26.8826 99.7179 29.6615 104.782 33.3146 109.307L35.6489 107.422ZM27.8189 93.1647L30.6563 92.1906C28.97 87.2778 28.1309 82.2894 28.1309 77.2125H25.1309H22.1309C22.1309 82.965 23.084 88.6113 24.9815 94.1385L27.8189 93.1647Z" fill="black"/>
</g>
</g>
</g>
<defs>
<clipPath id="clip0_124_900">
<rect width="150" height="150" fill="white"/>
</clipPath>
<clipPath id="clip1_124_900">
<rect width="102" height="108" fill="white" transform="matrix(0 1 -1 0 129 24)"/>
</clipPath>
</defs>
</svg>
