<svg width="150" height="150" viewBox="0 0 150 150" fill="none" xmlns="http://www.w3.org/2000/svg">
<circle cx="75" cy="75" r="74" fill="#5F4B8B" stroke="#261E38" stroke-width="2"/>
<mask id="path-2-outside-1_960_36" maskUnits="userSpaceOnUse" x="18" y="46" width="110" height="62" fill="black">
<rect fill="white" x="18" y="46" width="110" height="62"/>
<path d="M47.635 105.052C43.8862 105.052 40.3894 104.34 37.1448 102.915C33.9221 101.468 31.094 99.4619 28.6606 96.8969C26.249 94.3319 24.3637 91.3504 23.0044 87.9523C21.6452 84.5323 20.9656 80.8492 20.9656 76.9031C20.9656 73.22 21.5794 69.6904 22.8071 66.3142C24.0348 62.9381 25.8215 59.9346 28.1673 57.3038C30.5131 54.6731 33.3631 52.5904 36.7173 51.0558C40.0935 49.5211 43.9081 48.7538 48.1612 48.7538C50.8358 48.7538 53.4008 49.0827 55.8562 49.7404C58.3335 50.3761 60.6354 51.286 62.7619 52.4698C64.8885 53.6536 66.7739 55.0567 68.4181 56.679L65.0967 61.809C63.0798 59.6386 60.5696 57.9177 57.5662 56.6461C54.5846 55.3527 51.4496 54.706 48.1612 54.706C44.9823 54.706 42.1542 55.2869 39.6769 56.4488C37.1996 57.6108 35.106 59.2112 33.396 61.25C31.686 63.2888 30.3815 65.6237 29.4827 68.2544C28.6058 70.8852 28.1673 73.6804 28.1673 76.64C28.1673 79.8408 28.6606 82.8004 29.6471 85.5188C30.6556 88.2154 32.0587 90.5721 33.8563 92.589C35.654 94.606 37.7477 96.1735 40.1373 97.2915C42.5269 98.3877 45.1029 98.9358 47.8652 98.9358C50.1014 98.9358 52.2827 98.5631 54.4092 97.8177C56.5358 97.0723 58.4431 96.009 60.1312 94.6279C61.8412 93.2248 63.1894 91.5587 64.176 89.6294C65.1844 87.7002 65.6887 85.5517 65.6887 83.184V81.6056H47.4048V76.3112H72.5287V82.1646C72.5287 85.8477 71.8162 89.1142 70.3912 91.9642C68.9662 94.7923 67.0479 97.1819 64.6364 99.1331C62.2467 101.062 59.5721 102.531 56.6125 103.54C53.6748 104.548 50.6823 105.052 47.635 105.052ZM85.4991 104V49.7404H92.1746V73.8777H119.008V49.7404H125.684V104H119.008V79.7312H92.1746V104H85.4991Z"/>
</mask>
<path d="M47.635 105.052C43.8862 105.052 40.3894 104.34 37.1448 102.915C33.9221 101.468 31.094 99.4619 28.6606 96.8969C26.249 94.3319 24.3637 91.3504 23.0044 87.9523C21.6452 84.5323 20.9656 80.8492 20.9656 76.9031C20.9656 73.22 21.5794 69.6904 22.8071 66.3142C24.0348 62.9381 25.8215 59.9346 28.1673 57.3038C30.5131 54.6731 33.3631 52.5904 36.7173 51.0558C40.0935 49.5211 43.9081 48.7538 48.1612 48.7538C50.8358 48.7538 53.4008 49.0827 55.8562 49.7404C58.3335 50.3761 60.6354 51.286 62.7619 52.4698C64.8885 53.6536 66.7739 55.0567 68.4181 56.679L65.0967 61.809C63.0798 59.6386 60.5696 57.9177 57.5662 56.6461C54.5846 55.3527 51.4496 54.706 48.1612 54.706C44.9823 54.706 42.1542 55.2869 39.6769 56.4488C37.1996 57.6108 35.106 59.2112 33.396 61.25C31.686 63.2888 30.3815 65.6237 29.4827 68.2544C28.6058 70.8852 28.1673 73.6804 28.1673 76.64C28.1673 79.8408 28.6606 82.8004 29.6471 85.5188C30.6556 88.2154 32.0587 90.5721 33.8563 92.589C35.654 94.606 37.7477 96.1735 40.1373 97.2915C42.5269 98.3877 45.1029 98.9358 47.8652 98.9358C50.1014 98.9358 52.2827 98.5631 54.4092 97.8177C56.5358 97.0723 58.4431 96.009 60.1312 94.6279C61.8412 93.2248 63.1894 91.5587 64.176 89.6294C65.1844 87.7002 65.6887 85.5517 65.6887 83.184V81.6056H47.4048V76.3112H72.5287V82.1646C72.5287 85.8477 71.8162 89.1142 70.3912 91.9642C68.9662 94.7923 67.0479 97.1819 64.6364 99.1331C62.2467 101.062 59.5721 102.531 56.6125 103.54C53.6748 104.548 50.6823 105.052 47.635 105.052ZM85.4991 104V49.7404H92.1746V73.8777H119.008V49.7404H125.684V104H119.008V79.7312H92.1746V104H85.4991Z" fill="white"/>
<path d="M37.1448 102.915L36.3256 104.739L36.3331 104.743L36.3406 104.746L37.1448 102.915ZM28.6606 96.8969L27.2034 98.2669L27.2097 98.2734L28.6606 96.8969ZM23.0044 87.9523L21.1458 88.691L21.1475 88.6951L23.0044 87.9523ZM22.8071 66.3142L24.6867 66.9977L24.6867 66.9977L22.8071 66.3142ZM28.1673 57.3038L26.6746 55.9728L26.6746 55.9728L28.1673 57.3038ZM36.7173 51.0558L35.8897 49.235L35.8852 49.2371L36.7173 51.0558ZM55.8562 49.7404L55.3387 51.6723L55.3488 51.675L55.359 51.6776L55.8562 49.7404ZM62.7619 52.4698L61.7891 54.2173L61.7891 54.2173L62.7619 52.4698ZM68.4181 56.679L70.0969 57.766L70.9819 56.3991L69.8228 55.2554L68.4181 56.679ZM65.0967 61.809L63.6317 63.1705L65.3799 65.0517L66.7756 62.896L65.0967 61.809ZM57.5662 56.6461L56.7702 58.4809L56.7783 58.4845L56.7864 58.4879L57.5662 56.6461ZM39.6769 56.4488L38.8276 54.6381L38.8276 54.6381L39.6769 56.4488ZM33.396 61.25L31.8636 59.9648L31.8636 59.9648L33.396 61.25ZM29.4827 68.2544L27.5901 67.6078L27.5877 67.6149L27.5853 67.622L29.4827 68.2544ZM29.6471 85.5188L27.7671 86.2011L27.7704 86.2103L27.7738 86.2194L29.6471 85.5188ZM33.8563 92.589L35.3494 91.2583L35.3494 91.2583L33.8563 92.589ZM40.1373 97.2915L39.2897 99.1031L39.2966 99.1063L39.3034 99.1094L40.1373 97.2915ZM54.4092 97.8177L55.0708 99.7051L55.0708 99.7051L54.4092 97.8177ZM60.1312 94.6279L61.3976 96.1758L61.3998 96.174L60.1312 94.6279ZM64.176 89.6294L62.4035 88.7029L62.3994 88.7109L62.3953 88.7188L64.176 89.6294ZM65.6887 81.6056H67.6887V79.6056H65.6887V81.6056ZM47.4048 81.6056H45.4048V83.6056H47.4048V81.6056ZM47.4048 76.3112V74.3112H45.4048V76.3112H47.4048ZM72.5287 76.3112H74.5287V74.3112H72.5287V76.3112ZM70.3912 91.9642L72.1772 92.8642L72.18 92.8587L70.3912 91.9642ZM64.6364 99.1331L65.8927 100.689L65.8943 100.688L64.6364 99.1331ZM56.6125 103.54L55.9674 101.646L55.9631 101.648L56.6125 103.54ZM47.635 103.052C44.1467 103.052 40.9256 102.391 37.949 101.084L36.3406 104.746C39.8532 106.289 43.6256 107.052 47.635 107.052V103.052ZM37.964 101.09C34.9793 99.7502 32.3657 97.8965 30.1115 95.5204L27.2097 98.2734C29.8223 101.027 32.865 103.186 36.3256 104.739L37.964 101.09ZM30.1177 95.527C27.8842 93.1514 26.1315 90.3847 24.8614 87.2095L21.1475 88.6951C22.5959 92.316 24.6138 95.5125 27.2034 98.2669L30.1177 95.527ZM24.863 87.2136C23.6038 84.0452 22.9656 80.6147 22.9656 76.9031H18.9656C18.9656 81.0837 19.6866 85.0194 21.1458 88.691L24.863 87.2136ZM22.9656 76.9031C22.9656 73.4471 23.5407 70.1492 24.6867 66.9977L20.9275 65.6307C19.6182 69.2315 18.9656 72.9929 18.9656 76.9031H22.9656ZM24.6867 66.9977C25.8294 63.8553 27.4864 61.0726 29.6601 58.6349L26.6746 55.9728C24.1566 58.7966 22.2402 62.0208 20.9275 65.6307L24.6867 66.9977ZM29.6601 58.6349C31.8132 56.2202 34.4348 54.2994 37.5494 52.8745L35.8852 49.2371C32.2914 50.8813 29.213 53.126 26.6746 55.9728L29.6601 58.6349ZM37.5449 52.8765C40.6256 51.4762 44.1518 50.7538 48.1612 50.7538V46.7538C43.6644 46.7538 39.5613 47.5661 35.8897 49.235L37.5449 52.8765ZM48.1612 50.7538C50.6702 50.7538 53.0607 51.0621 55.3387 51.6723L56.3736 47.8085C53.7409 47.1033 51.0014 46.7538 48.1612 46.7538V50.7538ZM55.359 51.6776C57.6787 52.2729 59.8198 53.1209 61.7891 54.2173L63.7347 50.7223C61.451 49.451 58.9882 48.4794 56.3533 47.8032L55.359 51.6776ZM61.7891 54.2173C63.7662 55.3179 65.5046 56.614 67.0134 58.1027L69.8228 55.2554C68.0431 53.4995 66.0107 51.9894 63.7347 50.7223L61.7891 54.2173ZM66.7392 55.5921L63.4179 60.7221L66.7756 62.896L70.0969 57.766L66.7392 55.5921ZM66.5618 60.4476C64.3342 58.0505 61.5827 56.1747 58.3459 54.8044L56.7864 58.4879C59.5565 59.6606 61.8254 61.2268 63.6317 63.1705L66.5618 60.4476ZM58.3621 54.8114C55.1263 53.4076 51.7201 52.706 48.1612 52.706V56.706C51.1791 56.706 54.0429 57.2978 56.7702 58.4809L58.3621 54.8114ZM48.1612 52.706C44.736 52.706 41.6104 53.3329 38.8276 54.6381L40.5262 58.2596C42.698 57.2409 45.2286 56.706 48.1612 56.706V52.706ZM38.8276 54.6381C36.0948 55.9199 33.7657 57.6968 31.8636 59.9648L34.9283 62.5352C36.4462 60.7255 38.3044 59.3016 40.5262 58.2596L38.8276 54.6381ZM31.8636 59.9648C29.9882 62.2009 28.565 64.7544 27.5901 67.6078L31.3753 68.9011C32.198 66.4929 33.3838 64.3768 34.9283 62.5352L31.8636 59.9648ZM27.5853 67.622C26.636 70.47 26.1673 73.4799 26.1673 76.64H30.1673C30.1673 73.8808 30.5756 71.3004 31.3801 68.8869L27.5853 67.622ZM26.1673 76.64C26.1673 80.0487 26.6932 83.2418 27.7671 86.2011L31.5271 84.8366C30.628 82.3589 30.1673 79.6328 30.1673 76.64H26.1673ZM27.7738 86.2194C28.8632 89.1324 30.3904 91.7063 32.3633 93.9198L35.3494 91.2583C33.7269 89.4379 32.4479 87.2984 31.5204 84.8183L27.7738 86.2194ZM32.3633 93.9198C34.3369 96.134 36.6486 97.8673 39.2897 99.1031L40.9849 95.48C38.8468 94.4796 36.9712 93.0779 35.3494 91.2583L32.3633 93.9198ZM39.3034 99.1094C41.9679 100.332 44.83 100.936 47.8652 100.936V96.9358C45.3758 96.9358 43.086 96.4437 40.9712 95.4737L39.3034 99.1094ZM47.8652 100.936C50.3284 100.936 52.7333 100.524 55.0708 99.7051L53.7477 95.9303C51.8321 96.6017 49.8743 96.9358 47.8652 96.9358V100.936ZM55.0708 99.7051C57.4098 98.8852 59.5233 97.7094 61.3976 96.1758L58.8647 93.08C57.3629 94.3087 55.6617 95.2594 53.7477 95.9303L55.0708 99.7051ZM61.3998 96.174C63.3178 94.6003 64.8423 92.7192 65.9567 90.54L62.3953 88.7188C61.5366 90.3981 60.3645 91.8493 58.8625 93.0817L61.3998 96.174ZM65.9484 90.5559C67.1192 88.3162 67.6887 85.8455 67.6887 83.184H63.6887C63.6887 85.258 63.2497 87.0842 62.4035 88.7029L65.9484 90.5559ZM67.6887 83.184V81.6056H63.6887V83.184H67.6887ZM65.6887 79.6056H47.4048V83.6056H65.6887V79.6056ZM49.4048 81.6056V76.3112H45.4048V81.6056H49.4048ZM47.4048 78.3112H72.5287V74.3112H47.4048V78.3112ZM70.5287 76.3112V82.1646H74.5287V76.3112H70.5287ZM70.5287 82.1646C70.5287 85.5857 69.8683 88.5378 68.6023 91.0698L72.18 92.8587C73.764 89.6906 74.5287 86.1097 74.5287 82.1646H70.5287ZM68.6051 91.0643C67.3049 93.6445 65.5647 95.8093 63.3784 97.5783L65.8943 100.688C68.531 98.5546 70.6274 95.9401 72.1772 92.8642L68.6051 91.0643ZM63.38 97.5769C61.1762 99.3562 58.7092 100.712 55.9674 101.646L57.2576 105.433C60.435 104.35 63.3173 102.768 65.8927 100.689L63.38 97.5769ZM55.9631 101.648C53.2303 102.586 50.4571 103.052 47.635 103.052V107.052C50.9075 107.052 54.1193 106.51 57.2619 105.431L55.9631 101.648ZM85.4991 104H83.4991V106H85.4991V104ZM85.4991 49.7404V47.7404H83.4991V49.7404H85.4991ZM92.1746 49.7404H94.1746V47.7404H92.1746V49.7404ZM92.1746 73.8777H90.1746V75.8777H92.1746V73.8777ZM119.008 73.8777V75.8777H121.008V73.8777H119.008ZM119.008 49.7404V47.7404H117.008V49.7404H119.008ZM125.684 49.7404H127.684V47.7404H125.684V49.7404ZM125.684 104V106H127.684V104H125.684ZM119.008 104H117.008V106H119.008V104ZM119.008 79.7312H121.008V77.7312H119.008V79.7312ZM92.1746 79.7312V77.7312H90.1746V79.7312H92.1746ZM92.1746 104V106H94.1746V104H92.1746ZM87.4991 104V49.7404H83.4991V104H87.4991ZM85.4991 51.7404H92.1746V47.7404H85.4991V51.7404ZM90.1746 49.7404V73.8777H94.1746V49.7404H90.1746ZM92.1746 75.8777H119.008V71.8777H92.1746V75.8777ZM121.008 73.8777V49.7404H117.008V73.8777H121.008ZM119.008 51.7404H125.684V47.7404H119.008V51.7404ZM123.684 49.7404V104H127.684V49.7404H123.684ZM125.684 102H119.008V106H125.684V102ZM121.008 104V79.7312H117.008V104H121.008ZM119.008 77.7312H92.1746V81.7312H119.008V77.7312ZM90.1746 79.7312V104H94.1746V79.7312H90.1746ZM92.1746 102H85.4991V106H92.1746V102Z" fill="white" mask="url(#path-2-outside-1_960_36)"/>
</svg>
