<svg width="30" height="30" viewBox="0 0 30 30" fill="none" xmlns="http://www.w3.org/2000/svg">
<path d="M11.7375 21H18.225C18.525 21 18.7687 20.875 18.9562 20.625C19.1437 20.375 19.2375 20.0875 19.2375 19.7625V18.1125C19.2375 17.8125 19.125 17.5562 18.9 17.3438C18.675 17.1313 18.4125 17.025 18.1125 17.025C17.7875 17.025 17.5188 17.1313 17.3063 17.3438C17.0938 17.5562 16.9875 17.825 16.9875 18.15V18.75H12.975V11.25H16.9875V11.925C16.9875 12.225 17.1 12.4812 17.325 12.6937C17.55 12.9062 17.8125 13.0125 18.1125 13.0125C18.4375 13.0125 18.7063 12.9062 18.9188 12.6937C19.1313 12.4812 19.2375 12.2125 19.2375 11.8875V10.275C19.2375 9.925 19.1437 9.625 18.9562 9.375C18.7687 9.125 18.525 9 18.225 9H11.7375C11.4375 9 11.1937 9.125 11.0062 9.375C10.8187 9.625 10.725 9.925 10.725 10.275V19.7625C10.725 20.0875 10.8187 20.375 11.0062 20.625C11.1937 20.875 11.4375 21 11.7375 21ZM15 30C12.875 30 10.9 29.6187 9.075 28.8562C7.25 28.0937 5.6625 27.0375 4.3125 25.6875C2.9625 24.3375 1.90625 22.75 1.14375 20.925C0.38125 19.1 0 17.125 0 15C0 12.9 0.38125 10.9375 1.14375 9.1125C1.90625 7.2875 2.9625 5.7 4.3125 4.35C5.6625 3 7.25 1.9375 9.075 1.1625C10.9 0.3875 12.875 0 15 0C17.1 0 19.0625 0.3875 20.8875 1.1625C22.7125 1.9375 24.3 3 25.65 4.35C27 5.7 28.0625 7.2875 28.8375 9.1125C29.6125 10.9375 30 12.9 30 15C30 17.125 29.6125 19.1 28.8375 20.925C28.0625 22.75 27 24.3375 25.65 25.6875C24.3 27.0375 22.7125 28.0937 20.8875 28.8562C19.0625 29.6187 17.1 30 15 30ZM15 27.75C18.625 27.75 21.6562 26.5312 24.0938 24.0938C26.5312 21.6562 27.75 18.625 27.75 15C27.75 11.375 26.5312 8.34375 24.0938 5.90625C21.6562 3.46875 18.625 2.25 15 2.25C11.375 2.25 8.34375 3.46875 5.90625 5.90625C3.46875 8.34375 2.25 11.375 2.25 15C2.25 18.625 3.46875 21.6562 5.90625 24.0938C8.34375 26.5312 11.375 27.75 15 27.75Z" fill="black"/>
</svg>
