<svg width="425" height="554" viewBox="0 0 425 554" fill="none" xmlns="http://www.w3.org/2000/svg">
<path opacity="0.1" d="M118.301 542C174.801 518.5 229.292 514.5 229.292 501.614C227.292 489 181.514 482 115.792 482C50.07 482 3.29382 487.5 0.291852 501.614C-4.70632 513.5 55.3008 517 118.301 542Z" fill="#393E46"/>
<path d="M114.301 512.114C176.433 512.114 226.801 458.388 226.801 392.114C226.801 325.839 176.433 272.114 114.301 272.114C52.1687 272.114 1.80078 325.839 1.80078 392.114C1.80078 458.388 52.1687 512.114 114.301 512.114Z" fill="#C0C0C0"/>
<path d="M241.301 478.614L237.301 500.614L263.301 504.614L280.301 494.614L279.301 478.614H241.301Z" fill="#99C221"/>
<path d="M96.8008 471.5L97.3008 491L114.301 489L125.301 488L124.801 472.5L96.8008 471.5Z" fill="#99C221"/>
<path d="M110.3 65.6135C110.3 65.6135 108.3 88.6135 103.3 89.6135C98.2999 90.6135 114.3 130.614 114.3 130.614H138.3L157.3 125.614L148.3 103.614C148.3 103.614 136.3 87.6135 145.3 74.6135C154.3 61.6135 110.3 65.6135 110.3 65.6135Z" fill="#F9CCB5"/>
<path d="M60.3021 241.614C60.3021 241.614 34.3021 291.614 55.3021 301.614C76.3021 311.614 81.3021 310.614 81.3021 313.614C81.3021 316.614 77.3021 315.614 79.3021 320.614C81.3021 325.614 75.3021 345.614 81.3021 357.614C87.3021 369.614 86.3008 378 86.3008 378C86.3008 378 86.3008 380 87.3021 383.614C87.8008 388 88.8008 436.5 88.8008 440C88.8008 443.5 89.8008 439.387 89.8008 478.5C95.8008 481.5 129.301 484.5 132.301 479.5C135.301 474.5 126.801 424 126.801 420C126.801 414.5 127.302 395 127.302 391.5C126.801 388 127.302 366.614 127.302 366.614C127.302 366.614 131.801 338 130.302 333.614C129.303 329.5 129.299 328 129.801 324.5C131.301 321.5 131.302 320.614 132.302 316.614C133.302 312.614 135.302 303.614 135.302 303.614L146.302 302.614L172.302 307.614C172.302 307.614 201.302 339.614 233.302 349.614C233.302 349.614 242.302 358.614 245.302 358.614C248.302 358.614 248.302 358.614 247.302 360.614C246.302 362.614 243.302 362.614 245.302 364.614C247.302 366.614 250.302 363.614 248.302 366.614C246.302 369.614 244.302 369.614 246.302 371.614C248.302 373.614 245.302 384.614 245.302 385.614C245.302 386.614 236.302 480.614 239.302 482.614C242.302 484.614 284.302 490.614 287.302 482.614C290.302 474.614 285.302 464.614 285.302 464.614C285.302 464.614 300.302 344.614 296.302 336.614C292.302 328.614 278.302 292.614 203.302 269.614C203.302 269.614 182.302 265.614 182.302 262.614C182.302 259.614 180.302 240.614 176.302 239.614C172.302 238.614 149.302 237.614 149.302 237.614L120.302 246.614L80.3021 239.614L60.3021 241.614Z" fill="#4F5860"/>
<path d="M97.3156 486L92.3156 504C92.3156 504 88.3156 533 93.3156 540C97.243 545.498 104.255 552.231 117.26 553.412C120.905 553.747 124.554 552.827 127.605 550.805C130.656 548.784 132.926 545.781 134.039 542.295C134.188 541.877 134.281 541.442 134.316 541C134.316 539 131.316 515 131.316 515L126.316 490L125.316 483L97.3156 486Z" fill="#4F5860"/>
<path d="M241.302 495.614C241.302 495.614 236.302 490.614 235.302 495.614C234.302 500.614 230.302 521.614 237.302 522.614C244.302 523.614 311.302 533.614 318.302 529.614C325.302 525.614 338.302 519.614 330.302 516.614C322.302 513.614 299.302 504.614 299.302 504.614C299.302 504.614 286.302 487.614 284.302 486.614C282.302 485.614 271.302 487.614 266.302 491.614C261.302 495.614 241.302 495.614 241.302 495.614Z" fill="#4F5860"/>
<path d="M134.301 86.6136C151.422 86.6136 165.301 72.7344 165.301 55.6136C165.301 38.4928 151.422 24.6136 134.301 24.6136C117.18 24.6136 103.301 38.4928 103.301 55.6136C103.301 72.7344 117.18 86.6136 134.301 86.6136Z" fill="#F9CCB5"/>
<path d="M131.302 125.614L119.302 112.614L106.001 86.6136C106.001 86.6136 96.3024 83.6136 94.3024 88.6136C92.3024 93.6136 56.3024 109.614 56.3024 109.614C56.3024 109.614 65.3024 193.614 61.3024 201.614C57.3024 209.614 50.3024 241.614 56.3024 244.614C62.3024 247.614 90.3024 244.614 99.3024 248.614C108.302 252.614 134.302 252.614 141.302 247.614C148.302 242.614 150.302 238.614 157.302 241.614C163.262 244.168 177.193 156.853 181.204 130.833C181.542 128.647 181.261 126.411 180.394 124.377C179.527 122.343 178.107 120.592 176.296 119.323C167.323 113.029 151.163 102.183 148.302 103.614C144.302 105.614 131.302 125.614 131.302 125.614Z" fill="#7F8792"/>
<path d="M174.3 121.614C176.649 122.201 178.761 123.492 180.354 125.315C181.947 127.137 182.944 129.404 183.211 131.809L191.3 204.614C191.3 204.614 171.3 247.614 161.3 218.614C151.3 189.614 174.3 121.614 174.3 121.614Z" fill="#7F8792"/>
<path d="M172.301 211.614L194.301 205.614C194.301 205.614 198.301 233.614 202.301 233.614C206.301 233.614 188.301 249.614 179.301 247.614C170.301 245.614 157.301 238.614 156.301 233.614C155.301 228.614 165.301 207.614 165.301 207.614L172.301 211.614Z" fill="#7F8792"/>
<path d="M136.301 140.614L139.301 134.614C139.301 134.614 183.301 147.614 192.301 159.614C192.301 159.614 214.301 145.614 226.301 147.614L238.301 149.614L201.301 182.614L154.301 178.614L136.301 140.614Z" fill="#EFEDE0"/>
<path d="M134.301 134.614L93.3008 191.614L152.301 220.614C152.301 220.614 157.817 223.614 162.059 220.614L201.301 202.614L238.301 149.614L201.301 168.614C201.301 168.614 197.301 160.614 189.301 164.614L134.301 134.614Z" fill="#99C221"/>
<path d="M197.301 235.614L205.301 214.614C205.301 214.614 223.301 191.614 213.301 180.614C203.301 169.614 192.301 212.614 192.301 212.614L197.301 235.614Z" fill="#F9CCB5"/>
<path d="M105 232.262L122.456 218.11C122.456 218.11 149.566 207.245 146.435 192.713C143.303 178.18 112.214 209.858 112.214 209.858L105 232.262Z" fill="#F9CCB5"/>
<path opacity="0.1" d="M61.7994 131.114H60.7994C60.7994 131.114 45.2994 112.614 42.2994 137.614C39.2994 162.614 29.2994 245.614 55.2994 248.614C81.2994 251.614 99.7994 236.114 99.7994 236.114C99.7994 236.114 118.799 207.114 111.799 207.114C108.413 207.114 99.2011 205.592 90.7994 206.114C81.8367 206.67 73.7833 209.194 74.2994 206.614C75.2994 201.614 89.7994 138.114 61.7994 131.114Z" fill="#393E46"/>
<path d="M60.2994 111.614L56.2994 109.614C56.2994 109.614 40.2994 112.614 37.2994 137.614C34.2994 162.614 24.2994 245.614 50.2994 248.614C76.2994 251.614 111.299 244.614 111.299 244.614C111.299 244.614 118.299 206.614 111.299 206.614C104.299 206.614 68.2994 211.614 69.2994 206.614C70.2994 201.614 88.2994 118.614 60.2994 111.614Z" fill="#7F8792"/>
<path d="M182.801 224.114L193.828 207.213L200.801 235.114L182.801 243.114V224.114Z" fill="#7F8792"/>
<path d="M97.3573 30.0945C100.276 28.2376 97.8172 21.2972 99.1644 18.1666C100.709 14.5773 104.994 15.3149 106.746 11.8186C108.631 8.05741 113.437 6.76103 117.733 6.30414C128.742 5.15031 139.905 6.85838 150.082 11.254C154.565 13.302 158.923 15.6051 163.131 18.1513C166.05 19.8411 163.608 16.3359 166.527 18.0257C167.662 18.5173 168.574 19.3974 169.088 20.4963C169.446 21.6392 168.359 23.1374 167.216 22.6931C170.714 25.0859 174.212 27.4787 177.71 29.8715C175.133 31.6211 172.557 33.3708 169.981 35.1205C173.196 34.8858 175.745 39.0519 173.979 41.6536C173.317 42.4542 172.463 43.0843 171.491 43.4895C170.518 43.8947 169.455 44.0628 168.394 43.9794C164.822 43.9443 166.803 47.6379 163.308 46.879C159.813 46.1202 136.741 34.2949 134.446 36.9259C132.812 38.7994 132.389 41.6272 130.309 43.025C127.648 44.8134 123.938 43.2286 121.403 41.2163C118.869 39.2041 116.402 36.6406 113.157 36.3574C109.77 36.0618 106.939 42.0281 105.5 45.0001C104.06 47.972 104.115 50.7036 104 54.0001C103.849 58.3293 106.651 64.671 106.5 69.0001C98.5125 69.5248 93.8095 60.7924 93.0457 48.9539C94.7568 41.9063 91.1382 34.0515 97.3573 30.0945Z" fill="#4F5860"/>
<path d="M307.77 105.701V182.79C307.77 183.773 308.135 184.715 308.783 185.409C309.431 186.104 310.311 186.495 311.227 186.495H417.848C418.765 186.495 419.644 186.104 420.292 185.409C420.941 184.715 421.305 183.773 421.306 182.79V105.701C421.304 104.719 420.939 103.779 420.29 103.085C419.642 102.391 418.764 102.001 417.848 102H311.227C310.311 102.001 309.433 102.392 308.785 103.085C308.137 103.779 307.772 104.719 307.77 105.701Z" fill="#C0C0C0"/>
<path d="M310.538 107.01V182.495C310.539 183.022 310.735 183.528 311.082 183.9C311.43 184.273 311.901 184.483 312.393 184.484H417.605C418.096 184.483 418.567 184.273 418.915 183.9C419.263 183.528 419.458 183.022 419.459 182.495V107.01C419.459 106.482 419.264 105.976 418.916 105.603C418.568 105.229 418.097 105.019 417.605 105.018H312.393C311.9 105.019 311.429 105.229 311.081 105.603C310.733 105.976 310.538 106.482 310.538 107.01Z" fill="#474747"/>
<path d="M305.475 197.695C305.672 197.968 305.921 198.189 306.206 198.34C306.49 198.49 306.801 198.568 307.116 198.566H421.964C422.278 198.566 422.588 198.488 422.872 198.338C423.155 198.187 423.405 197.969 423.603 197.698C423.801 197.428 423.942 197.112 424.015 196.773C424.089 196.434 424.094 196.081 424.03 195.74L422.247 186.344C422.173 185.961 422.014 185.604 421.784 185.307C421.554 185.009 421.261 184.78 420.931 184.641C420.692 184.537 420.438 184.483 420.181 184.484H308.892C308.636 184.483 308.381 184.537 308.142 184.641C307.812 184.78 307.519 185.009 307.289 185.307C307.059 185.604 306.9 185.961 306.826 186.344L305.044 195.74C304.98 196.081 304.986 196.434 305.061 196.772C305.135 197.11 305.277 197.425 305.475 197.695Z" fill="#868686"/>
<path d="M416.196 189.513H419.028C419.265 189.513 419.458 189.338 419.458 189.122V187.892C419.458 187.676 419.265 187.501 419.028 187.501H416.196C415.958 187.501 415.766 187.676 415.766 187.892V189.122C415.766 189.338 415.958 189.513 416.196 189.513Z" fill="#C0C0C0"/>
<path d="M408.811 189.513H411.643C411.881 189.513 412.073 189.338 412.073 189.122V187.892C412.073 187.676 411.881 187.501 411.643 187.501H408.811C408.574 187.501 408.381 187.676 408.381 187.892V189.122C408.381 189.338 408.574 189.513 408.811 189.513Z" fill="#C0C0C0"/>
<path d="M401.428 189.513H404.259C404.497 189.513 404.689 189.338 404.689 189.122V187.892C404.689 187.676 404.497 187.501 404.259 187.501H401.428C401.19 187.501 400.997 187.676 400.997 187.892V189.122C400.997 189.338 401.19 189.513 401.428 189.513Z" fill="#C0C0C0"/>
<path d="M394.966 189.513H397.797C398.035 189.513 398.228 189.338 398.228 189.122V187.892C398.228 187.676 398.035 187.501 397.797 187.501H394.966C394.728 187.501 394.535 187.676 394.535 187.892V189.122C394.535 189.338 394.728 189.513 394.966 189.513Z" fill="#C0C0C0"/>
<path d="M387.582 189.513H390.413C390.651 189.513 390.844 189.338 390.844 189.122V187.892C390.844 187.676 390.651 187.501 390.413 187.501H387.582C387.344 187.501 387.152 187.676 387.152 187.892V189.122C387.152 189.338 387.344 189.513 387.582 189.513Z" fill="#C0C0C0"/>
<path d="M381.013 189.513H383.136C383.314 189.513 383.459 189.338 383.459 189.122V187.892C383.459 187.676 383.314 187.501 383.136 187.501H381.013C380.834 187.501 380.69 187.676 380.69 187.892V189.122C380.69 189.338 380.834 189.513 381.013 189.513Z" fill="#C0C0C0"/>
<path d="M373.736 189.513H376.568C376.805 189.513 376.998 189.338 376.998 189.122V187.892C376.998 187.676 376.805 187.501 376.568 187.501H373.736C373.498 187.501 373.306 187.676 373.306 187.892V189.122C373.306 189.338 373.498 189.513 373.736 189.513Z" fill="#C0C0C0"/>
<path d="M366.351 189.513H369.183C369.421 189.513 369.613 189.338 369.613 189.122V187.892C369.613 187.676 369.421 187.501 369.183 187.501H366.351C366.114 187.501 365.921 187.676 365.921 187.892V189.122C365.921 189.338 366.114 189.513 366.351 189.513Z" fill="#C0C0C0"/>
<path d="M359.782 189.513H361.906C362.084 189.513 362.229 189.338 362.229 189.122V187.892C362.229 187.676 362.084 187.501 361.906 187.501H359.782C359.604 187.501 359.459 187.676 359.459 187.892V189.122C359.459 189.338 359.604 189.513 359.782 189.513Z" fill="#C0C0C0"/>
<path d="M352.506 189.513H355.337C355.575 189.513 355.768 189.338 355.768 189.122V187.892C355.768 187.676 355.575 187.501 355.337 187.501H352.506C352.268 187.501 352.075 187.676 352.075 187.892V189.122C352.075 189.338 352.268 189.513 352.506 189.513Z" fill="#C0C0C0"/>
<path d="M345.121 189.513H347.952C348.19 189.513 348.383 189.338 348.383 189.122V187.892C348.383 187.676 348.19 187.501 347.952 187.501H345.121C344.883 187.501 344.691 187.676 344.691 187.892V189.122C344.691 189.338 344.883 189.513 345.121 189.513Z" fill="#C0C0C0"/>
<path d="M338.66 189.513H341.492C341.729 189.513 341.922 189.338 341.922 189.122V187.892C341.922 187.676 341.729 187.501 341.492 187.501H338.66C338.422 187.501 338.23 187.676 338.23 187.892V189.122C338.23 189.338 338.422 189.513 338.66 189.513Z" fill="#C0C0C0"/>
<path d="M331.275 189.513H334.107C334.344 189.513 334.537 189.338 334.537 189.122V187.892C334.537 187.676 334.344 187.501 334.107 187.501H331.275C331.038 187.501 330.845 187.676 330.845 187.892V189.122C330.845 189.338 331.038 189.513 331.275 189.513Z" fill="#C0C0C0"/>
<path d="M323.891 189.513H326.723C326.961 189.513 327.153 189.338 327.153 189.122V187.892C327.153 187.676 326.961 187.501 326.723 187.501H323.891C323.654 187.501 323.461 187.676 323.461 187.892V189.122C323.461 189.338 323.654 189.513 323.891 189.513Z" fill="#C0C0C0"/>
<path d="M317.429 189.513H320.261C320.499 189.513 320.691 189.338 320.691 189.122V187.892C320.691 187.676 320.499 187.501 320.261 187.501H317.429C317.192 187.501 316.999 187.676 316.999 187.892V189.122C316.999 189.338 317.192 189.513 317.429 189.513Z" fill="#C0C0C0"/>
<path d="M310.046 189.513H312.877C313.115 189.513 313.308 189.338 313.308 189.122V187.892C313.308 187.676 313.115 187.501 312.877 187.501H310.046C309.808 187.501 309.615 187.676 309.615 187.892V189.122C309.615 189.338 309.808 189.513 310.046 189.513Z" fill="#C0C0C0"/>
<path d="M416.196 193.537H419.028C419.265 193.537 419.458 193.274 419.458 192.951V191.105C419.458 190.782 419.265 190.519 419.028 190.519H416.196C415.958 190.519 415.766 190.782 415.766 191.105V192.951C415.766 193.274 415.958 193.537 416.196 193.537Z" fill="#C0C0C0"/>
<path d="M408.811 193.537H411.643C411.881 193.537 412.073 193.274 412.073 192.951V191.105C412.073 190.782 411.881 190.519 411.643 190.519H408.811C408.574 190.519 408.381 190.782 408.381 191.105V192.951C408.381 193.274 408.574 193.537 408.811 193.537Z" fill="#C0C0C0"/>
<path d="M402.243 193.537H404.367C404.545 193.537 404.689 193.274 404.689 192.951V191.105C404.689 190.782 404.545 190.519 404.367 190.519H402.243C402.065 190.519 401.92 190.782 401.92 191.105V192.951C401.92 193.274 402.065 193.537 402.243 193.537Z" fill="#C0C0C0"/>
<path d="M394.966 193.537H397.797C398.035 193.537 398.228 193.274 398.228 192.951V191.105C398.228 190.782 398.035 190.519 397.797 190.519H394.966C394.728 190.519 394.535 190.782 394.535 191.105V192.951C394.535 193.274 394.728 193.537 394.966 193.537Z" fill="#C0C0C0"/>
<path d="M387.582 193.537H390.413C390.651 193.537 390.844 193.274 390.844 192.951V191.105C390.844 190.782 390.651 190.519 390.413 190.519H387.582C387.344 190.519 387.152 190.782 387.152 191.105V192.951C387.152 193.274 387.344 193.537 387.582 193.537Z" fill="#C0C0C0"/>
<path d="M381.013 193.537H383.136C383.314 193.537 383.459 193.274 383.459 192.951V191.105C383.459 190.782 383.314 190.519 383.136 190.519H381.013C380.834 190.519 380.69 190.782 380.69 191.105V192.951C380.69 193.274 380.834 193.537 381.013 193.537Z" fill="#C0C0C0"/>
<path d="M373.736 193.537H376.568C376.805 193.537 376.998 193.274 376.998 192.951V191.105C376.998 190.782 376.805 190.519 376.568 190.519H373.736C373.499 190.519 373.306 190.782 373.306 191.105V192.951C373.306 193.274 373.499 193.537 373.736 193.537Z" fill="#C0C0C0"/>
<path d="M366.351 193.537H369.183C369.421 193.537 369.613 193.274 369.613 192.951V191.105C369.613 190.782 369.421 190.519 369.183 190.519H366.351C366.114 190.519 365.921 190.782 365.921 191.105V192.951C365.921 193.274 366.114 193.537 366.351 193.537Z" fill="#C0C0C0"/>
<path d="M359.89 193.537H362.722C362.96 193.537 363.152 193.274 363.152 192.951V191.105C363.152 190.782 362.96 190.519 362.722 190.519H359.89C359.653 190.519 359.46 190.782 359.46 191.105V192.951C359.46 193.274 359.653 193.537 359.89 193.537Z" fill="#C0C0C0"/>
<path d="M352.506 193.537H355.337C355.575 193.537 355.768 193.274 355.768 192.951V191.105C355.768 190.782 355.575 190.519 355.337 190.519H352.506C352.268 190.519 352.075 190.782 352.075 191.105V192.951C352.075 193.274 352.268 193.537 352.506 193.537Z" fill="#C0C0C0"/>
<path d="M345.121 193.537H347.952C348.19 193.537 348.383 193.274 348.383 192.951V191.105C348.383 190.782 348.19 190.519 347.952 190.519H345.121C344.883 190.519 344.691 190.782 344.691 191.105V192.951C344.691 193.274 344.883 193.537 345.121 193.537Z" fill="#C0C0C0"/>
<path d="M338.66 193.537H341.491C341.729 193.537 341.922 193.274 341.922 192.951V191.105C341.922 190.782 341.729 190.519 341.491 190.519H338.66C338.422 190.519 338.23 190.782 338.23 191.105V192.951C338.23 193.274 338.422 193.537 338.66 193.537Z" fill="#C0C0C0"/>
<path d="M331.275 193.537H334.107C334.344 193.537 334.537 193.274 334.537 192.951V191.105C334.537 190.782 334.344 190.519 334.107 190.519H331.275C331.038 190.519 330.845 190.782 330.845 191.105V192.951C330.845 193.274 331.038 193.537 331.275 193.537Z" fill="#C0C0C0"/>
<path d="M323.891 193.537H326.723C326.961 193.537 327.153 193.274 327.153 192.951V191.105C327.153 190.782 326.961 190.519 326.723 190.519H323.891C323.654 190.519 323.461 190.782 323.461 191.105V192.951C323.461 193.274 323.654 193.537 323.891 193.537Z" fill="#C0C0C0"/>
<path d="M317.429 193.537H320.261C320.499 193.537 320.691 193.274 320.691 192.951V191.105C320.691 190.782 320.499 190.519 320.261 190.519H317.429C317.192 190.519 316.999 190.782 316.999 191.105V192.951C316.999 193.274 317.192 193.537 317.429 193.537Z" fill="#C0C0C0"/>
<path d="M310.046 193.537H312.877C313.115 193.537 313.308 193.274 313.308 192.951V191.105C313.308 190.782 313.115 190.519 312.877 190.519H310.046C309.808 190.519 309.615 190.782 309.615 191.105V192.951C309.615 193.274 309.808 193.537 310.046 193.537Z" fill="#C0C0C0"/>
<path d="M357.108 197.56H384.889C385.119 197.56 385.306 197.385 385.306 197.169V195.939C385.306 195.724 385.119 195.549 384.889 195.549H357.108C356.877 195.549 356.691 195.724 356.691 195.939V197.169C356.691 197.385 356.877 197.56 357.108 197.56Z" fill="#C0C0C0"/>
<path d="M328.473 121.112H325.833C325.033 121.112 324.384 121.788 324.384 122.621C324.384 123.454 325.033 124.13 325.833 124.13H328.473C329.273 124.13 329.922 123.454 329.922 122.621C329.922 121.788 329.273 121.112 328.473 121.112Z" fill="#99C221"/>
<path d="M356.164 121.112H353.524C352.724 121.112 352.075 121.788 352.075 122.621C352.075 123.454 352.724 124.13 353.524 124.13H356.164C356.965 124.13 357.614 123.454 357.614 122.621C357.614 121.788 356.965 121.112 356.164 121.112Z" fill="#99C221"/>
<path d="M363.549 121.112H360.909C360.109 121.112 359.46 121.788 359.46 122.621C359.46 123.454 360.109 124.13 360.909 124.13H363.549C364.349 124.13 364.998 123.454 364.998 122.621C364.998 121.788 364.349 121.112 363.549 121.112Z" fill="#99C221"/>
<path d="M347.99 121.112H333.085C332.358 121.112 331.769 121.788 331.769 122.621C331.769 123.454 332.358 124.13 333.085 124.13H347.99C348.717 124.13 349.307 123.454 349.307 122.621C349.307 121.788 348.717 121.112 347.99 121.112Z" fill="#99C221"/>
<path d="M384.912 121.112H370.007C369.28 121.112 368.69 121.788 368.69 122.621C368.69 123.454 369.28 124.13 370.007 124.13H384.912C385.639 124.13 386.229 123.454 386.229 122.621C386.229 121.788 385.639 121.112 384.912 121.112Z" fill="#99C221"/>
<path d="M335.858 127.148H333.218C332.417 127.148 331.769 127.823 331.769 128.656C331.769 129.49 332.417 130.165 333.218 130.165H335.858C336.658 130.165 337.307 129.49 337.307 128.656C337.307 127.823 336.658 127.148 335.858 127.148Z" fill="#99C221"/>
<path d="M362.868 127.148H360.668C360.001 127.148 359.46 127.823 359.46 128.656C359.46 129.49 360.001 130.165 360.668 130.165H362.868C363.535 130.165 364.075 129.49 364.075 128.656C364.075 127.823 363.535 127.148 362.868 127.148Z" fill="#99C221"/>
<path d="M370.933 127.148H368.293C367.493 127.148 366.844 127.823 366.844 128.656C366.844 129.49 367.493 130.165 368.293 130.165H370.933C371.733 130.165 372.382 129.49 372.382 128.656C372.382 127.823 371.733 127.148 370.933 127.148Z" fill="#99C221"/>
<path d="M355.374 127.148H340.469C339.742 127.148 339.152 127.823 339.152 128.656C339.152 129.49 339.742 130.165 340.469 130.165H355.374C356.101 130.165 356.69 129.49 356.69 128.656C356.69 127.823 356.101 127.148 355.374 127.148Z" fill="#99C221"/>
<path d="M392.296 127.148H377.391C376.664 127.148 376.074 127.823 376.074 128.656C376.074 129.49 376.664 130.165 377.391 130.165H392.296C393.023 130.165 393.612 129.49 393.612 128.656C393.612 127.823 393.023 127.148 392.296 127.148Z" fill="#99C221"/>
<path d="M343.241 134.189H340.602C339.801 134.189 339.152 134.864 339.152 135.698C339.152 136.531 339.801 137.206 340.602 137.206H343.241C344.042 137.206 344.691 136.531 344.691 135.698C344.691 134.864 344.042 134.189 343.241 134.189Z" fill="#99C221"/>
<path d="M370.251 134.189H368.051C367.384 134.189 366.844 134.864 366.844 135.698C366.844 136.531 367.384 137.206 368.051 137.206H370.251C370.918 137.206 371.459 136.531 371.459 135.698C371.459 134.864 370.918 134.189 370.251 134.189Z" fill="#99C221"/>
<path d="M378.318 134.189H375.678C374.877 134.189 374.229 134.864 374.229 135.698C374.229 136.531 374.877 137.206 375.678 137.206H378.318C379.118 137.206 379.767 136.531 379.767 135.698C379.767 134.864 379.118 134.189 378.318 134.189Z" fill="#99C221"/>
<path d="M362.759 134.189H347.854C347.126 134.189 346.537 134.639 346.537 135.195C346.537 135.75 347.126 136.201 347.854 136.201H362.759C363.486 136.201 364.075 135.75 364.075 135.195C364.075 134.639 363.486 134.189 362.759 134.189Z" fill="#99C221"/>
<path d="M399.681 134.189H384.776C384.048 134.189 383.459 134.639 383.459 135.195C383.459 135.75 384.048 136.201 384.776 136.201H399.681C400.408 136.201 400.997 135.75 400.997 135.195C400.997 134.639 400.408 134.189 399.681 134.189Z" fill="#99C221"/>
<path d="M350.626 140.224H347.986C347.186 140.224 346.537 140.9 346.537 141.733C346.537 142.566 347.186 143.242 347.986 143.242H350.626C351.427 143.242 352.075 142.566 352.075 141.733C352.075 140.9 351.427 140.224 350.626 140.224Z" fill="#99C221"/>
<path d="M377.636 140.224H375.436C374.769 140.224 374.229 140.9 374.229 141.733C374.229 142.566 374.769 143.242 375.436 143.242H377.636C378.303 143.242 378.844 142.566 378.844 141.733C378.844 140.9 378.303 140.224 377.636 140.224Z" fill="#99C221"/>
<path d="M385.702 140.224H383.063C382.262 140.224 381.613 140.9 381.613 141.733C381.613 142.566 382.262 143.242 383.063 143.242H385.702C386.503 143.242 387.152 142.566 387.152 141.733C387.152 140.9 386.503 140.224 385.702 140.224Z" fill="#99C221"/>
<path d="M370.144 140.224H355.238C354.511 140.224 353.922 140.9 353.922 141.733C353.922 142.566 354.511 143.242 355.238 143.242H370.144C370.871 143.242 371.46 142.566 371.46 141.733C371.46 140.9 370.871 140.224 370.144 140.224Z" fill="#99C221"/>
<path d="M356.164 165.372H353.524C352.724 165.372 352.075 166.047 352.075 166.88C352.075 167.714 352.724 168.389 353.524 168.389H356.164C356.965 168.389 357.614 167.714 357.614 166.88C357.614 166.047 356.965 165.372 356.164 165.372Z" fill="#99C221"/>
<path d="M363.549 165.372H360.909C360.109 165.372 359.46 166.047 359.46 166.88C359.46 167.714 360.109 168.389 360.909 168.389H363.549C364.349 168.389 364.998 167.714 364.998 166.88C364.998 166.047 364.349 165.372 363.549 165.372Z" fill="#99C221"/>
<path d="M384.912 166.378H370.007C369.28 166.378 368.69 166.828 368.69 167.383C368.69 167.939 369.28 168.389 370.007 168.389H384.912C385.639 168.389 386.229 167.939 386.229 167.383C386.229 166.828 385.639 166.378 384.912 166.378Z" fill="#99C221"/>
<path d="M328.473 165.372H325.833C325.033 165.372 324.384 166.047 324.384 166.88C324.384 167.714 325.033 168.389 325.833 168.389H328.473C329.273 168.389 329.922 167.714 329.922 166.88C329.922 166.047 329.273 165.372 328.473 165.372Z" fill="#99C221"/>
<path d="M347.99 166.378H333.085C332.358 166.378 331.769 166.828 331.769 167.383C331.769 167.939 332.358 168.389 333.085 168.389H347.99C348.717 168.389 349.307 167.939 349.307 167.383C349.307 166.828 348.717 166.378 347.99 166.378Z" fill="#99C221"/>
<path d="M335.858 159.336H333.218C332.417 159.336 331.769 160.012 331.769 160.845C331.769 161.678 332.417 162.354 333.218 162.354H335.858C336.658 162.354 337.307 161.678 337.307 160.845C337.307 160.012 336.658 159.336 335.858 159.336Z" fill="#99C221"/>
<path d="M362.868 159.336H360.668C360.001 159.336 359.46 160.012 359.46 160.845C359.46 161.678 360.001 162.354 360.668 162.354H362.868C363.535 162.354 364.075 161.678 364.075 160.845C364.075 160.012 363.535 159.336 362.868 159.336Z" fill="#99C221"/>
<path d="M370.933 159.336H368.293C367.493 159.336 366.844 160.012 366.844 160.845C366.844 161.678 367.493 162.354 368.293 162.354H370.933C371.733 162.354 372.382 161.678 372.382 160.845C372.382 160.012 371.733 159.336 370.933 159.336Z" fill="#99C221"/>
<path d="M355.374 159.336H340.469C339.742 159.336 339.152 160.012 339.152 160.845C339.152 161.678 339.742 162.354 340.469 162.354H355.374C356.101 162.354 356.69 161.678 356.69 160.845C356.69 160.012 356.101 159.336 355.374 159.336Z" fill="#99C221"/>
<path d="M343.241 153.301H340.602C339.801 153.301 339.152 153.751 339.152 154.307C339.152 154.862 339.801 155.313 340.602 155.313H343.241C344.042 155.313 344.691 154.862 344.691 154.307C344.691 153.751 344.042 153.301 343.241 153.301Z" fill="#99C221"/>
<path d="M370.251 153.301H368.051C367.384 153.301 366.844 153.751 366.844 154.307C366.844 154.862 367.384 155.313 368.051 155.313H370.251C370.918 155.313 371.459 154.862 371.459 154.307C371.459 153.751 370.918 153.301 370.251 153.301Z" fill="#99C221"/>
<path d="M378.318 153.301H375.678C374.877 153.301 374.229 153.751 374.229 154.307C374.229 154.862 374.877 155.313 375.678 155.313H378.318C379.118 155.313 379.767 154.862 379.767 154.307C379.767 153.751 379.118 153.301 378.318 153.301Z" fill="#99C221"/>
<path d="M362.759 153.301H347.854C347.126 153.301 346.537 153.976 346.537 154.81C346.537 155.643 347.126 156.318 347.854 156.318H362.759C363.486 156.318 364.075 155.643 364.075 154.81C364.075 153.976 363.486 153.301 362.759 153.301Z" fill="#99C221"/>
<path d="M350.626 146.26H347.986C347.186 146.26 346.537 146.935 346.537 147.768C346.537 148.602 347.186 149.277 347.986 149.277H350.626C351.427 149.277 352.075 148.602 352.075 147.768C352.075 146.935 351.427 146.26 350.626 146.26Z" fill="#99C221"/>
<path d="M377.636 146.26H375.436C374.769 146.26 374.229 146.935 374.229 147.768C374.229 148.602 374.769 149.277 375.436 149.277H377.636C378.303 149.277 378.844 148.602 378.844 147.768C378.844 146.935 378.303 146.26 377.636 146.26Z" fill="#99C221"/>
<path d="M385.702 146.26H383.063C382.262 146.26 381.613 146.935 381.613 147.768C381.613 148.602 382.262 149.277 383.063 149.277H385.702C386.503 149.277 387.152 148.602 387.152 147.768C387.152 146.935 386.503 146.26 385.702 146.26Z" fill="#99C221"/>
<path d="M370.144 147.266H355.238C354.511 147.266 353.922 147.716 353.922 148.271C353.922 148.827 354.511 149.277 355.238 149.277H370.144C370.871 149.277 371.46 148.827 371.46 148.271C371.46 147.716 370.871 147.266 370.144 147.266Z" fill="#99C221"/>
<path d="M211.748 173.214C217.644 172.204 224.21 173.287 228.766 175.768C231.224 177.116 233.028 178.858 233.977 180.802C235.14 183.115 235.333 185.556 235.455 187.96C235.589 190.619 235.706 193.278 235.832 195.937C235.951 198.473 235.965 201.02 236.239 203.551C236.469 205.675 237.02 207.88 238.861 209.722C240.567 211.43 243.263 212.583 246.31 213.218C249.399 213.863 252.728 214.013 255.968 213.999C259.738 213.992 263.502 213.808 267.227 213.449C274.303 212.749 281.292 210.964 285.614 207.28C287.603 205.608 288.721 203.601 288.819 201.527C288.91 199.109 287.66 196.768 286.29 194.535C284.957 192.363 283.514 190.222 282.671 187.95C281.887 185.824 281.513 183.649 281.558 181.468C281.63 177.107 283.323 172.814 286.506 168.92C288.117 166.92 290.161 165.064 292.581 163.404C295.077 161.727 298.168 160.343 301.843 159.889C303.637 159.659 305.494 159.706 307.252 160.023C308.002 160.162 308.322 159.439 307.575 159.3C303.934 158.627 299.978 159.139 296.75 160.307C293.576 161.456 291.068 163.18 288.939 165.007C284.849 168.59 282.127 172.698 280.975 177.023C279.824 181.348 280.274 185.779 282.292 189.981C284.452 194.351 289.15 198.899 287.132 203.628C285.365 207.768 279.245 210.581 272.923 211.851C269.087 212.622 265.066 212.948 261.055 213.117C257.665 213.26 254.229 213.35 250.849 213.081C247.745 212.834 244.551 212.248 242.144 210.961C239.506 209.551 238.3 207.524 237.775 205.444C237.181 203.09 237.269 200.663 237.157 198.289L236.774 190.183C236.558 185.604 236.744 180.531 231.921 176.737C229.992 175.259 227.543 174.072 224.76 173.266C221.976 172.46 218.932 172.057 215.858 172.087C214.36 172.109 212.871 172.244 211.426 172.492C211.276 172.521 211.149 172.585 211.074 172.67C210.999 172.755 210.98 172.856 211.022 172.949C211.064 173.043 211.163 173.123 211.298 173.173C211.434 173.222 211.595 173.237 211.748 173.214H211.748Z" fill="#99C221"/>
</svg>
