<svg width="70" height="70" viewBox="0 0 70 70" fill="none" xmlns="http://www.w3.org/2000/svg">
<path d="M35 70C54.33 70 70 54.33 70 35C70 15.67 54.33 0 35 0C15.67 0 0 15.67 0 35C0 54.33 15.67 70 35 70Z" fill="#41474C"/>
<path d="M53.4 16H16.6C14.07 16 12.023 18.1193 12.023 20.7095L12 48.9667C12 51.5569 14.07 53.6762 16.6 53.6762H53.4C55.93 53.6762 58 51.5569 58 48.9667V20.7095C58 18.1193 55.93 16 53.4 16ZM51.1 48.9667H18.9C17.635 48.9667 16.6 47.907 16.6 46.6119V25.419L32.562 35.6387C34.057 36.6042 35.943 36.6042 37.438 35.6387L53.4 25.419V46.6119C53.4 47.907 52.365 48.9667 51.1 48.9667ZM35 20.7095H16.6H53.4H35Z" fill="#99C221"/>
</svg>
