<svg width="50" height="41" viewBox="0 0 50 41" fill="none" xmlns="http://www.w3.org/2000/svg">
<path d="M45 0H5C2.25 0 0.025 2.30357 0.025 5.11905L0 35.8333C0 38.6488 2.25 40.9524 5 40.9524H45C47.75 40.9524 50 38.6488 50 35.8333V5.11905C50 2.30357 47.75 0 45 0ZM42.5 35.8333H7.5C6.125 35.8333 5 34.6815 5 33.2738V10.2381L22.35 21.3464C23.975 22.3958 26.025 22.3958 27.65 21.3464L45 10.2381V33.2738C45 34.6815 43.875 35.8333 42.5 35.8333ZM25 17.9167L5 5.11905H45L25 17.9167Z" fill="#FFD369"/>
</svg>
