<svg width="31" height="26" viewBox="0 0 31 26" fill="none" xmlns="http://www.w3.org/2000/svg">
<path d="M27.5344 0H3.05937C1.37672 0 0.0152969 1.4095 0.0152969 3.13222L0 21.9255C0 23.6482 1.37672 25.0577 3.05937 25.0577H27.5344C29.217 25.0577 30.5937 23.6482 30.5937 21.9255V3.13222C30.5937 1.4095 29.217 0 27.5344 0ZM26.0047 21.9255H4.58906C3.74773 21.9255 3.05937 21.2208 3.05937 20.3594V6.26443L13.6754 13.0613C14.6697 13.7035 15.924 13.7035 16.9183 13.0613L27.5344 6.26443V20.3594C27.5344 21.2208 26.846 21.9255 26.0047 21.9255ZM15.2969 3.13222H3.05937H27.5344H15.2969Z" fill="#F3F1E8"/>
</svg>
