<svg width="505" height="384" viewBox="0 0 505 384" fill="none" xmlns="http://www.w3.org/2000/svg">
<path d="M0 273.356C7.81859 282.62 16.2753 291.327 25.3082 299.411L366.933 300.311C375.966 292.227 384.422 283.52 392.241 274.256L0 273.356Z" fill="#C0C0C0"/>
<path d="M172.523 186.226V278.531H237.189V186.226C237.19 185.563 236.978 184.916 236.585 184.381C236.191 183.847 235.636 183.452 235.002 183.256C234.703 183.158 234.39 183.109 234.075 183.112H175.646C175.237 183.112 174.831 183.192 174.452 183.348C174.074 183.504 173.73 183.733 173.44 184.022C173.15 184.311 172.919 184.655 172.762 185.033C172.605 185.411 172.524 185.817 172.523 186.226ZM197.76 217.943C197.777 216.123 198.512 214.384 199.804 213.103C201.097 211.823 202.843 211.104 204.663 211.104C206.482 211.104 208.228 211.823 209.521 213.103C210.814 214.384 211.549 216.123 211.566 217.943V228.653C211.556 230.477 210.825 232.224 209.531 233.511C208.238 234.798 206.487 235.521 204.663 235.521C202.838 235.521 201.087 234.798 199.794 233.511C198.5 232.224 197.769 230.477 197.76 228.653V217.943Z" fill="#C0C0C0"/>
<path d="M172.326 275.579V284.48C172.328 284.941 172.511 285.383 172.836 285.71C173.161 286.037 173.602 286.222 174.063 286.226H235.651C236.112 286.224 236.554 286.039 236.88 285.712C237.205 285.385 237.388 284.942 237.388 284.48V275.579H172.326Z" fill="#C0C0C0"/>
<path d="M70.7949 47.1574V215.693C70.7966 217.84 71.6506 219.9 73.1693 221.418C74.688 222.937 76.7472 223.791 78.895 223.793H328.647C330.795 223.791 332.854 222.937 334.373 221.418C335.891 219.9 336.745 217.84 336.747 215.693V47.1574C336.742 45.0115 335.887 42.9551 334.368 41.4386C332.85 39.9221 330.793 39.069 328.647 39.0663H78.895C76.7491 39.069 74.6918 39.9221 73.1736 41.4386C71.6554 42.9551 70.8 45.0115 70.7949 47.1574Z" fill="#C0C0C0"/>
<path d="M76.6543 49.2543V213.614C76.6563 214.761 77.113 215.861 77.9244 216.672C78.7359 217.484 79.8358 217.941 80.9833 217.943H326.568C327.716 217.941 328.816 217.484 329.627 216.672C330.439 215.861 330.895 214.761 330.897 213.614V49.2543C330.897 48.1054 330.441 47.0034 329.63 46.1901C328.818 45.3769 327.717 44.9188 326.568 44.9163H80.9833C79.8344 44.9188 78.7334 45.3769 77.9218 46.1902C77.1103 47.0034 76.6544 48.1054 76.6543 49.2543Z" fill="#474747"/>
<path d="M126.731 288.323C126.981 288.637 127.299 288.889 127.661 289.062C128.022 289.235 128.419 289.324 128.819 289.322H274.927C275.326 289.322 275.721 289.232 276.081 289.06C276.442 288.888 276.76 288.637 277.011 288.327C277.263 288.017 277.442 287.654 277.536 287.266C277.63 286.878 277.637 286.473 277.555 286.082L275.287 275.309C275.193 274.87 274.99 274.461 274.698 274.12C274.405 273.779 274.032 273.516 273.613 273.356C273.309 273.237 272.985 273.176 272.659 273.176H131.078C130.752 273.176 130.428 273.237 130.124 273.356C129.705 273.516 129.332 273.779 129.039 274.12C128.747 274.461 128.544 274.87 128.45 275.309L126.182 286.082C126.102 286.473 126.109 286.877 126.204 287.265C126.299 287.652 126.479 288.014 126.731 288.323Z" fill="#C0C0C0"/>
<path d="M131.075 275.426C131.031 275.426 130.987 275.434 130.945 275.449C130.873 275.474 130.809 275.515 130.758 275.571C130.706 275.626 130.669 275.693 130.65 275.767L128.381 286.546C128.369 286.608 128.371 286.672 128.387 286.734C128.402 286.795 128.432 286.853 128.472 286.902L128.482 286.914C128.521 286.965 128.572 287.006 128.63 287.033C128.688 287.061 128.752 287.074 128.816 287.072H274.923C274.987 287.073 275.05 287.059 275.108 287.032C275.166 287.005 275.216 286.964 275.256 286.915C275.299 286.867 275.33 286.809 275.346 286.747C275.363 286.685 275.365 286.62 275.352 286.557L273.082 275.772C273.065 275.701 273.031 275.636 272.984 275.581C272.936 275.527 272.876 275.484 272.808 275.458C272.76 275.437 272.708 275.427 272.655 275.426H131.075Z" fill="#F9F7F7"/>
<path d="M88.8801 67.5575H318.673C318.912 67.5522 319.139 67.4536 319.306 67.2828C319.473 67.112 319.567 66.8826 319.567 66.6437C319.567 66.4048 319.473 66.1753 319.306 66.0045C319.139 65.8337 318.912 65.7352 318.673 65.7299H88.8801C88.6413 65.7352 88.414 65.8337 88.2469 66.0045C88.0799 66.1753 87.9863 66.4048 87.9863 66.6437C87.9863 66.8826 88.0799 67.112 88.2469 67.2828C88.414 67.4536 88.6413 67.5522 88.8801 67.5575Z" fill="#C0C0C0"/>
<path d="M303.029 61.0641C305.987 61.0641 308.385 58.613 308.385 55.5893C308.385 52.5657 305.987 50.1146 303.029 50.1146C300.072 50.1146 297.674 52.5657 297.674 55.5893C297.674 58.613 300.072 61.0641 303.029 61.0641Z" fill="#FFD369"/>
<path d="M284.529 61.0641C287.487 61.0641 289.885 58.613 289.885 55.5893C289.885 52.5657 287.487 50.1146 284.529 50.1146C281.572 50.1146 279.174 52.5657 279.174 55.5893C279.174 58.613 281.572 61.0641 284.529 61.0641Z" fill="#FFD369"/>
<path d="M266.027 61.0641C268.985 61.0641 271.383 58.613 271.383 55.5893C271.383 52.5657 268.985 50.1146 266.027 50.1146C263.07 50.1146 260.672 52.5657 260.672 55.5893C260.672 58.613 263.07 61.0641 266.027 61.0641Z" fill="#FFD369"/>
<path d="M99.0391 52.4673C99.0385 52.5968 99.0634 52.725 99.1123 52.8448C99.1613 52.9646 99.2334 53.0737 99.3245 53.1656C99.4156 53.2575 99.5239 53.3306 99.6433 53.3807C99.7626 53.4307 99.8907 53.4568 100.02 53.4574H113.16C113.42 53.4513 113.667 53.3439 113.849 53.158C114.03 52.9722 114.132 52.7227 114.132 52.4628C114.132 52.203 114.03 51.9535 113.849 51.7677C113.667 51.5818 113.42 51.4744 113.16 51.4683H100.02C99.7578 51.4715 99.5074 51.5784 99.3236 51.7655C99.1398 51.9527 99.0375 52.205 99.0391 52.4673Z" fill="#C0C0C0"/>
<path d="M99.0391 56.2024C99.0385 56.3318 99.0633 56.4601 99.1123 56.5799C99.1613 56.6997 99.2334 56.8087 99.3245 56.9006C99.4156 56.9926 99.5239 57.0657 99.6433 57.1157C99.7626 57.1658 99.8907 57.1918 100.02 57.1924H113.16C113.42 57.1867 113.668 57.0793 113.849 56.8935C114.031 56.7076 114.133 56.4579 114.133 56.1979C114.133 55.9379 114.031 55.6882 113.849 55.5023C113.668 55.3164 113.42 55.2091 113.16 55.2034H100.02C99.7578 55.2066 99.5074 55.3134 99.3236 55.5006C99.1398 55.6878 99.0375 55.9401 99.0391 56.2024Z" fill="#C0C0C0"/>
<path d="M99.0391 59.9284C99.0375 60.1908 99.1398 60.4431 99.3236 60.6302C99.5074 60.8174 99.7578 60.9242 100.02 60.9274H113.16C113.42 60.9214 113.667 60.8139 113.849 60.6281C114.03 60.4423 114.132 60.1928 114.132 59.9329C114.132 59.6731 114.03 59.4236 113.849 59.2378C113.667 59.0519 113.42 58.9445 113.16 58.9384H100.02C99.8907 58.939 99.7626 58.965 99.6433 59.0151C99.5239 59.0652 99.4156 59.1383 99.3245 59.2302C99.2334 59.3221 99.1613 59.4311 99.1123 59.5509C99.0633 59.6707 99.0385 59.799 99.0391 59.9284Z" fill="#C0C0C0"/>
<path d="M284.431 95.4523H123.116C120.997 95.4548 118.965 96.2977 117.467 97.7962C115.968 99.2947 115.126 101.326 115.123 103.446V181.959C115.125 184.079 115.968 186.11 117.467 187.609C118.965 189.108 120.997 189.951 123.116 189.953H284.431C286.55 189.951 288.582 189.108 290.081 187.609C291.579 186.11 292.422 184.079 292.424 181.959V103.446C292.422 101.326 291.579 99.2947 290.08 97.7962C288.582 96.2977 286.55 95.4548 284.431 95.4523ZM290.624 103.446V126.352H233.924V97.2523H284.431C286.073 97.2542 287.647 97.9073 288.808 99.0683C289.969 100.229 290.623 101.804 290.624 103.446H290.624ZM175.423 157.253V128.152H232.124V157.253H175.423ZM232.124 159.053V188.153H175.423V159.053H232.124ZM173.623 157.253H116.923V128.152H173.623V157.253ZM175.423 126.352V97.2523H232.124V126.352H175.423ZM233.924 128.152H290.624V157.253H233.924V128.152ZM123.116 97.2523H173.624V126.352H116.923V103.446C116.925 101.804 117.578 100.229 118.739 99.0683C119.9 97.9073 121.474 97.2542 123.116 97.2523V97.2523ZM116.923 181.959V159.053H173.624V188.153H123.116C121.474 188.151 119.9 187.498 118.739 186.337C117.578 185.176 116.925 183.601 116.923 181.959ZM284.431 188.153H233.924V159.053H290.624V181.959C290.623 183.601 289.97 185.176 288.808 186.337C287.647 187.498 286.073 188.151 284.431 188.153H284.431Z" fill="#C0C0C0"/>
<path d="M195.577 115.386C194.146 113.018 192.449 110.49 189.793 109.717C186.716 108.822 183.556 110.601 180.875 112.356C172.859 117.604 165.138 123.293 157.75 129.394L157.758 129.486L175.015 128.296C179.171 128.009 183.469 127.683 187.142 125.717C188.536 124.971 189.894 123.975 191.474 123.905C193.436 123.819 195.146 125.189 196.491 126.621C204.444 135.09 206.745 148.04 215.668 155.481C210.041 141.606 203.324 128.199 195.577 115.386Z" fill="#F9F7F7"/>
<path d="M244.464 187.216C243.585 186.106 243.225 185.846 242.358 184.725C235.294 175.589 228.655 166.145 222.44 156.392C218.219 149.768 214.207 143.017 210.404 136.139C208.594 132.869 206.833 129.573 205.122 126.252C203.794 123.677 202.496 121.086 201.227 118.48C200.864 117.736 200.512 116.988 200.161 116.239C199.335 114.476 198.523 112.705 197.653 110.967C196.752 108.879 195.374 107.033 193.63 105.576C192.8 104.946 191.809 104.564 190.77 104.476C189.308 104.485 187.876 104.895 186.631 105.662C177.207 110.616 168.411 116.682 160.43 123.73C152.438 130.749 145.294 138.68 139.144 147.359C138.956 147.628 138.511 147.371 138.7 147.101C139.448 146.043 140.211 144.997 140.988 143.962C150.655 131.106 162.508 120.05 176.005 111.3C178.276 109.829 180.589 108.426 182.945 107.093C184.133 106.42 185.326 105.756 186.539 105.133C187.701 104.452 189.005 104.048 190.349 103.953C194.973 103.881 197.367 109.117 199.011 112.64C199.528 113.749 200.051 114.854 200.58 115.956C202.581 120.14 204.658 124.285 206.812 128.393C208.142 130.929 209.5 133.45 210.888 135.956C215.207 143.761 219.797 151.407 224.659 158.896C231.1 168.815 237.49 177.578 244.827 186.854C245.029 187.11 244.668 187.477 244.464 187.216Z" fill="#F9F7F7"/>
<path d="M159.971 121.144C159.702 120.845 159.435 120.545 159.165 120.246C157.033 117.888 154.745 115.558 151.817 114.206C150.422 113.541 148.898 113.188 147.351 113.171C145.756 113.214 144.183 113.557 142.714 114.182C142.016 114.461 141.333 114.777 140.661 115.114C139.893 115.501 139.138 115.913 138.387 116.329C136.977 117.11 135.585 117.924 134.212 118.773C131.479 120.462 128.832 122.279 126.27 124.226C124.942 125.236 123.642 126.278 122.369 127.354C121.185 128.353 120.025 129.38 118.888 130.432C118.645 130.657 118.283 130.294 118.526 130.07C118.825 129.791 119.128 129.514 119.431 129.24C120.286 128.466 121.156 127.708 122.039 126.964C123.649 125.605 125.301 124.299 126.994 123.046C129.628 121.095 132.352 119.276 135.166 117.59C136.573 116.749 137.999 115.942 139.444 115.171C139.881 114.938 140.322 114.711 140.769 114.495C141.782 113.984 142.835 113.555 143.917 113.213C145.45 112.717 147.072 112.558 148.672 112.746C150.218 112.971 151.706 113.486 153.06 114.264C155.935 115.871 158.164 118.355 160.334 120.78C160.553 121.026 160.192 121.391 159.971 121.144Z" fill="#F9F7F7"/>
<path d="M218.872 145.579L225.76 143.059L229.18 141.809C230.285 141.364 231.412 140.976 232.557 140.646C233.558 140.36 234.62 140.373 235.613 140.685C236.499 141.012 237.309 141.515 237.997 142.162C238.699 142.809 239.353 143.507 239.952 144.25C240.697 145.145 241.43 146.049 242.167 146.951C245.209 150.67 248.23 154.406 251.232 158.158C254.233 161.909 257.215 165.677 260.176 169.461C263.145 173.254 266.093 177.063 269.021 180.887C269.38 181.356 269.738 181.824 270.096 182.293C270.294 182.553 270.74 182.297 270.539 182.034C267.59 178.171 264.62 174.324 261.629 170.493C258.632 166.652 255.613 162.828 252.574 159.02C249.534 155.212 246.474 151.42 243.394 147.645C242.627 146.705 241.858 145.765 241.088 144.827C240.439 144.035 239.796 143.235 239.084 142.499C238.478 141.768 237.733 141.164 236.893 140.721C236.052 140.278 235.133 140.006 234.187 139.919C233.042 139.959 231.913 140.207 230.857 140.651C229.705 141.068 228.556 141.492 227.406 141.913L220.469 144.45L218.735 145.084C218.427 145.197 218.56 145.693 218.872 145.579V145.579Z" fill="#F9F7F7"/>
<path d="M150.913 117.173C149.143 116.301 147.173 115.915 145.205 116.056C143.236 116.197 141.341 116.859 139.713 117.974C145.849 119.032 151.917 120.449 157.888 122.216C155.408 120.763 153.469 118.486 150.913 117.173Z" fill="#F9F7F7"/>
<path d="M139.676 117.968L139.002 118.515C139.23 118.324 139.467 118.144 139.71 117.974L139.676 117.968Z" fill="#F9F7F7"/>
<path d="M237.74 145.604C237.137 144.715 236.296 144.014 235.314 143.579L234.367 143.617C241.575 156.354 251.311 167.484 262.975 176.323L237.74 145.604Z" fill="#F9F7F7"/>
<path d="M233.309 131.658C236.32 131.658 238.762 129.217 238.762 126.205C238.762 123.194 236.32 120.752 233.309 120.752C230.297 120.752 227.855 123.194 227.855 126.205C227.855 129.217 230.297 131.658 233.309 131.658Z" fill="#FFD369"/>
<path d="M312.443 186.803C313.516 186.801 314.545 186.374 315.305 185.615C316.064 184.856 316.491 183.827 316.493 182.753V99.0524C316.493 97.9782 316.066 96.9481 315.306 96.1885C314.547 95.429 313.517 95.0023 312.443 95.0023C311.368 95.0023 310.338 95.429 309.579 96.1885C308.819 96.9481 308.393 97.9782 308.393 99.0524V182.753C308.394 183.827 308.821 184.856 309.581 185.615C310.34 186.374 311.369 186.801 312.443 186.803Z" fill="#C0C0C0"/>
<path d="M312.443 186.803C313.516 186.801 314.545 186.374 315.305 185.615C316.064 184.856 316.491 183.827 316.493 182.753V165.005C316.026 164.369 315.416 163.852 314.713 163.495C314.009 163.139 313.231 162.953 312.443 162.953C311.654 162.953 310.876 163.139 310.173 163.495C309.469 163.852 308.859 164.369 308.393 165.005V182.753C308.394 183.827 308.821 184.856 309.581 185.615C310.34 186.374 311.369 186.801 312.443 186.803Z" fill="#C0C0C0"/>
<path d="M312.444 169.703C313.598 169.701 314.705 169.242 315.522 168.425C316.338 167.609 316.798 166.502 316.799 165.347V146.26C316.298 145.576 315.642 145.019 314.885 144.636C314.128 144.253 313.292 144.053 312.444 144.053C311.595 144.053 310.759 144.253 310.002 144.636C309.245 145.019 308.59 145.576 308.088 146.26V165.347C308.09 166.502 308.549 167.609 309.366 168.425C310.182 169.242 311.289 169.701 312.444 169.703Z" fill="#474747"/>
<path d="M312.443 166.232C313.285 166.231 314.092 165.896 314.688 165.3C315.283 164.705 315.618 163.897 315.62 163.055V149.133C315.254 148.634 314.775 148.228 314.223 147.949C313.671 147.669 313.061 147.523 312.443 147.523C311.824 147.523 311.214 147.669 310.662 147.949C310.11 148.228 309.632 148.634 309.266 149.133V163.055C309.267 163.897 309.602 164.705 310.198 165.3C310.793 165.896 311.6 166.231 312.443 166.232Z" fill="#FFD369"/>
<path d="M187.5 280.834C186.789 280.197 186.36 279.305 186.306 278.352C186.253 277.399 186.58 276.463 187.215 275.751L222.6 236.158C222.915 235.806 223.296 235.519 223.722 235.314C224.148 235.108 224.61 234.989 225.082 234.963C225.554 234.936 226.027 235.003 226.473 235.159C226.919 235.315 227.33 235.558 227.683 235.873C228.035 236.188 228.322 236.569 228.527 236.995C228.732 237.421 228.852 237.883 228.878 238.355C228.905 238.827 228.838 239.3 228.682 239.746C228.526 240.193 228.283 240.604 227.968 240.956L192.584 280.549C191.947 281.26 191.054 281.689 190.101 281.743C189.148 281.796 188.213 281.47 187.5 280.834Z" fill="#FFD369"/>
<path d="M481.037 346.022C481.037 352.583 479.489 357.605 479.678 361.619C469.063 366.253 458.148 370.168 447.008 373.338C445.748 373.698 444.488 374.04 443.219 374.382C436.352 353.357 429.476 334.106 426.767 332.063C420.566 327.41 417.461 346.661 417.461 342.008C417.461 337.355 420.566 337.355 412.817 331.154C405.058 324.953 409.712 297.044 409.712 297.044L398.857 269.135L410.999 224.62L426.767 166.795H442.274C442.274 166.795 442.733 167.128 443.498 167.749C447.377 170.917 459.077 181.501 457.781 193.156C457.394 196.63 458.258 206.728 459.761 220.174C464.333 260.774 474.836 304.91 474.836 316.556C474.836 332.063 481.037 336.716 481.037 346.022Z" fill="#E6E6E6"/>
<path d="M468.035 220.022C468.017 219.977 468.008 219.941 467.99 219.905C467.643 218.969 467.237 218.055 466.775 217.169C464.156 212.246 466.928 204.686 463.976 196.334C459.206 182.798 453.392 174.815 444.869 167.66C444.617 167.444 444.365 167.237 444.104 167.021L444.095 167.012C438.407 162.341 431.549 157.976 423.035 152.54C421.262 151.406 419.408 150.227 417.482 148.985C414.998 147.392 415.133 142.082 415.277 136.466C415.439 130.229 415.61 123.767 412.55 119.735L412.352 119.474L412.037 119.393C401.545 117.317 390.844 116.493 380.159 116.936H380.15C375.612 117.104 371.107 117.765 366.713 118.907C366.388 118.997 366.065 119.087 365.75 119.195C365.507 119.258 365.264 119.339 365.02 119.42L364.822 119.492L364.67 119.636C361.709 122.597 361.024 127.907 360.7 133.442V133.451C360.638 134.459 360.584 135.467 360.538 136.475C360.286 141.857 360.053 146.942 358.072 149.147C353.656 154.15 348.318 158.257 342.349 161.243C333.052 165.833 325.699 165.689 325.591 165.689L324.736 165.662L324.655 166.508C318.481 178.271 318.715 208.619 318.526 241.118C318.517 242.928 318.505 244.746 318.49 246.573C318.382 261.711 318.094 277.11 316.96 291.141C316.465 297.171 315.826 302.94 314.971 308.331C310.813 334.584 291.976 312.786 282.967 330.255C283.263 331.973 283.761 333.65 284.452 335.25C285.487 335.862 286.549 336.456 287.602 337.05C292.273 339.651 297.031 342.078 301.876 344.331C302.146 344.457 302.416 344.583 302.686 344.7C311.573 348.812 320.733 352.306 330.1 355.158C331.927 355.716 333.754 356.247 335.599 356.751C351.92 361.257 368.725 363.774 385.649 364.248C385.717 364.241 385.787 364.238 385.856 364.239C405.871 363.686 425.755 360.82 445.112 355.698C445.382 355.626 445.652 355.554 445.922 355.482C447.191 355.14 448.451 354.798 449.711 354.438C460.851 351.268 471.766 347.354 482.381 342.72C482.392 343.115 482.431 343.51 482.498 343.899C482.508 344.026 482.526 344.153 482.552 344.277C482.57 344.133 482.588 343.989 482.597 343.845C482.651 343.422 482.696 342.99 482.741 342.558C488.25 288.846 476.81 243.243 468.035 220.022Z" fill="#7F8792"/>
<path d="M344.343 88.3807C349.836 98.4254 358.587 106.3 369.153 110.707C379.719 115.115 391.471 115.792 402.474 112.628C413.477 109.464 423.074 102.647 429.685 93.3006C436.296 83.9537 439.527 72.634 438.845 61.2057C438.163 49.7774 433.61 38.9219 425.935 30.4271C418.26 21.9323 407.92 16.3047 396.619 14.471C385.319 12.6374 373.73 14.707 363.763 20.3391C353.795 25.9712 346.043 34.83 341.783 45.4564C341.552 46.033 341.345 46.6097 341.137 47.2094C338.729 53.9082 337.769 61.0419 338.322 68.1391C338.874 75.2363 340.927 82.1354 344.343 88.3807Z" fill="#F9CCB5"/>
<path d="M504.784 226.574C504.658 228.473 504.547 230.495 504.451 232.64C502.543 273.042 504.19 327.429 491.328 356.94C488.449 358.515 485.539 360.021 482.598 361.458C482.481 361.512 482.373 361.566 482.274 361.62C481.482 362.007 480.69 362.385 479.898 362.745C479.87 362.77 479.836 362.789 479.799 362.799C471.102 366.909 462.139 370.43 452.97 373.338C451.845 373.698 450.711 374.04 449.577 374.382C449.334 374.454 449.091 374.526 448.848 374.598C431.574 379.707 413.716 382.577 395.712 383.14C394.776 383.167 393.858 383.185 392.967 383.203C392.652 383.212 392.346 383.221 392.04 383.221C391.032 383.23 390.033 383.239 389.025 383.239C386.991 383.239 384.966 383.209 382.95 383.149C366.026 382.674 349.221 380.157 332.9 375.652C331.055 375.148 329.228 374.617 327.401 374.059C318.034 371.207 308.874 367.712 299.987 363.6C299.717 363.483 299.447 363.357 299.177 363.231C294.335 360.981 289.577 358.554 284.903 355.95C283.85 355.356 282.788 354.762 281.753 354.15C281.063 352.55 280.564 350.873 280.268 349.155C278.225 339.336 276.587 345.96 275.417 325.53C274.346 306.801 273.662 288.018 273.41 277.281C273.329 274.419 273.302 272.124 273.293 270.558C274.247 263.736 289.583 255.996 311.948 248.643C314.063 247.95 316.25 247.257 318.491 246.573C324.539 244.71 331.001 242.882 337.751 241.118C354.942 236.618 374.031 232.487 392.976 229.076C402.327 227.402 411.642 225.899 420.687 224.621C436.554 222.371 451.566 220.814 464.409 220.175C465.642 220.112 466.848 220.058 468.036 220.022C469.314 219.968 470.565 219.932 471.789 219.905C490.293 219.5 502.93 221.426 504.784 226.574Z" fill="#4F5860"/>
<path d="M504.784 226.574C504.658 228.473 504.547 230.495 504.451 232.64C490.429 217.538 339.371 285.003 275.417 325.53C274.346 306.801 273.662 288.018 273.41 277.281C273.329 274.419 273.302 272.124 273.293 270.558C274.247 263.736 289.583 255.996 311.948 248.643C314.063 247.95 316.25 247.257 318.491 246.572C324.539 244.71 331.001 242.882 337.751 241.118C354.942 236.618 374.031 232.487 392.976 229.076C402.327 227.402 411.642 225.899 420.687 224.621C436.554 222.371 451.566 220.814 464.409 220.175C465.642 220.112 466.848 220.058 468.036 220.022C469.314 219.968 470.565 219.932 471.789 219.905C490.294 219.5 502.93 221.426 504.784 226.574Z" fill="#FFD369"/>
<path d="M197.581 273.386C198.997 275.172 200.788 276.626 202.827 277.644C204.866 278.663 207.104 279.223 209.382 279.283C211.661 279.344 213.925 278.904 216.015 277.995C218.106 277.086 219.971 275.729 221.481 274.021L272.734 295.071L267.204 266.815L219.38 251.157C216.342 248.812 212.55 247.662 208.721 247.926C204.893 248.19 201.294 249.849 198.607 252.589C195.92 255.329 194.331 258.959 194.142 262.793C193.953 266.626 195.177 270.395 197.581 273.386Z" fill="#F9CCB5"/>
<path d="M368.072 155.719L367.791 155.689L338.522 158.401C334.922 159.301 334.725 159.697 331.38 161.508C328.034 163.32 325.112 165.823 322.808 168.85C321.737 170.252 320.841 171.213 320.072 172.801L319.172 174.601C316.595 179.873 316.679 184.596 317.822 190.351L327.583 260.701L293.727 257.625L281.368 259.738L266.783 253.854L236.857 254.363L236.163 256.656L229.885 277.468L229.393 279.103L275.091 307.9L288.34 303.87L294.581 308.664L294.881 308.672L307.258 308.917L360.041 309.951L374.469 284.39L376.724 280.383C393.48 242.844 397.615 216.639 396.303 198.585C395.616 189.046 393.41 181.795 390.741 176.331C382.485 159.444 368.653 155.861 368.072 155.719Z" fill="#7F8792"/>
<path d="M447.451 61.2972C445.759 60.6319 444.066 60.0749 442.595 59.7191C450.903 69.9484 436.877 78.9252 434.701 89.3941C434.882 97.7047 430.236 101.475 422.107 103.751L422.297 103.101C356.184 119.663 425.925 64.532 374.235 63.0129C366.357 63.4632 376.878 39.2384 368.778 40.4571C348.212 43.5514 347.253 41.4251 345.048 55.9304C341.045 57.2127 335.555 51.2872 336.204 45.0986C334.739 42.4943 330.91 44.1613 329.37 40.2091C327.74 37.1927 324.64 17.4665 331.711 26.6875C332.179 20.3925 330.358 7.52309 338.387 18.5186C337.342 13.5164 341.782 15.6826 343.639 18.6578C344.952 15.7337 346.266 12.8251 347.563 9.90098C347.199 11.216 347.436 12.6549 348.101 13.9545C351.833 6.2014 357.53 5.49917 366.42 3.31013C366.317 5.68515 366.373 8.46403 366.705 10.6126C377.028 -6.11392 402.029 -1.44082 411.997 13.3364C418.314 14.7471 420.984 12.6085 427.312 14.1556C444.316 18.3128 452.089 43.953 447.451 61.2972V61.2972Z" fill="#4F5860"/>
</svg>
