<svg width="505" height="384" viewBox="0 0 505 384" fill="none" xmlns="http://www.w3.org/2000/svg">
<path d="M0 273.356C7.81859 282.62 16.2753 291.327 25.3082 299.411L366.933 300.311C375.966 292.227 384.422 283.52 392.241 274.256L0 273.356Z" fill="#2B3427"/>
<path d="M172.523 186.226V278.531H237.189V186.226C237.19 185.562 236.978 184.916 236.585 184.381C236.191 183.847 235.636 183.452 235.002 183.256C234.703 183.158 234.39 183.109 234.075 183.112H175.646C175.237 183.112 174.831 183.191 174.452 183.348C174.074 183.504 173.73 183.733 173.44 184.022C173.15 184.311 172.919 184.655 172.762 185.033C172.605 185.411 172.524 185.817 172.523 186.226ZM197.76 217.943C197.777 216.123 198.512 214.384 199.804 213.103C201.097 211.823 202.843 211.104 204.663 211.104C206.482 211.104 208.228 211.823 209.521 213.103C210.814 214.384 211.549 216.123 211.566 217.943V228.653C211.556 230.477 210.825 232.224 209.531 233.511C208.238 234.798 206.487 235.521 204.663 235.521C202.838 235.521 201.087 234.798 199.794 233.511C198.5 232.224 197.769 230.477 197.76 228.653V217.943Z" fill="#2B3427"/>
<path d="M172.328 275.579V284.48C172.33 284.941 172.513 285.383 172.838 285.71C173.163 286.037 173.604 286.222 174.065 286.226H235.653C236.114 286.224 236.556 286.039 236.881 285.712C237.207 285.384 237.39 284.942 237.39 284.48V275.579H172.328Z" fill="#2B3427"/>
<path d="M70.793 47.1574V215.693C70.7947 217.84 71.6486 219.9 73.1673 221.418C74.686 222.937 76.7453 223.791 78.893 223.793H328.645C330.793 223.791 332.852 222.937 334.371 221.418C335.889 219.9 336.743 217.84 336.745 215.693V47.1574C336.74 45.0115 335.885 42.9551 334.366 41.4386C332.848 39.9221 330.791 39.069 328.645 39.0663H78.893C76.7472 39.069 74.6898 39.9221 73.1716 41.4386C71.6534 42.9551 70.7981 45.0115 70.793 47.1574Z" fill="#2B3427"/>
<path d="M76.6562 49.2543V213.614C76.6582 214.761 77.115 215.861 77.9264 216.672C78.7378 217.484 79.8378 217.941 80.9853 217.943H326.57C327.718 217.941 328.818 217.484 329.629 216.672C330.44 215.861 330.897 214.761 330.899 213.614V49.2543C330.899 48.1054 330.443 47.0034 329.632 46.1902C328.82 45.3769 327.719 44.9188 326.57 44.9163H80.9853C79.8364 44.9188 78.7353 45.3769 77.9238 46.1902C77.1122 47.0034 76.6564 48.1054 76.6562 49.2543Z" fill="#8D9B66"/>
<path d="M126.733 288.323C126.983 288.637 127.301 288.889 127.663 289.062C128.024 289.235 128.421 289.324 128.821 289.322H274.929C275.328 289.322 275.723 289.232 276.083 289.06C276.444 288.888 276.762 288.638 277.013 288.327C277.265 288.017 277.444 287.654 277.538 287.266C277.632 286.878 277.639 286.473 277.557 286.082L275.289 275.309C275.195 274.87 274.992 274.461 274.7 274.12C274.407 273.779 274.034 273.516 273.615 273.356C273.311 273.237 272.987 273.176 272.661 273.176H131.08C130.754 273.176 130.43 273.237 130.126 273.356C129.707 273.516 129.334 273.779 129.041 274.12C128.749 274.461 128.546 274.87 128.452 275.309L126.184 286.082C126.104 286.473 126.111 286.877 126.206 287.265C126.301 287.652 126.481 288.014 126.733 288.323Z" fill="#2B3427"/>
<path d="M131.077 275.426C131.033 275.426 130.989 275.434 130.947 275.449C130.875 275.474 130.811 275.515 130.76 275.571C130.708 275.626 130.671 275.693 130.652 275.767L128.383 286.546C128.371 286.608 128.373 286.672 128.389 286.734C128.404 286.795 128.434 286.853 128.474 286.901L128.484 286.914C128.523 286.965 128.574 287.006 128.632 287.033C128.69 287.061 128.754 287.074 128.818 287.072H274.925C274.989 287.073 275.052 287.059 275.11 287.032C275.168 287.005 275.218 286.964 275.258 286.915C275.301 286.867 275.332 286.809 275.348 286.747C275.365 286.685 275.367 286.62 275.354 286.557L273.083 275.772C273.067 275.701 273.033 275.636 272.985 275.581C272.938 275.527 272.878 275.484 272.81 275.458C272.762 275.437 272.71 275.427 272.657 275.426H131.077Z" fill="#FBFFF9"/>
<path d="M88.8781 67.5575H318.671C318.91 67.5522 319.137 67.4536 319.304 67.2828C319.471 67.112 319.565 66.8826 319.565 66.6437C319.565 66.4048 319.471 66.1754 319.304 66.0046C319.137 65.8338 318.91 65.7352 318.671 65.7299H88.8781C88.6393 65.7352 88.412 65.8338 88.245 66.0046C88.0779 66.1754 87.9844 66.4048 87.9844 66.6437C87.9844 66.8826 88.0779 67.112 88.245 67.2828C88.412 67.4536 88.6393 67.5522 88.8781 67.5575Z" fill="#2B3427"/>
<path d="M303.027 61.0641C305.985 61.0641 308.383 58.613 308.383 55.5893C308.383 52.5657 305.985 50.1146 303.027 50.1146C300.07 50.1146 297.672 52.5657 297.672 55.5893C297.672 58.613 300.07 61.0641 303.027 61.0641Z" fill="#2B3427"/>
<path d="M284.531 61.0641C287.489 61.0641 289.887 58.613 289.887 55.5893C289.887 52.5657 287.489 50.1146 284.531 50.1146C281.573 50.1146 279.176 52.5657 279.176 55.5893C279.176 58.613 281.573 61.0641 284.531 61.0641Z" fill="#2B3427"/>
<path d="M266.027 61.0641C268.985 61.0641 271.383 58.613 271.383 55.5893C271.383 52.5657 268.985 50.1146 266.027 50.1146C263.07 50.1146 260.672 52.5657 260.672 55.5893C260.672 58.613 263.07 61.0641 266.027 61.0641Z" fill="#2B3427"/>
<path d="M99.0391 52.4674C99.0385 52.5968 99.0634 52.725 99.1123 52.8449C99.1613 52.9647 99.2334 53.0737 99.3245 53.1656C99.4156 53.2575 99.5239 53.3306 99.6433 53.3807C99.7626 53.4308 99.8907 53.4568 100.02 53.4574H113.16C113.42 53.4513 113.667 53.3439 113.849 53.158C114.03 52.9722 114.132 52.7227 114.132 52.4629C114.132 52.203 114.03 51.9535 113.849 51.7677C113.667 51.5818 113.42 51.4744 113.16 51.4683H100.02C99.7578 51.4715 99.5074 51.5784 99.3236 51.7655C99.1398 51.9527 99.0375 52.205 99.0391 52.4674Z" fill="#2B3427"/>
<path d="M99.0391 56.2024C99.0385 56.3318 99.0633 56.4601 99.1123 56.5799C99.1613 56.6997 99.2334 56.8087 99.3245 56.9006C99.4156 56.9926 99.5239 57.0657 99.6433 57.1157C99.7626 57.1658 99.8907 57.1919 100.02 57.1924H113.16C113.42 57.1867 113.668 57.0794 113.849 56.8935C114.031 56.7076 114.133 56.4579 114.133 56.1979C114.133 55.9379 114.031 55.6882 113.849 55.5023C113.668 55.3164 113.42 55.2091 113.16 55.2034H100.02C99.7578 55.2066 99.5074 55.3134 99.3236 55.5006C99.1398 55.6878 99.0375 55.9401 99.0391 56.2024Z" fill="#2B3427"/>
<path d="M99.0391 59.9285C99.0375 60.1908 99.1398 60.4431 99.3236 60.6303C99.5074 60.8174 99.7578 60.9243 100.02 60.9275H113.16C113.42 60.9214 113.667 60.814 113.849 60.6281C114.03 60.4423 114.132 60.1928 114.132 59.933C114.132 59.6731 114.03 59.4236 113.849 59.2378C113.667 59.052 113.42 58.9445 113.16 58.9384H100.02C99.8907 58.939 99.7626 58.9651 99.6433 59.0151C99.5239 59.0652 99.4156 59.1383 99.3245 59.2302C99.2334 59.3222 99.1613 59.4311 99.1123 59.5509C99.0633 59.6707 99.0385 59.799 99.0391 59.9285Z" fill="#2B3427"/>
<path d="M284.433 95.4524H123.118C120.999 95.4548 118.967 96.2978 117.469 97.7963C115.97 99.2947 115.127 101.326 115.125 103.446V181.959C115.127 184.079 115.97 186.11 117.469 187.609C118.967 189.108 120.999 189.951 123.118 189.953H284.433C286.552 189.951 288.584 189.108 290.083 187.609C291.581 186.11 292.424 184.079 292.426 181.959V103.446C292.424 101.326 291.581 99.2947 290.082 97.7963C288.584 96.2978 286.552 95.4548 284.433 95.4524ZM290.626 103.446V126.352H233.926V97.2524H284.433C286.075 97.2542 287.649 97.9073 288.81 99.0684C289.971 100.229 290.624 101.804 290.626 103.446H290.626ZM175.425 157.253V128.152H232.126V157.253H175.425ZM232.126 159.053V188.153H175.425V159.053H232.126ZM173.625 157.253H116.925V128.152H173.625V157.253ZM175.425 126.352V97.2523H232.126V126.352H175.425ZM233.926 128.152H290.626V157.253H233.926V128.152ZM123.118 97.2523H173.625V126.352H116.925V103.446C116.927 101.804 117.58 100.229 118.741 99.0684C119.902 97.9073 121.476 97.2542 123.118 97.2524V97.2523ZM116.925 181.959V159.053H173.625V188.153H123.118C121.476 188.151 119.902 187.498 118.741 186.337C117.58 185.176 116.927 183.601 116.925 181.959ZM284.433 188.153H233.926V159.053H290.626V181.959C290.625 183.601 289.972 185.176 288.81 186.337C287.649 187.498 286.075 188.151 284.433 188.153H284.433Z" fill="#2B3427"/>
<path d="M195.577 115.386C194.146 113.018 192.449 110.49 189.793 109.717C186.716 108.822 183.556 110.601 180.875 112.356C172.859 117.604 165.138 123.293 157.75 129.394L157.758 129.486L175.015 128.296C179.171 128.009 183.469 127.683 187.142 125.717C188.536 124.971 189.894 123.975 191.474 123.905C193.436 123.819 195.146 125.189 196.491 126.621C204.444 135.09 206.745 148.04 215.668 155.481C210.041 141.606 203.324 128.199 195.577 115.386Z" fill="#FBFFF9"/>
<path d="M244.462 187.216C243.583 186.106 243.223 185.846 242.356 184.725C235.292 175.589 228.653 166.145 222.438 156.392C218.217 149.768 214.205 143.017 210.402 136.139C208.592 132.869 206.831 129.573 205.12 126.252C203.792 123.677 202.494 121.086 201.225 118.48C200.862 117.736 200.51 116.988 200.159 116.239C199.333 114.476 198.522 112.705 197.651 110.967C196.751 108.879 195.373 107.033 193.628 105.576C192.798 104.946 191.807 104.564 190.768 104.476C189.306 104.485 187.874 104.895 186.629 105.662C177.205 110.616 168.409 116.682 160.428 123.73C152.436 130.749 145.292 138.68 139.142 147.359C138.954 147.628 138.509 147.371 138.699 147.101C139.446 146.043 140.209 144.997 140.986 143.962C150.653 131.106 162.506 120.05 176.003 111.3C178.274 109.829 180.587 108.426 182.943 107.093C184.131 106.42 185.324 105.756 186.537 105.133C187.699 104.452 189.003 104.048 190.347 103.953C194.971 103.881 197.365 109.117 199.009 112.64C199.526 113.749 200.049 114.854 200.578 115.956C202.579 120.14 204.656 124.285 206.81 128.393C208.14 130.929 209.498 133.45 210.886 135.956C215.205 143.761 219.796 151.407 224.657 158.896C231.098 168.815 237.488 177.578 244.825 186.854C245.027 187.11 244.666 187.477 244.462 187.216Z" fill="#FBFFF9"/>
<path d="M159.971 121.144C159.702 120.845 159.435 120.546 159.165 120.246C157.033 117.888 154.745 115.558 151.817 114.206C150.422 113.541 148.898 113.188 147.351 113.171C145.756 113.214 144.183 113.557 142.714 114.182C142.016 114.461 141.333 114.777 140.661 115.114C139.893 115.501 139.138 115.913 138.387 116.329C136.977 117.11 135.585 117.924 134.212 118.773C131.479 120.462 128.832 122.279 126.27 124.226C124.942 125.236 123.642 126.278 122.369 127.354C121.185 128.353 120.025 129.38 118.888 130.432C118.645 130.657 118.283 130.294 118.526 130.07C118.825 129.791 119.128 129.514 119.431 129.24C120.286 128.466 121.156 127.708 122.039 126.964C123.649 125.605 125.301 124.299 126.994 123.046C129.628 121.095 132.352 119.276 135.166 117.59C136.573 116.749 137.999 115.942 139.444 115.171C139.881 114.938 140.322 114.711 140.769 114.495C141.782 113.984 142.835 113.555 143.917 113.213C145.45 112.717 147.072 112.558 148.672 112.746C150.218 112.971 151.706 113.486 153.06 114.264C155.935 115.871 158.164 118.355 160.334 120.78C160.553 121.026 160.192 121.391 159.971 121.144Z" fill="#FBFFF9"/>
<path d="M218.874 145.579L225.762 143.06L229.182 141.809C230.287 141.364 231.414 140.976 232.559 140.646C233.559 140.36 234.622 140.373 235.615 140.685C236.501 141.012 237.311 141.515 237.999 142.162C238.701 142.809 239.355 143.507 239.954 144.25C240.699 145.145 241.432 146.049 242.169 146.951C245.211 150.67 248.232 154.406 251.234 158.158C254.235 161.909 257.217 165.677 260.178 169.461C263.147 173.254 266.095 177.063 269.023 180.887C269.382 181.356 269.74 181.825 270.098 182.293C270.296 182.553 270.742 182.297 270.541 182.034C267.592 178.171 264.622 174.324 261.631 170.493C258.633 166.652 255.615 162.828 252.576 159.02C249.536 155.212 246.476 151.42 243.396 147.645C242.629 146.705 241.86 145.765 241.09 144.827C240.441 144.035 239.798 143.235 239.086 142.499C238.48 141.768 237.735 141.164 236.895 140.721C236.054 140.278 235.135 140.006 234.189 139.919C233.044 139.959 231.915 140.207 230.859 140.651C229.707 141.068 228.558 141.492 227.408 141.913L220.471 144.45L218.737 145.084C218.429 145.197 218.562 145.693 218.874 145.579V145.579Z" fill="#FBFFF9"/>
<path d="M150.911 117.173C149.141 116.301 147.171 115.915 145.203 116.056C143.234 116.197 141.339 116.859 139.711 117.974C145.847 119.032 151.915 120.449 157.886 122.216C155.406 120.763 153.467 118.486 150.911 117.173Z" fill="#FBFFF9"/>
<path d="M139.674 117.968L139 118.515C139.228 118.324 139.465 118.144 139.708 117.974L139.674 117.968Z" fill="#FBFFF9"/>
<path d="M237.74 145.604C237.137 144.715 236.296 144.014 235.314 143.579L234.367 143.617C241.575 156.354 251.311 167.484 262.975 176.323L237.74 145.604Z" fill="#FBFFF9"/>
<path d="M233.309 131.658C236.32 131.658 238.762 129.217 238.762 126.205C238.762 123.194 236.32 120.752 233.309 120.752C230.297 120.752 227.855 123.194 227.855 126.205C227.855 129.217 230.297 131.658 233.309 131.658Z" fill="#FBFFF9"/>
<path d="M312.445 186.803C313.518 186.801 314.547 186.374 315.307 185.615C316.066 184.856 316.493 183.827 316.495 182.753V99.0524C316.495 97.9782 316.068 96.9481 315.308 96.1886C314.549 95.4291 313.519 95.0023 312.445 95.0023C311.37 95.0023 310.34 95.4291 309.581 96.1886C308.821 96.9481 308.395 97.9782 308.395 99.0524V182.753C308.396 183.827 308.823 184.856 309.583 185.615C310.342 186.374 311.371 186.801 312.445 186.803Z" fill="#2B3427"/>
<path d="M312.445 186.803C313.518 186.801 314.547 186.374 315.307 185.615C316.066 184.856 316.493 183.827 316.495 182.753V165.005C316.028 164.369 315.418 163.852 314.715 163.495C314.011 163.139 313.233 162.953 312.445 162.953C311.656 162.953 310.878 163.139 310.174 163.495C309.471 163.852 308.861 164.369 308.395 165.005V182.753C308.396 183.827 308.823 184.856 309.583 185.615C310.342 186.374 311.371 186.801 312.445 186.803Z" fill="#2B3427"/>
<path d="M312.442 169.703C313.596 169.701 314.703 169.242 315.52 168.425C316.336 167.609 316.796 166.502 316.797 165.347V146.26C316.296 145.576 315.64 145.019 314.883 144.636C314.126 144.253 313.29 144.053 312.442 144.053C311.593 144.053 310.757 144.253 310 144.636C309.243 145.019 308.588 145.576 308.086 146.26V165.347C308.088 166.502 308.547 167.609 309.364 168.425C310.18 169.242 311.287 169.701 312.442 169.703Z" fill="#8D9B66"/>
<path d="M312.443 166.232C313.285 166.231 314.092 165.896 314.688 165.3C315.283 164.705 315.618 163.897 315.62 163.055V149.133C315.254 148.634 314.775 148.228 314.223 147.949C313.671 147.669 313.061 147.523 312.443 147.523C311.824 147.523 311.214 147.669 310.662 147.949C310.11 148.228 309.632 148.634 309.266 149.133V163.055C309.267 163.897 309.602 164.705 310.198 165.3C310.793 165.896 311.6 166.231 312.443 166.232Z" fill="#2B3427"/>
<path d="M187.5 280.834C186.789 280.197 186.36 279.305 186.306 278.352C186.253 277.399 186.58 276.463 187.215 275.751L222.6 236.158C222.915 235.806 223.296 235.519 223.722 235.314C224.148 235.108 224.61 234.989 225.082 234.963C225.554 234.936 226.027 235.003 226.473 235.159C226.919 235.315 227.33 235.558 227.683 235.873C228.035 236.188 228.322 236.569 228.527 236.995C228.732 237.421 228.852 237.883 228.878 238.355C228.905 238.827 228.838 239.3 228.682 239.746C228.526 240.193 228.283 240.604 227.968 240.956L192.584 280.549C191.947 281.26 191.054 281.689 190.101 281.743C189.148 281.796 188.213 281.47 187.5 280.834Z" fill="#8D9B66"/>
<path d="M481.039 346.022C481.039 352.583 479.491 357.605 479.68 361.619C469.065 366.253 458.15 370.168 447.01 373.338C445.75 373.698 444.49 374.04 443.221 374.382C436.354 353.357 429.478 334.106 426.769 332.063C420.568 327.41 417.462 346.661 417.462 342.008C417.462 337.355 420.568 337.355 412.818 331.154C405.06 324.953 409.713 297.044 409.713 297.044L398.859 269.135L411 224.62L426.769 166.795H442.276C442.276 166.795 442.735 167.128 443.5 167.749C447.379 170.917 459.079 181.501 457.783 193.156C457.396 196.63 458.26 206.728 459.763 220.174C464.335 260.774 474.838 304.91 474.838 316.556C474.838 332.063 481.039 336.716 481.039 346.022Z" fill="#E6E6E6"/>
<path d="M468.037 220.022C468.019 219.977 468.01 219.941 467.992 219.905C467.645 218.969 467.239 218.055 466.777 217.169C464.158 212.246 466.93 204.686 463.978 196.334C459.208 182.798 453.394 174.815 444.871 167.66C444.619 167.444 444.367 167.237 444.106 167.021L444.097 167.012C438.409 162.341 431.551 157.976 423.037 152.54C421.264 151.406 419.41 150.227 417.484 148.985C415 147.392 415.135 142.082 415.279 136.466C415.441 130.229 415.612 123.767 412.552 119.735L412.354 119.474L412.039 119.393C401.547 117.317 390.846 116.493 380.161 116.936H380.152C375.614 117.104 371.109 117.765 366.715 118.907C366.39 118.997 366.067 119.087 365.751 119.195C365.508 119.258 365.265 119.339 365.022 119.42L364.824 119.492L364.672 119.636C361.71 122.597 361.026 127.907 360.702 133.442V133.451C360.639 134.459 360.585 135.467 360.54 136.475C360.288 141.857 360.054 146.942 358.074 149.147C353.658 154.15 348.32 158.257 342.351 161.243C333.054 165.833 325.701 165.689 325.593 165.689L324.738 165.662L324.657 166.508C318.483 178.271 318.717 208.619 318.528 241.118C318.519 242.927 318.507 244.746 318.492 246.573C318.384 261.711 318.096 277.11 316.962 291.141C316.467 297.171 315.828 302.94 314.973 308.331C310.815 334.584 291.978 312.786 282.969 330.255C283.265 331.973 283.763 333.65 284.454 335.25C285.489 335.862 286.551 336.456 287.604 337.05C292.275 339.651 297.033 342.078 301.878 344.331C302.148 344.457 302.418 344.583 302.688 344.7C311.575 348.812 320.735 352.306 330.102 355.158C331.929 355.716 333.756 356.247 335.601 356.751C351.922 361.257 368.726 363.774 385.651 364.248C385.719 364.241 385.789 364.238 385.858 364.239C405.873 363.686 425.757 360.82 445.114 355.698C445.384 355.626 445.654 355.554 445.924 355.482C447.193 355.14 448.453 354.798 449.713 354.438C460.853 351.268 471.768 347.354 482.383 342.72C482.394 343.115 482.433 343.509 482.5 343.899C482.509 344.026 482.528 344.153 482.554 344.277C482.572 344.133 482.59 343.989 482.599 343.845C482.653 343.422 482.698 342.99 482.743 342.558C488.252 288.846 476.812 243.242 468.037 220.022Z" fill="#B3B89F"/>
<path d="M344.345 88.3807C349.838 98.4254 358.588 106.3 369.155 110.707C379.721 115.115 391.473 115.792 402.476 112.628C413.479 109.464 423.076 102.647 429.687 93.3006C436.298 83.9537 439.529 72.634 438.847 61.2057C438.165 49.7774 433.612 38.922 425.937 30.4272C418.262 21.9323 407.922 16.3047 396.621 14.4711C385.321 12.6374 373.732 14.707 363.765 20.3392C353.797 25.9713 346.045 34.83 341.785 45.4564C341.554 46.0331 341.347 46.6097 341.139 47.2094C338.731 53.9083 337.771 61.042 338.324 68.1391C338.876 75.2363 340.929 82.1354 344.345 88.3807Z" fill="#F9CCB5"/>
<path d="M504.784 226.574C504.658 228.473 504.547 230.495 504.451 232.64C502.543 273.042 504.19 327.429 491.328 356.94C488.449 358.515 485.539 360.021 482.598 361.458C482.481 361.512 482.373 361.566 482.274 361.62C481.482 362.007 480.69 362.385 479.898 362.745C479.87 362.77 479.836 362.789 479.799 362.799C471.102 366.909 462.139 370.43 452.97 373.338C451.845 373.698 450.711 374.04 449.577 374.382C449.334 374.454 449.091 374.526 448.848 374.598C431.574 379.707 413.716 382.577 395.712 383.14C394.776 383.167 393.858 383.185 392.967 383.203C392.652 383.212 392.346 383.221 392.04 383.221C391.032 383.23 390.033 383.239 389.025 383.239C386.991 383.239 384.966 383.209 382.95 383.149C366.026 382.674 349.221 380.157 332.9 375.651C331.055 375.147 329.228 374.617 327.401 374.059C318.034 371.207 308.874 367.712 299.987 363.6C299.717 363.483 299.447 363.357 299.177 363.231C294.335 360.981 289.577 358.554 284.903 355.95C283.85 355.356 282.788 354.762 281.753 354.15C281.063 352.55 280.564 350.873 280.268 349.155C278.225 339.336 276.587 345.96 275.417 325.53C274.346 306.801 273.662 288.018 273.41 277.281C273.329 274.419 273.302 272.124 273.293 270.558C274.247 263.736 289.583 255.996 311.948 248.643C314.063 247.95 316.25 247.257 318.491 246.572C324.539 244.71 331.001 242.882 337.751 241.118C354.942 236.618 374.031 232.487 392.976 229.076C402.327 227.402 411.642 225.899 420.687 224.621C436.554 222.371 451.566 220.814 464.409 220.175C465.642 220.112 466.848 220.058 468.036 220.022C469.314 219.968 470.565 219.932 471.789 219.905C490.293 219.5 502.93 221.426 504.784 226.574Z" fill="#2B3427"/>
<path opacity="0.2" d="M504.784 226.574C504.658 228.473 504.547 230.495 504.451 232.64C490.429 217.538 339.371 285.003 275.417 325.53C274.346 306.801 273.662 288.018 273.41 277.281C273.329 274.419 273.302 272.124 273.293 270.558C274.247 263.736 289.583 255.996 311.948 248.643C314.063 247.95 316.25 247.257 318.491 246.572C324.539 244.71 331.001 242.882 337.751 241.118C354.942 236.618 374.031 232.487 392.976 229.076C402.327 227.402 411.642 225.899 420.687 224.621C436.554 222.371 451.566 220.814 464.409 220.175C465.642 220.112 466.848 220.058 468.036 220.022C469.314 219.968 470.565 219.932 471.789 219.905C490.294 219.5 502.93 221.426 504.784 226.574Z" fill="#2B3427"/>
<path d="M197.583 273.386C198.999 275.172 200.79 276.626 202.829 277.644C204.868 278.663 207.106 279.223 209.384 279.283C211.663 279.344 213.927 278.904 216.017 277.995C218.108 277.086 219.973 275.729 221.483 274.021L272.736 295.071L267.206 266.815L219.382 251.157C216.344 248.812 212.552 247.662 208.723 247.926C204.895 248.19 201.296 249.849 198.609 252.589C195.922 255.329 194.333 258.959 194.144 262.793C193.955 266.626 195.178 270.395 197.583 273.386Z" fill="#F9CCB5"/>
<path d="M368.074 155.719L367.793 155.689L338.524 158.401C334.924 159.301 334.727 159.697 331.382 161.508C328.036 163.32 325.114 165.822 322.81 168.85C321.739 170.252 320.843 171.213 320.074 172.801L319.174 174.601C316.597 179.873 316.681 184.596 317.824 190.351L327.585 260.701L293.729 257.625L281.37 259.738L266.785 253.854L236.859 254.363L236.165 256.656L229.887 277.468L229.395 279.103L275.093 307.9L288.341 303.87L294.583 308.664L294.883 308.672L307.26 308.917L360.043 309.951L374.471 284.39L376.725 280.383C393.482 242.844 397.617 216.639 396.305 198.585C395.618 189.046 393.412 181.795 390.743 176.331C382.487 159.444 368.655 155.861 368.074 155.719Z" fill="#B3B89F"/>
<path d="M447.453 61.2972C445.761 60.6319 444.068 60.0749 442.597 59.7191C450.905 69.9484 436.879 78.9252 434.703 89.3941C434.884 97.7047 430.238 101.475 422.109 103.751L422.299 103.101C356.186 119.663 425.927 64.532 374.237 63.0129C366.359 63.4632 376.88 39.2384 368.78 40.4571C348.213 43.5514 347.255 41.4251 345.05 55.9304C341.047 57.2127 335.557 51.2872 336.206 45.0986C334.741 42.4943 330.912 44.1613 329.372 40.2091C327.742 37.1927 324.642 17.4665 331.713 26.6875C332.181 20.3925 330.36 7.52309 338.389 18.5186C337.344 13.5164 341.784 15.6826 343.641 18.6578C344.954 15.7337 346.268 12.8251 347.565 9.90098C347.201 11.216 347.438 12.6549 348.103 13.9545C351.835 6.2014 357.532 5.49917 366.422 3.31013C366.319 5.68515 366.375 8.46403 366.707 10.6126C377.03 -6.11392 402.031 -1.44082 411.999 13.3364C418.316 14.7471 420.986 12.6085 427.314 14.1556C444.318 18.3128 452.09 43.953 447.453 61.2972V61.2972Z" fill="#2B3427"/>
</svg>
