<svg width="58" height="102" viewBox="0 0 58 102" fill="none" xmlns="http://www.w3.org/2000/svg">
<path d="M14.976 43.16C18.288 43.16 20.592 38.696 20.592 32.84H12.816V28.52H25.344V47H21.024L23.184 40.04H21.264C20.496 43.832 18.48 47.48 14.4 47.48C8.688 47.48 3.504 42.92 3.504 30.2C3.504 17.912 8.208 12.632 14.88 12.632C21.744 12.632 25.296 18.68 25.344 24.92H20.976C21.12 20.504 18.72 16.952 14.88 16.952C10.56 16.952 7.824 20.792 7.824 30.2C7.824 39.752 10.464 43.16 14.976 43.16ZM49.4213 31.736H36.9413V47H32.6213V13.4H36.9413V27.416H49.4213V13.4H53.7413V47H49.4213V31.736Z" fill="#B00000"/>
<path d="M14.352 58.952C9.888 58.952 7.344 63.176 7.344 72.2C7.344 81.224 9.888 85.256 14.352 85.256C18 85.256 20.832 82.088 20.64 76.712H24.96C24.96 84.392 20.688 89.576 14.352 89.576C6.912 89.576 3.024 83.144 3.024 72.2C3.024 61.256 6.864 54.632 14.352 54.632C20.544 54.632 24.72 59.624 24.864 66.92H20.496C20.64 61.976 17.808 58.952 14.352 58.952ZM46.6853 55.4L55.2773 89H50.8133L48.5573 80.12H37.8053L35.5493 89H31.0853L39.6773 55.4H46.6853ZM38.9093 75.8H47.4533L44.2853 63.56L44.1413 58.76H42.2213L42.0773 63.56L38.9093 75.8Z" fill="#B00000"/>
</svg>
