<svg width="71" height="88" viewBox="0 0 71 88" fill="none" xmlns="http://www.w3.org/2000/svg">
<path d="M18.7375 34.6233C16.517 34.6233 14.4459 34.2013 12.5241 33.3572C10.6153 32.5002 8.94022 31.3121 7.49888 29.7928C6.07052 28.2736 4.95381 26.5076 4.14873 24.4949C3.34366 22.4693 2.94112 20.2878 2.94112 17.9504C2.94112 15.769 3.3047 13.6784 4.03187 11.6787C4.75903 9.67895 5.81731 7.9 7.20672 6.34179C8.59612 4.78358 10.2842 3.55 12.2709 2.64104C14.2706 1.73209 16.53 1.27761 19.0491 1.27761C20.6333 1.27761 22.1525 1.47239 23.6069 1.86194C25.0742 2.23851 26.4376 2.77739 27.6972 3.47858C28.9567 4.17977 30.0734 5.01082 31.0473 5.97172L29.0801 9.01022C27.8854 7.7247 26.3987 6.70537 24.6197 5.95224C22.8537 5.18612 20.9969 4.80306 19.0491 4.80306C17.1663 4.80306 15.4912 5.14716 14.0239 5.83537C12.5566 6.52358 11.3165 7.47149 10.3037 8.6791C9.29082 9.88672 8.51821 11.2696 7.98582 12.8278C7.46642 14.386 7.20672 16.0416 7.20672 17.7946C7.20672 19.6904 7.49888 21.4434 8.08321 23.0536C8.68052 24.6507 9.51157 26.0466 10.5763 27.2413C11.6411 28.4359 12.8812 29.3643 14.2966 30.0266C15.7119 30.6758 17.2377 31.0004 18.8738 31.0004C20.1983 31.0004 21.4903 30.7797 22.7499 30.3382C24.0094 29.8967 25.1391 29.2669 26.139 28.4489C27.1518 27.6178 27.9504 26.631 28.5347 25.4883C29.132 24.3456 29.4307 23.0731 29.4307 21.6707V20.7357H18.6011V17.5998H33.482V21.0669C33.482 23.2484 33.06 25.1831 32.216 26.8712C31.3719 28.5463 30.2357 29.9616 28.8074 31.1173C27.392 32.26 25.8078 33.13 24.0549 33.7273C22.3149 34.3246 20.5424 34.6233 18.7375 34.6233ZM41.1644 34V1.86194H45.1184V16.1585H61.0121V1.86194H64.9661V34H61.0121V19.6255H45.1184V34H41.1644ZM19.1465 78.6233C16.7313 78.6233 14.4784 78.2013 12.3878 77.3572C10.3101 76.5002 8.48575 75.3186 6.91455 73.8123C5.35634 72.2931 4.14224 70.5206 3.27224 68.4949C2.40224 66.4693 1.96724 64.2878 1.96724 61.9504C1.96724 59.6131 2.40224 57.4316 3.27224 55.406C4.15522 53.3803 5.37582 51.6143 6.93403 50.1081C8.49224 48.5888 10.3101 47.4072 12.3878 46.5631C14.4654 45.7061 16.7118 45.2776 19.127 45.2776C21.1267 45.2776 23.0096 45.5698 24.7755 46.1541C26.5545 46.7254 28.1062 47.511 29.4307 48.5109L27.6387 51.8416C26.574 50.9846 25.3274 50.3288 23.899 49.8743C22.4707 49.4069 20.9644 49.1731 19.3802 49.1731C17.4714 49.1731 15.7184 49.4978 14.1213 50.147C12.5241 50.7963 11.1347 51.7052 9.95306 52.8739C8.7844 54.0296 7.87545 55.3865 7.22619 56.9447C6.58993 58.4899 6.27179 60.1585 6.27179 61.9504C6.27179 63.7424 6.58993 65.4175 7.22619 66.9757C7.87545 68.5209 8.7844 69.8778 9.95306 71.0465C11.1347 72.2022 12.5241 73.1046 14.1213 73.7539C15.7184 74.4031 17.4714 74.7278 19.3802 74.7278C20.9644 74.7278 22.4707 74.5005 23.899 74.046C25.3274 73.5786 26.574 72.9163 27.6387 72.0593L29.4307 75.39C28.1322 76.3639 26.5999 77.1495 24.834 77.7468C23.068 78.3311 21.1722 78.6233 19.1465 78.6233Z" fill="#8B0000"/>
<path d="M39.2534 77.5L51.9723 45.3619H55.6536L68.3724 77.5H64.1068L60.5424 68.1313H47.0834L43.4995 77.5H39.2534ZM48.4274 64.6448H59.1985L53.8032 50.6404L48.4274 64.6448Z" fill="#8B0000"/>
</svg>
