<svg width="425" height="554" viewBox="0 0 425 554" fill="none" xmlns="http://www.w3.org/2000/svg">
<path opacity="0.1" d="M118.301 542C174.801 518.5 229.292 514.5 229.292 501.614C227.292 489 181.514 482 115.792 482C50.07 482 3.29382 487.5 0.291852 501.614C-4.70632 513.5 55.3008 517 118.301 542Z" fill="#2B3427"/>
<path d="M114.301 512.113C176.433 512.113 226.801 458.388 226.801 392.113C226.801 325.839 176.433 272.113 114.301 272.113C52.1687 272.113 1.80078 325.839 1.80078 392.113C1.80078 458.388 52.1687 512.113 114.301 512.113Z" fill="#737468"/>
<path d="M241.301 478.614L237.301 500.614L263.301 504.614L280.301 494.614L279.301 478.614H241.301Z" fill="#8D9B66"/>
<path d="M96.8008 471.5L97.3008 491L114.301 489L125.301 488L124.801 472.5L96.8008 471.5Z" fill="#8D9B66"/>
<path d="M110.3 65.6134C110.3 65.6134 108.3 88.6134 103.3 89.6134C98.2999 90.6134 114.3 130.613 114.3 130.613H138.3L157.3 125.613L148.3 103.613C148.3 103.613 136.3 87.6134 145.3 74.6134C154.3 61.6134 110.3 65.6134 110.3 65.6134Z" fill="#F9CCB5"/>
<path d="M60.3021 241.613C60.3021 241.613 34.3021 291.613 55.3021 301.613C76.3021 311.613 81.3021 310.613 81.3021 313.613C81.3021 316.613 77.3021 315.613 79.3021 320.613C81.3021 325.613 75.3021 345.613 81.3021 357.613C87.3021 369.613 86.3008 378 86.3008 378C86.3008 378 86.3008 380 87.3021 383.613C87.8008 388 88.8008 436.5 88.8008 440C88.8008 443.5 89.8008 439.386 89.8008 478.5C95.8008 481.5 129.301 484.5 132.301 479.5C135.301 474.5 126.801 424 126.801 420C126.801 414.5 127.302 395 127.302 391.5C126.801 388 127.302 366.613 127.302 366.613C127.302 366.613 131.801 338 130.302 333.613C129.303 329.5 129.299 328 129.801 324.5C131.301 321.5 131.302 320.613 132.302 316.613C133.302 312.613 135.302 303.613 135.302 303.613L146.302 302.613L172.302 307.613C172.302 307.613 201.302 339.613 233.302 349.613C233.302 349.613 242.302 358.613 245.302 358.613C248.302 358.613 248.302 358.613 247.302 360.613C246.302 362.613 243.302 362.613 245.302 364.613C247.302 366.613 250.302 363.613 248.302 366.613C246.302 369.613 244.302 369.613 246.302 371.613C248.302 373.613 245.302 384.613 245.302 385.613C245.302 386.613 236.302 480.613 239.302 482.613C242.302 484.613 284.302 490.613 287.302 482.613C290.302 474.613 285.302 464.613 285.302 464.613C285.302 464.613 300.302 344.613 296.302 336.613C292.302 328.613 278.302 292.613 203.302 269.613C203.302 269.613 182.302 265.613 182.302 262.613C182.302 259.613 180.302 240.613 176.302 239.613C172.302 238.613 149.302 237.613 149.302 237.613L120.302 246.613L80.3021 239.613L60.3021 241.613Z" fill="#2B3427"/>
<path d="M97.3156 486L92.3156 504C92.3156 504 88.3156 533 93.3156 540C97.243 545.498 104.255 552.231 117.26 553.412C120.905 553.747 124.554 552.827 127.605 550.805C130.656 548.784 132.926 545.781 134.039 542.294C134.188 541.877 134.281 541.442 134.316 541C134.316 539 131.316 515 131.316 515L126.316 490L125.316 483L97.3156 486Z" fill="#2B3427"/>
<path d="M241.302 495.613C241.302 495.613 236.302 490.613 235.302 495.613C234.302 500.613 230.302 521.613 237.302 522.613C244.302 523.613 311.302 533.613 318.302 529.613C325.302 525.613 338.302 519.613 330.302 516.613C322.302 513.613 299.302 504.613 299.302 504.613C299.302 504.613 286.302 487.613 284.302 486.613C282.302 485.613 271.302 487.613 266.302 491.613C261.302 495.613 241.302 495.613 241.302 495.613Z" fill="#2B3427"/>
<path d="M134.301 86.6135C151.422 86.6135 165.301 72.7343 165.301 55.6135C165.301 38.4926 151.422 24.6135 134.301 24.6135C117.18 24.6135 103.301 38.4926 103.301 55.6135C103.301 72.7343 117.18 86.6135 134.301 86.6135Z" fill="#F9CCB5"/>
<path d="M131.302 125.613L119.302 112.613L106.001 86.6134C106.001 86.6134 96.3024 83.6134 94.3024 88.6134C92.3024 93.6134 56.3024 109.613 56.3024 109.613C56.3024 109.613 65.3024 193.613 61.3024 201.613C57.3024 209.613 50.3024 241.613 56.3024 244.613C62.3024 247.613 90.3024 244.613 99.3024 248.613C108.302 252.613 134.302 252.613 141.302 247.613C148.302 242.613 150.302 238.613 157.302 241.613C163.262 244.167 177.193 156.852 181.204 130.832C181.542 128.647 181.261 126.411 180.394 124.377C179.527 122.342 178.107 120.592 176.296 119.323C167.323 113.029 151.163 102.183 148.302 103.614C144.302 105.613 131.302 125.613 131.302 125.613Z" fill="#B3B89F"/>
<path d="M174.3 121.613C176.649 122.201 178.761 123.492 180.354 125.315C181.947 127.137 182.944 129.404 183.211 131.809L191.3 204.613C191.3 204.613 171.3 247.613 161.3 218.613C151.3 189.613 174.3 121.613 174.3 121.613Z" fill="#B3B89F"/>
<path d="M172.301 211.613L194.301 205.613C194.301 205.613 198.301 233.613 202.301 233.613C206.301 233.613 188.301 249.613 179.301 247.613C170.301 245.613 157.301 238.613 156.301 233.613C155.301 228.613 165.301 207.613 165.301 207.613L172.301 211.613Z" fill="#B3B89F"/>
<path d="M136.301 140.613L139.301 134.613C139.301 134.613 183.301 147.613 192.301 159.613C192.301 159.613 214.301 145.613 226.301 147.613L238.301 149.613L201.301 182.613L154.301 178.613L136.301 140.613Z" fill="#F2F2F2"/>
<path d="M134.301 134.613L93.3008 191.613L152.301 220.613C152.301 220.613 157.817 223.613 162.059 220.613L201.301 202.613L238.301 149.613L201.301 168.613C201.301 168.613 197.301 160.613 189.301 164.613L134.301 134.613Z" fill="#8D9B66"/>
<path d="M197.301 235.613L205.301 214.613C205.301 214.613 223.301 191.613 213.301 180.613C203.301 169.613 192.301 212.613 192.301 212.613L197.301 235.613Z" fill="#F9CCB5"/>
<path d="M105 232.262L122.456 218.11C122.456 218.11 149.566 207.245 146.435 192.713C143.303 178.18 112.214 209.858 112.214 209.858L105 232.262Z" fill="#F9CCB5"/>
<path opacity="0.1" d="M61.7994 131.113H60.7994C60.7994 131.113 45.2994 112.613 42.2994 137.613C39.2994 162.613 29.2994 245.613 55.2994 248.613C81.2994 251.613 99.7994 236.113 99.7994 236.113C99.7994 236.113 118.799 207.113 111.799 207.113C108.413 207.113 99.2011 205.592 90.7994 206.113C81.8367 206.669 73.7833 209.194 74.2994 206.613C75.2994 201.613 89.7994 138.113 61.7994 131.113Z" fill="#2B3427"/>
<path d="M60.2994 111.613L56.2994 109.613C56.2994 109.613 40.2994 112.613 37.2994 137.613C34.2994 162.613 24.2994 245.613 50.2994 248.613C76.2994 251.613 111.299 244.613 111.299 244.613C111.299 244.613 118.299 206.613 111.299 206.613C104.299 206.613 68.2994 211.613 69.2994 206.613C70.2994 201.613 88.2994 118.613 60.2994 111.613Z" fill="#B3B89F"/>
<path d="M182.801 224.114L193.828 207.213L200.801 235.114L182.801 243.114V224.114Z" fill="#B3B89F"/>
<path d="M97.3573 30.0944C100.276 28.2375 97.8172 21.297 99.1644 18.1665C100.709 14.5772 104.994 15.3148 106.746 11.8184C108.631 8.05728 113.437 6.76091 117.733 6.30402C128.742 5.15019 139.905 6.85826 150.082 11.2539C154.565 13.3018 158.923 15.605 163.131 18.1511C166.05 19.841 163.608 16.3358 166.527 18.0256C167.662 18.5172 168.574 19.3973 169.088 20.4962C169.446 21.6391 168.359 23.1372 167.216 22.693C170.714 25.0858 174.212 27.4786 177.71 29.8714C175.133 31.621 172.557 33.3706 169.981 35.1204C173.196 34.8856 175.745 39.0517 173.979 41.6534C173.317 42.4541 172.463 43.0842 171.491 43.4893C170.518 43.8945 169.455 44.0627 168.394 43.9793C164.822 43.9441 166.803 47.6377 163.308 46.8789C159.813 46.1201 136.741 34.2948 134.446 36.9258C132.812 38.7993 132.389 41.6271 130.309 43.0249C127.648 44.8132 123.938 43.2285 121.403 41.2161C118.869 39.204 116.402 36.6405 113.157 36.3573C109.77 36.0616 106.939 42.028 105.5 44.9999C104.06 47.9719 104.115 50.7035 104 53.9999C103.849 58.3291 106.651 64.6709 106.5 68.9999C98.5125 69.5247 93.8095 60.7923 93.0457 48.9538C94.7569 41.9062 91.1382 34.0514 97.3573 30.0944Z" fill="#2B3427"/>
<path d="M307.77 105.701V182.79C307.77 183.773 308.135 184.715 308.783 185.409C309.431 186.104 310.311 186.495 311.227 186.495H417.848C418.765 186.495 419.644 186.104 420.292 185.409C420.941 184.715 421.305 183.773 421.306 182.79V105.701C421.304 104.719 420.939 103.779 420.29 103.085C419.642 102.391 418.764 102.001 417.848 102H311.227C310.311 102.001 309.433 102.391 308.785 103.085C308.137 103.779 307.772 104.719 307.77 105.701V105.701Z" fill="#2B3427"/>
<path d="M310.539 107.01V182.495C310.54 183.022 310.736 183.528 311.083 183.9C311.431 184.273 311.902 184.483 312.394 184.483H417.606C418.097 184.483 418.568 184.273 418.916 183.9C419.264 183.528 419.459 183.022 419.46 182.495V107.01C419.46 106.482 419.265 105.976 418.917 105.603C418.569 105.229 418.098 105.019 417.606 105.018H312.394C311.901 105.019 311.43 105.229 311.082 105.603C310.734 105.976 310.539 106.482 310.539 107.01V107.01Z" fill="#8D9B66"/>
<path d="M305.475 197.695C305.672 197.968 305.921 198.189 306.206 198.339C306.49 198.49 306.801 198.568 307.116 198.566H421.964C422.278 198.566 422.588 198.488 422.872 198.337C423.155 198.187 423.405 197.969 423.603 197.698C423.801 197.428 423.942 197.111 424.015 196.773C424.089 196.434 424.094 196.081 424.03 195.74L422.247 186.344C422.173 185.961 422.014 185.604 421.784 185.307C421.554 185.009 421.261 184.78 420.931 184.641C420.692 184.537 420.438 184.483 420.181 184.484H308.892C308.636 184.483 308.381 184.537 308.142 184.641C307.812 184.78 307.519 185.009 307.289 185.307C307.059 185.604 306.9 185.961 306.826 186.344L305.044 195.74C304.98 196.081 304.986 196.433 305.061 196.772C305.135 197.11 305.277 197.425 305.475 197.695V197.695Z" fill="#505141"/>
<path d="M416.195 189.513H419.027C419.264 189.513 419.457 189.338 419.457 189.122V187.892C419.457 187.676 419.264 187.501 419.027 187.501H416.195C415.957 187.501 415.765 187.676 415.765 187.892V189.122C415.765 189.338 415.957 189.513 416.195 189.513Z" fill="#2B3427"/>
<path d="M408.812 189.513H411.644C411.882 189.513 412.074 189.338 412.074 189.122V187.892C412.074 187.676 411.882 187.501 411.644 187.501H408.812C408.575 187.501 408.382 187.676 408.382 187.892V189.122C408.382 189.338 408.575 189.513 408.812 189.513Z" fill="#2B3427"/>
<path d="M401.426 189.513H404.257C404.495 189.513 404.688 189.338 404.688 189.122V187.892C404.688 187.676 404.495 187.501 404.257 187.501H401.426C401.188 187.501 400.995 187.676 400.995 187.892V189.122C400.995 189.338 401.188 189.513 401.426 189.513Z" fill="#2B3427"/>
<path d="M394.965 189.513H397.796C398.034 189.513 398.227 189.338 398.227 189.122V187.892C398.227 187.676 398.034 187.501 397.796 187.501H394.965C394.727 187.501 394.534 187.676 394.534 187.892V189.122C394.534 189.338 394.727 189.513 394.965 189.513Z" fill="#2B3427"/>
<path d="M387.582 189.513H390.413C390.651 189.513 390.844 189.338 390.844 189.122V187.892C390.844 187.676 390.651 187.501 390.413 187.501H387.582C387.344 187.501 387.152 187.676 387.152 187.892V189.122C387.152 189.338 387.344 189.513 387.582 189.513Z" fill="#2B3427"/>
<path d="M381.015 189.513H383.138C383.316 189.513 383.461 189.338 383.461 189.122V187.892C383.461 187.676 383.316 187.501 383.138 187.501H381.015C380.836 187.501 380.692 187.676 380.692 187.892V189.122C380.692 189.338 380.836 189.513 381.015 189.513Z" fill="#2B3427"/>
<path d="M373.734 189.513H376.566C376.803 189.513 376.996 189.338 376.996 189.122V187.892C376.996 187.676 376.803 187.501 376.566 187.501H373.734C373.497 187.501 373.304 187.676 373.304 187.892V189.122C373.304 189.338 373.497 189.513 373.734 189.513Z" fill="#2B3427"/>
<path d="M366.351 189.513H369.183C369.421 189.513 369.613 189.338 369.613 189.122V187.892C369.613 187.676 369.421 187.501 369.183 187.501H366.351C366.114 187.501 365.921 187.676 365.921 187.892V189.122C365.921 189.338 366.114 189.513 366.351 189.513Z" fill="#2B3427"/>
<path d="M359.784 189.513H361.908C362.086 189.513 362.23 189.338 362.23 189.122V187.892C362.23 187.676 362.086 187.501 361.908 187.501H359.784C359.606 187.501 359.461 187.676 359.461 187.892V189.122C359.461 189.338 359.606 189.513 359.784 189.513Z" fill="#2B3427"/>
<path d="M352.508 189.513H355.339C355.577 189.513 355.77 189.338 355.77 189.122V187.892C355.77 187.676 355.577 187.501 355.339 187.501H352.508C352.27 187.501 352.077 187.676 352.077 187.892V189.122C352.077 189.338 352.27 189.513 352.508 189.513Z" fill="#2B3427"/>
<path d="M345.121 189.513H347.952C348.19 189.513 348.383 189.338 348.383 189.122V187.892C348.383 187.676 348.19 187.501 347.952 187.501H345.121C344.883 187.501 344.691 187.676 344.691 187.892V189.122C344.691 189.338 344.883 189.513 345.121 189.513Z" fill="#2B3427"/>
<path d="M338.66 189.513H341.492C341.729 189.513 341.922 189.338 341.922 189.122V187.892C341.922 187.676 341.729 187.501 341.492 187.501H338.66C338.422 187.501 338.23 187.676 338.23 187.892V189.122C338.23 189.338 338.422 189.513 338.66 189.513Z" fill="#2B3427"/>
<path d="M331.277 189.513H334.109C334.346 189.513 334.539 189.338 334.539 189.122V187.892C334.539 187.676 334.346 187.501 334.109 187.501H331.277C331.039 187.501 330.847 187.676 330.847 187.892V189.122C330.847 189.338 331.039 189.513 331.277 189.513Z" fill="#2B3427"/>
<path d="M323.89 189.513H326.722C326.96 189.513 327.152 189.338 327.152 189.122V187.892C327.152 187.676 326.96 187.501 326.722 187.501H323.89C323.653 187.501 323.46 187.676 323.46 187.892V189.122C323.46 189.338 323.653 189.513 323.89 189.513Z" fill="#2B3427"/>
<path d="M317.429 189.513H320.261C320.499 189.513 320.691 189.338 320.691 189.122V187.892C320.691 187.676 320.499 187.501 320.261 187.501H317.429C317.192 187.501 316.999 187.676 316.999 187.892V189.122C316.999 189.338 317.192 189.513 317.429 189.513Z" fill="#2B3427"/>
<path d="M310.047 189.513H312.878C313.116 189.513 313.309 189.338 313.309 189.122V187.892C313.309 187.676 313.116 187.501 312.878 187.501H310.047C309.809 187.501 309.616 187.676 309.616 187.892V189.122C309.616 189.338 309.809 189.513 310.047 189.513Z" fill="#2B3427"/>
<path d="M416.195 193.537H419.027C419.264 193.537 419.457 193.274 419.457 192.95V191.105C419.457 190.781 419.264 190.519 419.027 190.519H416.195C415.957 190.519 415.765 190.781 415.765 191.105V192.95C415.765 193.274 415.957 193.537 416.195 193.537Z" fill="#2B3427"/>
<path d="M408.812 193.537H411.644C411.882 193.537 412.074 193.274 412.074 192.95V191.105C412.074 190.781 411.882 190.519 411.644 190.519H408.812C408.575 190.519 408.382 190.781 408.382 191.105V192.95C408.382 193.274 408.575 193.537 408.812 193.537Z" fill="#2B3427"/>
<path d="M402.241 193.537H404.365C404.543 193.537 404.688 193.274 404.688 192.95V191.105C404.688 190.781 404.543 190.519 404.365 190.519H402.241C402.063 190.519 401.918 190.781 401.918 191.105V192.95C401.918 193.274 402.063 193.537 402.241 193.537Z" fill="#2B3427"/>
<path d="M394.965 193.537H397.796C398.034 193.537 398.227 193.274 398.227 192.95V191.105C398.227 190.781 398.034 190.519 397.796 190.519H394.965C394.727 190.519 394.534 190.781 394.534 191.105V192.95C394.534 193.274 394.727 193.537 394.965 193.537Z" fill="#2B3427"/>
<path d="M387.582 193.537H390.413C390.651 193.537 390.844 193.274 390.844 192.95V191.105C390.844 190.781 390.651 190.519 390.413 190.519H387.582C387.344 190.519 387.152 190.781 387.152 191.105V192.95C387.152 193.274 387.344 193.537 387.582 193.537Z" fill="#2B3427"/>
<path d="M381.015 193.537H383.138C383.316 193.537 383.461 193.274 383.461 192.95V191.105C383.461 190.781 383.316 190.519 383.138 190.519H381.015C380.836 190.519 380.692 190.781 380.692 191.105V192.95C380.692 193.274 380.836 193.537 381.015 193.537Z" fill="#2B3427"/>
<path d="M373.734 193.537H376.566C376.803 193.537 376.996 193.274 376.996 192.95V191.105C376.996 190.781 376.803 190.519 376.566 190.519H373.734C373.497 190.519 373.304 190.781 373.304 191.105V192.95C373.304 193.274 373.497 193.537 373.734 193.537Z" fill="#2B3427"/>
<path d="M366.351 193.537H369.183C369.421 193.537 369.613 193.274 369.613 192.95V191.105C369.613 190.781 369.421 190.519 369.183 190.519H366.351C366.114 190.519 365.921 190.781 365.921 191.105V192.95C365.921 193.274 366.114 193.537 366.351 193.537Z" fill="#2B3427"/>
<path d="M359.89 193.537H362.722C362.96 193.537 363.152 193.274 363.152 192.95V191.105C363.152 190.781 362.96 190.519 362.722 190.519H359.89C359.653 190.519 359.46 190.781 359.46 191.105V192.95C359.46 193.274 359.653 193.537 359.89 193.537Z" fill="#2B3427"/>
<path d="M352.508 193.537H355.339C355.577 193.537 355.77 193.274 355.77 192.95V191.105C355.77 190.781 355.577 190.519 355.339 190.519H352.508C352.27 190.519 352.077 190.781 352.077 191.105V192.95C352.077 193.274 352.27 193.537 352.508 193.537Z" fill="#2B3427"/>
<path d="M345.121 193.537H347.952C348.19 193.537 348.383 193.274 348.383 192.95V191.105C348.383 190.781 348.19 190.519 347.952 190.519H345.121C344.883 190.519 344.691 190.781 344.691 191.105V192.95C344.691 193.274 344.883 193.537 345.121 193.537Z" fill="#2B3427"/>
<path d="M338.66 193.537H341.491C341.729 193.537 341.922 193.274 341.922 192.95V191.105C341.922 190.781 341.729 190.519 341.491 190.519H338.66C338.422 190.519 338.23 190.781 338.23 191.105V192.95C338.23 193.274 338.422 193.537 338.66 193.537Z" fill="#2B3427"/>
<path d="M331.277 193.537H334.109C334.346 193.537 334.539 193.274 334.539 192.95V191.105C334.539 190.781 334.346 190.519 334.109 190.519H331.277C331.04 190.519 330.847 190.781 330.847 191.105V192.95C330.847 193.274 331.04 193.537 331.277 193.537Z" fill="#2B3427"/>
<path d="M323.89 193.537H326.722C326.96 193.537 327.152 193.274 327.152 192.95V191.105C327.152 190.781 326.96 190.519 326.722 190.519H323.89C323.653 190.519 323.46 190.781 323.46 191.105V192.95C323.46 193.274 323.653 193.537 323.89 193.537Z" fill="#2B3427"/>
<path d="M317.429 193.537H320.261C320.499 193.537 320.691 193.274 320.691 192.95V191.105C320.691 190.781 320.499 190.519 320.261 190.519H317.429C317.192 190.519 316.999 190.781 316.999 191.105V192.95C316.999 193.274 317.192 193.537 317.429 193.537Z" fill="#2B3427"/>
<path d="M310.047 193.537H312.878C313.116 193.537 313.309 193.274 313.309 192.95V191.105C313.309 190.781 313.116 190.519 312.878 190.519H310.047C309.809 190.519 309.616 190.781 309.616 191.105V192.95C309.616 193.274 309.809 193.537 310.047 193.537Z" fill="#2B3427"/>
<path d="M357.107 197.56H384.888C385.118 197.56 385.305 197.385 385.305 197.169V195.939C385.305 195.723 385.118 195.548 384.888 195.548H357.107C356.877 195.548 356.69 195.723 356.69 195.939V197.169C356.69 197.385 356.877 197.56 357.107 197.56Z" fill="#2B3427"/>
<path d="M328.472 121.112H325.832C325.032 121.112 324.383 121.788 324.383 122.621C324.383 123.454 325.032 124.13 325.832 124.13H328.472C329.272 124.13 329.921 123.454 329.921 122.621C329.921 121.788 329.272 121.112 328.472 121.112Z" fill="#FBFFF9"/>
<path d="M356.163 121.112H353.523C352.723 121.112 352.074 121.788 352.074 122.621C352.074 123.454 352.723 124.13 353.523 124.13H356.163C356.964 124.13 357.613 123.454 357.613 122.621C357.613 121.788 356.964 121.112 356.163 121.112Z" fill="#FBFFF9"/>
<path d="M363.55 121.112H360.91C360.11 121.112 359.461 121.788 359.461 122.621C359.461 123.454 360.11 124.13 360.91 124.13H363.55C364.35 124.13 364.999 123.454 364.999 122.621C364.999 121.788 364.35 121.112 363.55 121.112Z" fill="#FBFFF9"/>
<path d="M347.991 121.112H333.086C332.359 121.112 331.77 121.788 331.77 122.621C331.77 123.454 332.359 124.13 333.086 124.13H347.991C348.718 124.13 349.308 123.454 349.308 122.621C349.308 121.788 348.718 121.112 347.991 121.112Z" fill="#FBFFF9"/>
<path d="M384.913 121.112H370.008C369.281 121.112 368.691 121.788 368.691 122.621C368.691 123.454 369.281 124.13 370.008 124.13H384.913C385.64 124.13 386.23 123.454 386.23 122.621C386.23 121.788 385.64 121.112 384.913 121.112Z" fill="#FBFFF9"/>
<path d="M335.859 127.147H333.219C332.418 127.147 331.77 127.823 331.77 128.656C331.77 129.49 332.418 130.165 333.219 130.165H335.859C336.659 130.165 337.308 129.49 337.308 128.656C337.308 127.823 336.659 127.147 335.859 127.147Z" fill="#FBFFF9"/>
<path d="M362.869 127.147H360.669C360.002 127.147 359.461 127.823 359.461 128.656C359.461 129.49 360.002 130.165 360.669 130.165H362.869C363.536 130.165 364.076 129.49 364.076 128.656C364.076 127.823 363.536 127.147 362.869 127.147Z" fill="#FBFFF9"/>
<path d="M370.933 127.147H368.293C367.493 127.147 366.844 127.823 366.844 128.656C366.844 129.49 367.493 130.165 368.293 130.165H370.933C371.733 130.165 372.382 129.49 372.382 128.656C372.382 127.823 371.733 127.147 370.933 127.147Z" fill="#FBFFF9"/>
<path d="M355.374 127.147H340.469C339.742 127.147 339.152 127.823 339.152 128.656C339.152 129.49 339.742 130.165 340.469 130.165H355.374C356.101 130.165 356.69 129.49 356.69 128.656C356.69 127.823 356.101 127.147 355.374 127.147Z" fill="#FBFFF9"/>
<path d="M392.296 127.147H377.391C376.664 127.147 376.074 127.823 376.074 128.656C376.074 129.49 376.664 130.165 377.391 130.165H392.296C393.023 130.165 393.612 129.49 393.612 128.656C393.612 127.823 393.023 127.147 392.296 127.147Z" fill="#FBFFF9"/>
<path d="M343.241 134.189H340.602C339.801 134.189 339.152 134.864 339.152 135.697C339.152 136.531 339.801 137.206 340.602 137.206H343.241C344.042 137.206 344.691 136.531 344.691 135.697C344.691 134.864 344.042 134.189 343.241 134.189Z" fill="#FBFFF9"/>
<path d="M370.251 134.189H368.051C367.384 134.189 366.844 134.864 366.844 135.697C366.844 136.531 367.384 137.206 368.051 137.206H370.251C370.918 137.206 371.459 136.531 371.459 135.697C371.459 134.864 370.918 134.189 370.251 134.189Z" fill="#FBFFF9"/>
<path d="M378.32 134.189H375.68C374.879 134.189 374.23 134.864 374.23 135.697C374.23 136.531 374.879 137.206 375.68 137.206H378.32C379.12 137.206 379.769 136.531 379.769 135.697C379.769 134.864 379.12 134.189 378.32 134.189Z" fill="#FBFFF9"/>
<path d="M362.761 134.189H347.856C347.128 134.189 346.539 134.639 346.539 135.195C346.539 135.75 347.128 136.2 347.856 136.2H362.761C363.488 136.2 364.077 135.75 364.077 135.195C364.077 134.639 363.488 134.189 362.761 134.189Z" fill="#FBFFF9"/>
<path d="M399.683 134.189H384.777C384.05 134.189 383.461 134.639 383.461 135.195C383.461 135.75 384.05 136.2 384.777 136.2H399.683C400.41 136.2 400.999 135.75 400.999 135.195C400.999 134.639 400.41 134.189 399.683 134.189Z" fill="#FBFFF9"/>
<path d="M350.628 140.224H347.988C347.188 140.224 346.539 140.9 346.539 141.733C346.539 142.566 347.188 143.242 347.988 143.242H350.628C351.429 143.242 352.077 142.566 352.077 141.733C352.077 140.9 351.429 140.224 350.628 140.224Z" fill="#FBFFF9"/>
<path d="M377.638 140.224H375.438C374.771 140.224 374.23 140.9 374.23 141.733C374.23 142.566 374.771 143.242 375.438 143.242H377.638C378.305 143.242 378.846 142.566 378.846 141.733C378.846 140.9 378.305 140.224 377.638 140.224Z" fill="#FBFFF9"/>
<path d="M385.702 140.224H383.063C382.262 140.224 381.613 140.9 381.613 141.733C381.613 142.566 382.262 143.242 383.063 143.242H385.702C386.503 143.242 387.152 142.566 387.152 141.733C387.152 140.9 386.503 140.224 385.702 140.224Z" fill="#FBFFF9"/>
<path d="M370.144 140.224H355.238C354.511 140.224 353.922 140.9 353.922 141.733C353.922 142.566 354.511 143.242 355.238 143.242H370.144C370.871 143.242 371.46 142.566 371.46 141.733C371.46 140.9 370.871 140.224 370.144 140.224Z" fill="#FBFFF9"/>
<path d="M356.163 165.372H353.523C352.723 165.372 352.074 166.047 352.074 166.88C352.074 167.714 352.723 168.389 353.523 168.389H356.163C356.964 168.389 357.613 167.714 357.613 166.88C357.613 166.047 356.964 165.372 356.163 165.372Z" fill="#FBFFF9"/>
<path d="M363.55 165.372H360.91C360.11 165.372 359.461 166.047 359.461 166.88C359.461 167.714 360.11 168.389 360.91 168.389H363.55C364.35 168.389 364.999 167.714 364.999 166.88C364.999 166.047 364.35 165.372 363.55 165.372Z" fill="#FBFFF9"/>
<path d="M384.913 166.377H370.008C369.281 166.377 368.691 166.828 368.691 167.383C368.691 167.939 369.281 168.389 370.008 168.389H384.913C385.64 168.389 386.23 167.939 386.23 167.383C386.23 166.828 385.64 166.377 384.913 166.377Z" fill="#FBFFF9"/>
<path d="M328.472 165.372H325.832C325.032 165.372 324.383 166.047 324.383 166.88C324.383 167.714 325.032 168.389 325.832 168.389H328.472C329.272 168.389 329.921 167.714 329.921 166.88C329.921 166.047 329.272 165.372 328.472 165.372Z" fill="#FBFFF9"/>
<path d="M347.991 166.377H333.086C332.359 166.377 331.77 166.828 331.77 167.383C331.77 167.939 332.359 168.389 333.086 168.389H347.991C348.718 168.389 349.308 167.939 349.308 167.383C349.308 166.828 348.718 166.377 347.991 166.377Z" fill="#FBFFF9"/>
<path d="M335.859 159.336H333.219C332.418 159.336 331.77 160.012 331.77 160.845C331.77 161.678 332.418 162.354 333.219 162.354H335.859C336.659 162.354 337.308 161.678 337.308 160.845C337.308 160.012 336.659 159.336 335.859 159.336Z" fill="#FBFFF9"/>
<path d="M362.869 159.336H360.669C360.002 159.336 359.461 160.012 359.461 160.845C359.461 161.678 360.002 162.354 360.669 162.354H362.869C363.536 162.354 364.076 161.678 364.076 160.845C364.076 160.012 363.536 159.336 362.869 159.336Z" fill="#FBFFF9"/>
<path d="M370.933 159.336H368.293C367.493 159.336 366.844 160.012 366.844 160.845C366.844 161.678 367.493 162.354 368.293 162.354H370.933C371.733 162.354 372.382 161.678 372.382 160.845C372.382 160.012 371.733 159.336 370.933 159.336Z" fill="#FBFFF9"/>
<path d="M355.374 159.336H340.469C339.742 159.336 339.152 160.012 339.152 160.845C339.152 161.678 339.742 162.354 340.469 162.354H355.374C356.101 162.354 356.69 161.678 356.69 160.845C356.69 160.012 356.101 159.336 355.374 159.336Z" fill="#FBFFF9"/>
<path d="M343.241 153.301H340.602C339.801 153.301 339.152 153.751 339.152 154.307C339.152 154.862 339.801 155.312 340.602 155.312H343.241C344.042 155.312 344.691 154.862 344.691 154.307C344.691 153.751 344.042 153.301 343.241 153.301Z" fill="#FBFFF9"/>
<path d="M370.251 153.301H368.051C367.384 153.301 366.844 153.751 366.844 154.307C366.844 154.862 367.384 155.312 368.051 155.312H370.251C370.918 155.312 371.459 154.862 371.459 154.307C371.459 153.751 370.918 153.301 370.251 153.301Z" fill="#FBFFF9"/>
<path d="M378.32 153.301H375.68C374.879 153.301 374.23 153.751 374.23 154.307C374.23 154.862 374.879 155.312 375.68 155.312H378.32C379.12 155.312 379.769 154.862 379.769 154.307C379.769 153.751 379.12 153.301 378.32 153.301Z" fill="#FBFFF9"/>
<path d="M362.761 153.301H347.856C347.128 153.301 346.539 153.976 346.539 154.809C346.539 155.643 347.128 156.318 347.856 156.318H362.761C363.488 156.318 364.077 155.643 364.077 154.809C364.077 153.976 363.488 153.301 362.761 153.301Z" fill="#FBFFF9"/>
<path d="M350.628 146.259H347.988C347.188 146.259 346.539 146.935 346.539 147.768C346.539 148.602 347.188 149.277 347.988 149.277H350.628C351.429 149.277 352.077 148.602 352.077 147.768C352.077 146.935 351.429 146.259 350.628 146.259Z" fill="#FBFFF9"/>
<path d="M377.638 146.259H375.438C374.771 146.259 374.23 146.935 374.23 147.768C374.23 148.602 374.771 149.277 375.438 149.277H377.638C378.305 149.277 378.846 148.602 378.846 147.768C378.846 146.935 378.305 146.259 377.638 146.259Z" fill="#FBFFF9"/>
<path d="M385.702 146.259H383.063C382.262 146.259 381.613 146.935 381.613 147.768C381.613 148.602 382.262 149.277 383.063 149.277H385.702C386.503 149.277 387.152 148.602 387.152 147.768C387.152 146.935 386.503 146.259 385.702 146.259Z" fill="#FBFFF9"/>
<path d="M370.144 147.265H355.238C354.511 147.265 353.922 147.716 353.922 148.271C353.922 148.827 354.511 149.277 355.238 149.277H370.144C370.871 149.277 371.46 148.827 371.46 148.271C371.46 147.716 370.871 147.265 370.144 147.265Z" fill="#FBFFF9"/>
<path d="M211.748 173.214C217.644 172.204 224.21 173.287 228.766 175.768C231.224 177.116 233.028 178.858 233.977 180.802C235.14 183.115 235.333 185.555 235.455 187.96C235.589 190.619 235.706 193.278 235.832 195.937C235.951 198.472 235.965 201.02 236.239 203.551C236.469 205.675 237.02 207.879 238.861 209.722C240.567 211.429 243.263 212.583 246.31 213.218C249.399 213.862 252.728 214.012 255.968 213.999C259.738 213.992 263.502 213.808 267.227 213.449C274.303 212.749 281.292 210.964 285.614 207.28C287.603 205.608 288.721 203.601 288.819 201.527C288.91 199.109 287.66 196.768 286.29 194.535C284.957 192.362 283.514 190.222 282.671 187.95C281.887 185.824 281.513 183.648 281.558 181.468C281.63 177.107 283.323 172.813 286.506 168.919C288.117 166.92 290.161 165.064 292.581 163.404C295.077 161.727 298.168 160.343 301.843 159.889C303.637 159.659 305.494 159.705 307.252 160.023C308.002 160.162 308.322 159.438 307.575 159.3C303.934 158.627 299.978 159.139 296.75 160.307C293.576 161.456 291.068 163.18 288.939 165.007C284.849 168.59 282.127 172.698 280.975 177.023C279.824 181.348 280.274 185.778 282.292 189.981C284.452 194.351 289.15 198.899 287.132 203.628C285.365 207.768 279.245 210.58 272.923 211.851C269.087 212.622 265.066 212.948 261.055 213.117C257.665 213.259 254.229 213.35 250.849 213.081C247.745 212.834 244.551 212.248 242.144 210.961C239.506 209.551 238.3 207.524 237.775 205.444C237.181 203.09 237.269 200.663 237.157 198.289L236.774 190.183C236.558 185.604 236.744 180.53 231.921 176.737C229.992 175.259 227.543 174.072 224.76 173.266C221.976 172.46 218.932 172.057 215.858 172.087C214.36 172.108 212.871 172.244 211.426 172.492C211.276 172.521 211.149 172.585 211.074 172.67C210.999 172.755 210.98 172.855 211.022 172.949C211.064 173.043 211.163 173.123 211.298 173.172C211.434 173.222 211.595 173.237 211.748 173.214H211.748Z" fill="#2B3427"/>
</svg>
