<svg width="38" height="38" viewBox="0 0 38 38" fill="none" xmlns="http://www.w3.org/2000/svg">
<g clip-path="url(#clip0_111_873)">
<path d="M19.2786 37.1714C30.7543 37.1714 35.5 27.8685 35.5 16.3928C35.5 4.91715 30.7543 2 19.2786 2C7.80289 2 2 4.91715 2 16.3928C2 27.8685 7.80289 37.1714 19.2786 37.1714Z" fill="#F3F1E8"/>
<path d="M19.2786 0C7.80534 0 0.5 4.91787 0.5 16.3928C0.5 25.5735 4.45306 33.362 12.7108 36.11C13.748 36.3022 14.0839 35.6581 14.0839 35.1109V31.2426C8.30403 32.4997 7.10061 28.7907 7.10061 28.7907C6.15518 26.3891 4.79245 25.7501 4.79245 25.7501C2.90679 24.4601 4.93617 24.4878 4.93617 24.4878C7.02269 24.6333 8.12049 26.6298 8.12049 26.6298C9.97324 29.8054 12.9809 28.8877 14.1671 28.3561C14.3523 27.0142 14.8908 26.0964 15.4865 25.5787C10.8719 25.0506 6.02012 23.2688 6.02012 15.3089C6.02012 13.0388 6.83221 11.1861 8.16031 9.73158C7.9456 9.20692 7.23393 7.0927 8.3629 4.23218C8.3629 4.23218 10.1083 3.67462 14.0787 6.36198C15.7358 5.90139 17.5124 5.67109 19.2786 5.66244C21.0448 5.67109 22.8231 5.90139 24.4836 6.36198C28.4506 3.67462 30.1925 4.23218 30.1925 4.23218C31.3232 7.09443 30.6116 9.20865 30.3969 9.73158C31.7302 11.1861 32.5353 13.0406 32.5353 15.3089C32.5353 23.2896 27.6749 25.0471 23.0482 25.5614C23.7927 26.2055 24.4732 27.4696 24.4732 29.4089V35.1109C24.4732 35.6633 24.8057 36.3126 25.8602 36.1083C34.111 33.3568 37.5 25.5701 37.5 16.3928C37.5 4.91787 30.7536 0 19.2786 0Z" fill="#1A1A1A"/>
</g>
<defs>
<clipPath id="clip0_111_873">
<rect width="38" height="38" fill="white"/>
</clipPath>
</defs>
</svg>
