<svg width="50" height="52" viewBox="0 0 50 52" fill="none" xmlns="http://www.w3.org/2000/svg">
<path d="M46.003 0.522704L4.83536 0.526522C4.30609 0.500254 3.77693 0.581271 3.27833 0.76493C2.77972 0.948589 2.32149 1.23129 1.92989 1.59676C1.53829 1.96223 1.22108 2.40328 0.996431 2.89461C0.771787 3.38593 0.644145 3.91784 0.62085 4.45981L0.624578 46.6993C0.653166 47.8357 1.10606 48.9177 1.89017 49.7226C2.67427 50.5275 3.72991 50.9941 4.83984 51.0264L45.9953 51.0226C47.0783 50.979 48.1009 50.5004 48.8416 49.6903C49.5822 48.8802 49.9812 47.804 49.9521 46.6948L49.9485 4.45526C49.9571 3.92731 49.8601 3.40312 49.6635 2.91494C49.4669 2.42677 49.1749 1.98491 48.8053 1.61657C48.4357 1.24823 47.9965 0.961199 47.5146 0.773085C47.0326 0.584971 46.5182 0.499743 46.003 0.522704V0.522704ZM15.9146 42.6196L8.84805 42.6203L8.84608 20.1265L15.9127 20.1258L15.9146 42.6196ZM12.6235 16.7061H12.5728C11.556 16.6992 10.5832 16.2799 9.86775 15.5402C9.15226 14.8004 8.75236 13.8005 8.75571 12.7594C8.75906 11.7184 9.16541 10.7211 9.88564 9.9862C10.6059 9.25128 11.5813 8.83861 12.5982 8.83861C13.6151 8.83861 14.5905 9.25128 15.3107 9.9862C16.0309 10.7211 16.4372 11.7184 16.4406 12.7594C16.4439 13.8005 16.0441 14.8004 15.3286 15.5402C14.6131 16.2799 13.6403 16.6992 12.6235 16.7061V16.7061ZM41.7411 42.6172L34.6746 42.6179L34.6735 30.3187C34.6732 27.3721 33.6446 25.359 31.088 25.3592C30.2883 25.3658 29.5104 25.6262 28.8614 26.1045C28.2124 26.5829 27.7244 27.2557 27.4646 28.03C27.2765 28.6016 27.1937 29.204 27.2204 29.8065L27.2214 42.6186L20.1549 42.6192L20.1529 20.1254L27.2195 20.1248L27.2198 23.2551C27.8632 22.1156 28.7945 21.1747 29.9159 20.5311C31.0372 19.8875 32.3073 19.5651 33.5924 19.5978C38.2312 19.5973 41.7405 22.7273 41.7411 29.476V42.6172Z" fill="#FFD369"/>
</svg>
