<svg width="20" height="21" viewBox="0 0 20 21" fill="none" xmlns="http://www.w3.org/2000/svg">
<path d="M18.3984 0.334736L1.70861 0.336284C1.49403 0.325635 1.27951 0.35848 1.07737 0.432937C0.875228 0.507394 0.689459 0.622003 0.5307 0.770168C0.371941 0.918333 0.243338 1.09714 0.152265 1.29633C0.0611915 1.49552 0.00944427 1.71116 0 1.93088L0.00151165 19.0552C0.0131016 19.5159 0.196711 19.9545 0.514594 20.2809C0.832476 20.6072 1.26044 20.7963 1.71042 20.8094L18.3953 20.8079C18.8343 20.7902 19.2489 20.5962 19.5492 20.2678C19.8494 19.9394 20.0112 19.503 19.9994 19.0534L19.9979 1.92904C20.0014 1.715 19.9621 1.50248 19.8824 1.30457C19.8027 1.10666 19.6843 0.927531 19.5345 0.778201C19.3846 0.628871 19.2066 0.512506 19.0112 0.436243C18.8158 0.35998 18.6073 0.325427 18.3984 0.334736V0.334736ZM6.20025 17.4013L3.33539 17.4015L3.33459 8.2823L6.19948 8.28203L6.20025 17.4013ZM4.86598 6.89563H4.84545C4.4332 6.89285 4.03885 6.72288 3.74879 6.42297C3.45872 6.12306 3.2966 5.71767 3.29796 5.29562C3.29932 4.87357 3.46405 4.46928 3.75604 4.17133C4.04803 3.87339 4.44347 3.70609 4.85573 3.70609C5.26798 3.70609 5.66342 3.87339 5.95541 4.17133C6.2474 4.46928 6.41211 4.87357 6.41347 5.29562C6.41483 5.71767 6.25273 6.12306 5.96267 6.42297C5.6726 6.72288 5.27823 6.89285 4.86598 6.89563V6.89563ZM16.6706 17.4003L13.8057 17.4006L13.8053 12.4143C13.8052 11.2198 13.3882 10.4036 12.3517 10.4037C12.0275 10.4064 11.7121 10.5119 11.449 10.7059C11.1859 10.8998 10.988 11.1725 10.8827 11.4865C10.8065 11.7182 10.7729 11.9624 10.7837 12.2067L10.7842 17.4008L7.9193 17.4011L7.9185 8.28188L10.7834 8.28161L10.7835 9.55067C11.0443 9.08872 11.4219 8.70726 11.8765 8.44635C12.3311 8.18544 12.846 8.05473 13.367 8.06796C15.2476 8.06779 16.6703 9.33672 16.6706 12.0727V17.4003Z" fill="#99C221"/>
</svg>
