<svg width="30" height="34" viewBox="0 0 30 34" fill="none" xmlns="http://www.w3.org/2000/svg">
<path d="M27.5976 0.0023944L2.56291 0.00489086C2.24105 -0.012288 1.91926 0.040696 1.61605 0.160806C1.31284 0.280917 1.03419 0.465797 0.79605 0.704809C0.557911 0.94382 0.365006 1.23226 0.228397 1.55358C0.0917872 1.8749 0.0141664 2.22277 0 2.5772L0.00226748 30.2012C0.0196524 30.9444 0.295067 31.652 0.771891 32.1784C1.24871 32.7048 1.89067 33.0099 2.56563 33.031L27.5929 33.0285C28.2515 33.0001 28.8734 32.687 29.3238 32.1573C29.7742 31.6275 30.0168 30.9236 29.9991 30.1982L29.9969 2.57423C30.0021 2.22895 29.9431 1.88614 29.8236 1.56688C29.7041 1.24762 29.5264 0.958658 29.3017 0.717767C29.077 0.476877 28.8099 0.289163 28.5168 0.16614C28.2237 0.0431162 27.9109 -0.0126221 27.5976 0.0023944V0.0023944ZM9.30037 27.5331L5.00309 27.5336L5.00189 12.823L9.29921 12.8225L9.30037 27.5331ZM7.29897 10.5861H7.26817C6.6498 10.5816 6.05828 10.3074 5.62318 9.8236C5.18808 9.3398 4.9449 8.68584 4.94694 8.00501C4.94897 7.32418 5.19608 6.67201 5.63406 6.19138C6.07205 5.71075 6.66521 5.44087 7.28359 5.44087C7.90198 5.44087 8.49514 5.71075 8.93312 6.19138C9.3711 6.67201 9.61817 7.32418 9.62021 8.00501C9.62224 8.68584 9.3791 9.3398 8.944 9.8236C8.50891 10.3074 7.91734 10.5816 7.29897 10.5861V10.5861ZM25.0059 27.5316L20.7086 27.532L20.7079 19.4885C20.7078 17.5615 20.0823 16.2449 18.5275 16.2451C18.0412 16.2494 17.5682 16.4197 17.1735 16.7325C16.7788 17.0454 16.4821 17.4853 16.3241 17.9917C16.2097 18.3656 16.1594 18.7595 16.1756 19.1536L16.1762 27.5325L11.8789 27.5329L11.8777 12.8223L16.1751 12.8219L16.1752 14.869C16.5665 14.1238 17.1328 13.5085 17.8147 13.0876C18.4967 12.6667 19.269 12.4558 20.0505 12.4772C22.8714 12.4769 25.0055 14.5239 25.0059 18.9374V27.5316Z" fill="#F3F1E8"/>
</svg>
