<svg width="20" height="21" viewBox="0 0 20 21" fill="none" xmlns="http://www.w3.org/2000/svg">
<path d="M18.3984 0.334858L1.70861 0.336406C1.49403 0.325757 1.27951 0.358602 1.07737 0.433059C0.875228 0.507516 0.689459 0.622125 0.5307 0.77029C0.371941 0.918455 0.243338 1.09726 0.152265 1.29645C0.0611915 1.49564 0.00944427 1.71128 0 1.931L0.00151165 19.0553C0.0131016 19.516 0.196711 19.9547 0.514594 20.281C0.832476 20.6073 1.26044 20.7965 1.71042 20.8096L18.3953 20.808C18.8343 20.7904 19.2489 20.5963 19.5492 20.2679C19.8494 19.9395 20.0112 19.5032 19.9994 19.0535L19.9979 1.92916C20.0014 1.71512 19.9621 1.50261 19.8824 1.3047C19.8027 1.10679 19.6843 0.927653 19.5345 0.778323C19.3846 0.628993 19.2066 0.512628 19.0112 0.436365C18.8158 0.360102 18.6073 0.32555 18.3984 0.334858ZM6.20025 17.4014L3.33539 17.4016L3.33459 8.28242L6.19948 8.28216L6.20025 17.4014ZM4.86598 6.89575H4.84545C4.4332 6.89297 4.03885 6.723 3.74879 6.4231C3.45872 6.12319 3.2966 5.71779 3.29796 5.29574C3.29932 4.87369 3.46405 4.4694 3.75604 4.17146C4.04803 3.87351 4.44347 3.70621 4.85573 3.70621C5.26798 3.70621 5.66342 3.87351 5.95541 4.17146C6.2474 4.4694 6.41211 4.87369 6.41347 5.29574C6.41483 5.71779 6.25273 6.12319 5.96267 6.4231C5.6726 6.723 5.27823 6.89297 4.86598 6.89575ZM16.6706 17.4004L13.8057 17.4007L13.8053 12.4145C13.8052 11.2199 13.3882 10.4037 12.3517 10.4038C12.0275 10.4065 11.7121 10.5121 11.449 10.706C11.1859 10.8999 10.988 11.1727 10.8827 11.4866C10.8065 11.7183 10.7729 11.9625 10.7837 12.2068L10.7842 17.401L7.9193 17.4012L7.9185 8.282L10.7834 8.28173L10.7835 9.55079C11.0443 9.08885 11.4219 8.70738 11.8765 8.44647C12.3311 8.18556 12.846 8.05485 13.367 8.06808C15.2476 8.06791 16.6703 9.33684 16.6706 12.0728V17.4004Z" fill="#8D9B66"/>
</svg>
