<svg width="54" height="54" viewBox="0 0 54 54" fill="none" xmlns="http://www.w3.org/2000/svg">
<path d="M5.44134 15.6397C5.46424 12.6691 6.63437 9.82853 8.69616 7.73828C10.7579 5.64803 13.5438 4.47798 16.4454 4.4837L38.3438 4.59373C41.2453 4.61718 44.0199 5.81521 46.0615 7.92608C48.1031 10.037 49.246 12.8892 49.2404 15.8598L49.1329 38.2796C49.1099 41.2502 47.9398 44.0908 45.878 46.1811C43.8163 48.2713 41.0303 49.4413 38.1288 49.4356L16.2304 49.3255C13.3289 49.3021 10.5543 48.1041 8.51269 45.9932C6.47105 43.8824 5.32822 41.0301 5.33381 38.0594L5.44134 15.6397ZM1.06192 15.6177L0.954377 38.0375C0.946249 42.1963 2.54605 46.1894 5.40427 49.1446C8.2625 52.0998 12.1469 53.7767 16.2089 53.8093L38.1072 53.9194C42.1694 53.9277 46.0696 52.2898 48.9561 49.3635C51.8425 46.4373 53.4805 42.4604 53.5123 38.3016L53.6198 15.8819C53.6279 11.7231 52.0281 7.72994 49.1699 4.77479C46.3117 1.81964 42.4273 0.142659 38.3653 0.110132L16.4669 3.13474e-05C12.4048 -0.00826287 8.50459 1.62967 5.61818 4.55593C2.73176 7.4822 1.09372 11.459 1.06192 15.6177Z" fill="#FFD369"/>
<path d="M40.6069 16.4202C39.6504 16.568 38.6756 16.321 37.8969 15.7335C37.1181 15.146 36.599 14.2661 36.4536 13.2869C36.3082 12.3078 36.5483 11.3096 37.1213 10.5117C37.6943 9.71374 38.5533 9.18131 39.5095 9.03137C40.4657 8.88143 41.4409 9.12623 42.2209 9.71201C43.0009 10.2978 43.5218 11.1766 43.6693 12.1554C43.8168 13.1342 43.5788 14.133 43.0075 14.9322C42.4361 15.7314 41.5783 16.2657 40.6224 16.4177L40.6069 16.4202Z" fill="#FFD369"/>
<path d="M25.6685 18.2379C27.4183 17.9632 29.2084 18.2258 30.8124 18.9927C32.4164 19.7596 33.7622 20.9962 34.6797 22.5461C35.5973 24.0961 36.0453 25.8898 35.9671 27.7005C35.8889 29.5111 35.288 31.2574 34.2405 32.7184C33.1929 34.1794 31.7457 35.2896 30.0819 35.9085C28.4181 36.5275 26.6123 36.6274 24.893 36.1956C23.1737 35.7639 21.618 34.8199 20.4228 33.4829C19.2275 32.146 18.4464 30.4763 18.178 28.6848C17.9998 27.4953 18.0523 26.2815 18.3323 25.1128C18.6123 23.944 19.1144 22.8432 19.81 21.8731C20.5055 20.903 21.3808 20.0827 22.3861 19.4589C23.3913 18.8352 24.5067 18.4203 25.6685 18.2379ZM24.9902 13.7096C22.3656 14.1216 19.9193 15.3213 17.9606 17.1567C16.002 18.9922 14.6189 21.3812 13.9863 24.0214C13.3538 26.6616 13.5002 29.4346 14.407 31.9897C15.3138 34.5447 16.9403 36.7671 19.0807 38.3758C21.2212 39.9845 23.7795 40.9072 26.4322 41.0273C29.0849 41.1473 31.7128 40.4594 33.9836 39.0504C36.2543 37.6414 38.066 35.5746 39.1895 33.1114C40.313 30.6483 40.6978 27.8993 40.2954 25.2123C39.7556 21.609 37.8399 18.3728 34.9696 16.2157C32.0994 14.0585 28.5096 13.157 24.9902 13.7096Z" fill="#FFD369"/>
</svg>
