<svg width="23" height="25" viewBox="0 0 23 25" fill="none" xmlns="http://www.w3.org/2000/svg">
<path d="M3.60323 8.37246C3.61151 7.29865 4.03448 6.27184 4.77977 5.51626C5.52506 4.76068 6.53211 4.33773 7.58097 4.3398L15.4967 4.37958C16.5456 4.38805 17.5485 4.82111 18.2865 5.58415C19.0245 6.34718 19.4376 7.37819 19.4356 8.45203L19.3968 16.5563C19.3885 17.6301 18.9655 18.6569 18.2202 19.4125C17.4749 20.1681 16.4679 20.591 15.419 20.5889L7.50324 20.5491C6.45441 20.5407 5.45146 20.1076 4.71345 19.3446C3.97545 18.5816 3.56234 17.5505 3.56436 16.4767L3.60323 8.37246ZM2.02017 8.36449L1.98129 16.4687C1.97835 17.9721 2.55664 19.4155 3.58983 20.4837C4.62302 21.552 6.02713 22.1581 7.49546 22.1699L15.4112 22.2097C16.8796 22.2127 18.2895 21.6207 19.3328 20.5629C20.3762 19.5051 20.9683 18.0675 20.9798 16.5642L21.0187 8.46001C21.0216 6.95668 20.4433 5.51325 19.4101 4.44502C18.377 3.3768 16.9728 2.77061 15.5045 2.75885L7.58873 2.71905C6.12037 2.71606 4.71053 3.30813 3.66715 4.36591C2.62377 5.42369 2.03167 6.86122 2.02018 8.3645L2.02017 8.36449Z" fill="#FFD369"/>
<path d="M16.2426 8.42138C15.9343 8.46903 15.6202 8.38943 15.3692 8.20008C15.1182 8.01074 14.9509 7.72713 14.904 7.41156C14.8571 7.09599 14.9345 6.77428 15.1192 6.51711C15.3039 6.25993 15.5807 6.08834 15.8889 6.04001C16.1971 5.99169 16.5114 6.07058 16.7628 6.25938C17.0142 6.44817 17.1821 6.73142 17.2296 7.04688C17.2771 7.36234 17.2004 7.68423 17.0163 7.94181C16.8321 8.19939 16.5557 8.37159 16.2476 8.42059L16.2426 8.42138Z" fill="#FFD369"/>
<path d="M10.941 9.19742C11.5557 9.10091 12.1846 9.19318 12.7481 9.46259C13.3116 9.732 13.7844 10.1664 14.1067 10.7109C14.4291 11.2555 14.5864 11.8856 14.559 12.5217C14.5315 13.1578 14.3204 13.7713 13.9524 14.2845C13.5844 14.7978 13.076 15.1878 12.4915 15.4053C11.9069 15.6227 11.2726 15.6578 10.6686 15.5061C10.0646 15.3545 9.51803 15.0228 9.09812 14.5531C8.67822 14.0835 8.40379 13.4969 8.30952 12.8675C8.24693 12.4496 8.26534 12.0232 8.36371 11.6126C8.46208 11.202 8.63848 10.8153 8.88284 10.4745C9.12719 10.1337 9.4347 9.8455 9.78784 9.62638C10.141 9.40726 10.5328 9.2615 10.941 9.19742ZM10.7027 7.60658C9.78064 7.75135 8.92125 8.17278 8.23315 8.81761C7.54506 9.46243 7.05917 10.3017 6.83695 11.2292C6.61473 12.1568 6.66617 13.1309 6.98473 14.0285C7.30329 14.9262 7.87468 15.7069 8.62665 16.272C9.37861 16.8372 10.2774 17.1613 11.2093 17.2035C12.1412 17.2457 13.0644 17.004 13.8621 16.509C14.6599 16.014 15.2963 15.288 15.691 14.4226C16.0857 13.5573 16.2209 12.5916 16.0795 11.6476C15.8899 10.3817 15.2169 9.24483 14.2086 8.487C13.2002 7.72917 11.9391 7.41248 10.7027 7.6066V7.60658Z" fill="#FFD369"/>
</svg>
