<svg width="23" height="25" viewBox="0 0 23 25" fill="none" xmlns="http://www.w3.org/2000/svg">
<path d="M3.60323 8.37234C3.61151 7.29853 4.03448 6.27172 4.77977 5.51614C5.52506 4.76056 6.53211 4.33761 7.58097 4.33968L15.4967 4.37945C16.5456 4.38793 17.5485 4.82099 18.2865 5.58403C19.0245 6.34706 19.4376 7.37807 19.4356 8.4519L19.3968 16.5562C19.3885 17.63 18.9655 18.6568 18.2202 19.4124C17.4749 20.1679 16.4679 20.5909 15.419 20.5888L7.50324 20.549C6.45441 20.5405 5.45146 20.1075 4.71345 19.3445C3.97545 18.5814 3.56234 17.5504 3.56436 16.4766L3.60323 8.37234ZM2.02017 8.36437L1.98129 16.4686C1.97835 17.972 2.55664 19.4154 3.58983 20.4836C4.62302 21.5518 6.02713 22.158 7.49546 22.1698L15.4112 22.2096C16.8796 22.2126 18.2895 21.6205 19.3328 20.5628C20.3762 19.505 20.9683 18.0674 20.9798 16.5641L21.0187 8.45989C21.0216 6.95656 20.4433 5.51312 19.4101 4.4449C18.377 3.37668 16.9728 2.77049 15.5045 2.75873L7.58873 2.71893C6.12037 2.71593 4.71053 3.30801 3.66715 4.36579C2.62377 5.42357 2.03167 6.86109 2.02018 8.36437L2.02017 8.36437Z" fill="#8D9B66"/>
<path d="M16.2426 8.4215C15.9343 8.46915 15.6202 8.38955 15.3692 8.20021C15.1182 8.01086 14.9509 7.72725 14.904 7.41168C14.8571 7.09611 14.9345 6.7744 15.1192 6.51723C15.3039 6.26006 15.5807 6.08846 15.8889 6.04013C16.1971 5.99181 16.5114 6.07071 16.7628 6.2595C17.0142 6.44829 17.1821 6.73154 17.2296 7.047C17.2771 7.36247 17.2004 7.68435 17.0163 7.94193C16.8321 8.19951 16.5557 8.37171 16.2476 8.42071L16.2426 8.4215Z" fill="#8D9B66"/>
<path d="M10.9429 9.19742C11.5577 9.10091 12.1865 9.19318 12.75 9.46259C13.3135 9.732 13.7863 10.1664 14.1087 10.7109C14.431 11.2555 14.5884 11.8856 14.5609 12.5217C14.5335 13.1578 14.3224 13.7713 13.9543 14.2845C13.5863 14.7978 13.0779 15.1878 12.4934 15.4053C11.9089 15.6227 11.2745 15.6578 10.6705 15.5061C10.0665 15.3545 9.51998 15.0228 9.10008 14.5531C8.68017 14.0835 8.40574 13.4969 8.31147 12.8675C8.24888 12.4496 8.2673 12.0232 8.36567 11.6126C8.46403 11.202 8.64043 10.8153 8.88479 10.4745C9.12914 10.1337 9.43666 9.8455 9.7898 9.62638C10.1429 9.40726 10.5348 9.2615 10.9429 9.19742ZM10.7046 7.60658C9.7826 7.75135 8.9232 8.17278 8.23511 8.81761C7.54701 9.46243 7.06112 10.3017 6.8389 11.2292C6.61668 12.1568 6.66812 13.1309 6.98668 14.0285C7.30525 14.9262 7.87664 15.7069 8.6286 16.272C9.38057 16.8372 10.2793 17.1613 11.2112 17.2035C12.1432 17.2457 13.0664 17.004 13.8641 16.509C14.6618 16.014 15.2983 15.288 15.693 14.4226C16.0877 13.5573 16.2229 12.5916 16.0815 11.6476C15.8919 10.3817 15.2189 9.24483 14.2105 8.487C13.2022 7.72917 11.9411 7.41248 10.7046 7.6066V7.60658Z" fill="#8D9B66"/>
</svg>
