<svg width="70" height="70" viewBox="0 0 70 70" fill="none" xmlns="http://www.w3.org/2000/svg">
<path d="M35 1.5C53.5015 1.5 68.5 16.4985 68.5 35C68.5 53.5015 53.5015 68.5 35 68.5C16.4985 68.5 1.5 53.5015 1.5 35C1.5 16.4985 16.4985 1.5 35 1.5Z" stroke="#B00000" stroke-width="3"/>
<path d="M50.9569 14.003L19.2464 14.0062C18.8387 13.9844 18.4311 14.0515 18.047 14.2037C17.6629 14.3558 17.31 14.59 17.0083 14.8928C16.7067 15.1955 16.4623 15.5609 16.2893 15.9679C16.1163 16.3749 16.0179 16.8155 16 17.2645L16.0029 52.2549C16.0249 53.1962 16.3738 54.0925 16.9777 54.7593C17.5817 55.426 18.3948 55.8125 19.2498 55.8393L50.951 55.8362C51.7852 55.8001 52.5729 55.4036 53.1434 54.7325C53.7139 54.0615 54.0212 53.1699 53.9989 52.2511L53.996 17.2607C54.0027 16.8233 53.928 16.3891 53.7766 15.9847C53.6251 15.5803 53.4002 15.2143 53.1155 14.9092C52.8308 14.604 52.4925 14.3663 52.1213 14.2104C51.75 14.0546 51.3538 13.984 50.9569 14.003V14.003ZM27.7805 48.8753L22.3372 48.8759L22.3357 30.2424L27.779 30.2419L27.7805 48.8753ZM25.2454 27.409H25.2064C24.4231 27.4033 23.6738 27.056 23.1227 26.4432C22.5716 25.8304 22.2635 25.0021 22.2661 24.1397C22.2687 23.2773 22.5817 22.4512 23.1365 21.8424C23.6913 21.2336 24.4426 20.8918 25.2259 20.8918C26.0092 20.8918 26.7605 21.2336 27.3153 21.8424C27.8701 22.4512 28.183 23.2773 28.1856 24.1397C28.1882 25.0021 27.8802 25.8304 27.3291 26.4432C26.7779 27.056 26.0286 27.4033 25.2454 27.409V27.409ZM47.6741 48.8733L42.2309 48.8739L42.23 38.6855C42.2298 36.2446 41.4375 34.5769 39.4682 34.5771C38.8522 34.5826 38.253 34.7983 37.7531 35.1945C37.2532 35.5908 36.8773 36.1481 36.6772 36.7895C36.5323 37.263 36.4685 37.762 36.4891 38.2612L36.4899 48.8745L31.0467 48.875L31.0451 30.2416L36.4884 30.241L36.4886 32.8341C36.9842 31.8902 37.7016 31.1107 38.5653 30.5776C39.4291 30.0445 40.4074 29.7774 41.3973 29.8045C44.9705 29.8041 47.6736 32.3969 47.6741 37.9874V48.8733Z" fill="black"/>
</svg>
