<svg width="505" height="384" viewBox="0 0 505 384" fill="none" xmlns="http://www.w3.org/2000/svg">
<path d="M0 273.356C7.81859 282.62 16.2753 291.327 25.3082 299.411L366.933 300.311C375.966 292.227 384.422 283.52 392.241 274.256L0 273.356Z" fill="#C0C0C0"/>
<path d="M172.523 186.226V278.531H237.189V186.226C237.19 185.563 236.978 184.916 236.585 184.381C236.191 183.847 235.636 183.452 235.002 183.256C234.703 183.158 234.39 183.109 234.075 183.112H175.646C175.237 183.112 174.831 183.192 174.452 183.348C174.074 183.504 173.73 183.733 173.44 184.022C173.15 184.311 172.919 184.655 172.762 185.033C172.605 185.411 172.524 185.817 172.523 186.226V186.226ZM197.76 217.943C197.777 216.123 198.512 214.384 199.804 213.103C201.097 211.823 202.843 211.104 204.663 211.104C206.482 211.104 208.228 211.823 209.521 213.103C210.814 214.384 211.549 216.123 211.566 217.943V228.653C211.556 230.477 210.825 232.224 209.531 233.511C208.238 234.798 206.487 235.521 204.663 235.521C202.838 235.521 201.087 234.798 199.794 233.511C198.5 232.224 197.769 230.477 197.76 228.653V217.943Z" fill="#C0C0C0"/>
<path d="M172.327 275.579V284.48C172.329 284.941 172.512 285.383 172.837 285.71C173.162 286.037 173.603 286.222 174.064 286.226H235.652C236.113 286.224 236.555 286.039 236.88 285.712C237.206 285.385 237.389 284.942 237.389 284.48V275.579H172.327Z" fill="#C0C0C0"/>
<path d="M70.7949 47.1574V215.693C70.7966 217.84 71.6506 219.9 73.1693 221.418C74.688 222.937 76.7472 223.791 78.895 223.793H328.647C330.795 223.791 332.854 222.937 334.373 221.418C335.891 219.9 336.745 217.84 336.747 215.693V47.1574C336.742 45.0115 335.887 42.9551 334.368 41.4386C332.85 39.9221 330.793 39.069 328.647 39.0663H78.895C76.7491 39.069 74.6918 39.9221 73.1736 41.4386C71.6554 42.9551 70.8 45.0115 70.7949 47.1574V47.1574Z" fill="#C0C0C0"/>
<path d="M76.6553 49.2543V213.614C76.6573 214.761 77.114 215.861 77.9254 216.672C78.7368 217.484 79.8368 217.941 80.9843 217.943H326.569C327.717 217.941 328.817 217.484 329.628 216.672C330.44 215.861 330.896 214.761 330.898 213.614V49.2543C330.898 48.1054 330.442 47.0034 329.631 46.1901C328.819 45.3769 327.718 44.9188 326.569 44.9163H80.9843C79.8354 44.9188 78.7344 45.3769 77.9228 46.1902C77.1112 47.0034 76.6554 48.1054 76.6553 49.2543V49.2543Z" fill="#474747"/>
<path d="M126.732 288.323C126.982 288.637 127.3 288.889 127.662 289.062C128.023 289.235 128.42 289.324 128.82 289.322H274.928C275.327 289.322 275.722 289.232 276.082 289.06C276.443 288.888 276.761 288.637 277.012 288.327C277.264 288.017 277.443 287.654 277.537 287.266C277.631 286.878 277.638 286.473 277.556 286.082L275.288 275.309C275.194 274.87 274.991 274.461 274.699 274.12C274.406 273.779 274.033 273.516 273.614 273.356C273.31 273.237 272.986 273.176 272.66 273.176H131.079C130.753 273.176 130.429 273.237 130.125 273.356C129.706 273.516 129.333 273.779 129.04 274.12C128.748 274.461 128.545 274.87 128.451 275.309L126.183 286.082C126.103 286.473 126.11 286.877 126.205 287.265C126.3 287.652 126.48 288.014 126.732 288.323Z" fill="#C0C0C0"/>
<path d="M131.076 275.426C131.032 275.426 130.988 275.434 130.946 275.449C130.874 275.474 130.81 275.515 130.759 275.571C130.707 275.626 130.67 275.693 130.651 275.767L128.382 286.546C128.37 286.608 128.372 286.672 128.388 286.734C128.403 286.795 128.433 286.853 128.473 286.902L128.483 286.914C128.522 286.965 128.573 287.006 128.631 287.033C128.689 287.061 128.753 287.074 128.817 287.072H274.924C274.988 287.073 275.051 287.059 275.109 287.032C275.167 287.005 275.217 286.964 275.257 286.915C275.3 286.867 275.331 286.809 275.347 286.747C275.364 286.685 275.366 286.62 275.353 286.557L273.083 275.772C273.066 275.701 273.032 275.636 272.985 275.581C272.937 275.527 272.877 275.484 272.809 275.458C272.761 275.437 272.709 275.427 272.656 275.426H131.076Z" fill="#FAFBF5"/>
<path d="M88.8801 67.5575H318.673C318.912 67.5522 319.139 67.4536 319.306 67.2828C319.473 67.112 319.567 66.8826 319.567 66.6437C319.567 66.4048 319.473 66.1753 319.306 66.0045C319.139 65.8337 318.912 65.7352 318.673 65.7299H88.8801C88.6413 65.7352 88.414 65.8337 88.2469 66.0045C88.0799 66.1753 87.9863 66.4048 87.9863 66.6437C87.9863 66.8826 88.0799 67.112 88.2469 67.2828C88.414 67.4536 88.6413 67.5522 88.8801 67.5575Z" fill="#C0C0C0"/>
<path d="M303.029 61.0641C305.987 61.0641 308.385 58.613 308.385 55.5893C308.385 52.5657 305.987 50.1146 303.029 50.1146C300.072 50.1146 297.674 52.5657 297.674 55.5893C297.674 58.613 300.072 61.0641 303.029 61.0641Z" fill="#99C221"/>
<path d="M284.53 61.0641C287.488 61.0641 289.886 58.613 289.886 55.5893C289.886 52.5657 287.488 50.1146 284.53 50.1146C281.573 50.1146 279.175 52.5657 279.175 55.5893C279.175 58.613 281.573 61.0641 284.53 61.0641Z" fill="#99C221"/>
<path d="M266.027 61.0641C268.985 61.0641 271.383 58.613 271.383 55.5893C271.383 52.5657 268.985 50.1146 266.027 50.1146C263.07 50.1146 260.672 52.5657 260.672 55.5893C260.672 58.613 263.07 61.0641 266.027 61.0641Z" fill="#99C221"/>
<path d="M99.0391 52.4673C99.0385 52.5968 99.0634 52.725 99.1123 52.8448C99.1613 52.9646 99.2334 53.0737 99.3245 53.1656C99.4156 53.2575 99.5239 53.3306 99.6433 53.3807C99.7626 53.4307 99.8907 53.4568 100.02 53.4574H113.16C113.42 53.4513 113.667 53.3439 113.849 53.158C114.03 52.9722 114.132 52.7227 114.132 52.4628C114.132 52.203 114.03 51.9535 113.849 51.7677C113.667 51.5818 113.42 51.4744 113.16 51.4683H100.02C99.7578 51.4715 99.5074 51.5784 99.3236 51.7655C99.1398 51.9527 99.0375 52.205 99.0391 52.4673V52.4673Z" fill="#C0C0C0"/>
<path d="M99.0391 56.2024C99.0385 56.3318 99.0633 56.4601 99.1123 56.5799C99.1613 56.6997 99.2334 56.8087 99.3245 56.9006C99.4156 56.9926 99.5239 57.0657 99.6433 57.1157C99.7626 57.1658 99.8907 57.1918 100.02 57.1924H113.16C113.42 57.1867 113.668 57.0793 113.849 56.8935C114.031 56.7076 114.133 56.4579 114.133 56.1979C114.133 55.9379 114.031 55.6882 113.849 55.5023C113.668 55.3164 113.42 55.2091 113.16 55.2034H100.02C99.7578 55.2066 99.5074 55.3134 99.3236 55.5006C99.1398 55.6878 99.0375 55.9401 99.0391 56.2024V56.2024Z" fill="#C0C0C0"/>
<path d="M99.0391 59.9284C99.0375 60.1908 99.1398 60.4431 99.3236 60.6302C99.5074 60.8174 99.7578 60.9242 100.02 60.9274H113.16C113.42 60.9214 113.667 60.8139 113.849 60.6281C114.03 60.4423 114.132 60.1928 114.132 59.9329C114.132 59.6731 114.03 59.4236 113.849 59.2378C113.667 59.0519 113.42 58.9445 113.16 58.9384H100.02C99.8907 58.939 99.7626 58.965 99.6433 59.0151C99.5239 59.0652 99.4156 59.1383 99.3245 59.2302C99.2334 59.3221 99.1613 59.4311 99.1123 59.5509C99.0633 59.6707 99.0385 59.799 99.0391 59.9284Z" fill="#C0C0C0"/>
<path d="M284.431 95.4523H123.116C120.997 95.4548 118.965 96.2977 117.467 97.7962C115.968 99.2947 115.126 101.326 115.123 103.446V181.959C115.125 184.079 115.968 186.11 117.467 187.609C118.965 189.108 120.997 189.951 123.116 189.953H284.431C286.55 189.951 288.582 189.108 290.081 187.609C291.579 186.11 292.422 184.079 292.424 181.959V103.446C292.422 101.326 291.579 99.2947 290.08 97.7962C288.582 96.2977 286.55 95.4548 284.431 95.4523ZM290.624 103.446V126.352H233.924V97.2523H284.431C286.073 97.2542 287.647 97.9073 288.808 99.0683C289.969 100.229 290.623 101.804 290.624 103.446H290.624ZM175.423 157.253V128.152H232.124V157.253H175.423ZM232.124 159.053V188.153H175.423V159.053H232.124ZM173.623 157.253H116.923V128.152H173.623V157.253ZM175.423 126.352V97.2523H232.124V126.352H175.423ZM233.924 128.152H290.624V157.253H233.924V128.152ZM123.116 97.2523H173.624V126.352H116.923V103.446C116.925 101.804 117.578 100.229 118.739 99.0683C119.9 97.9073 121.474 97.2542 123.116 97.2523V97.2523ZM116.923 181.959V159.053H173.624V188.153H123.116C121.474 188.151 119.9 187.498 118.739 186.337C117.578 185.176 116.925 183.601 116.923 181.959V181.959ZM284.431 188.153H233.924V159.053H290.624V181.959C290.623 183.601 289.97 185.176 288.808 186.337C287.647 187.498 286.073 188.151 284.431 188.153H284.431Z" fill="#C0C0C0"/>
<path d="M195.578 115.386C194.147 113.018 192.45 110.49 189.794 109.717C186.717 108.822 183.557 110.601 180.876 112.356C172.86 117.604 165.139 123.293 157.751 129.394L157.759 129.486L175.016 128.296C179.172 128.009 183.47 127.683 187.143 125.717C188.537 124.971 189.895 123.975 191.475 123.905C193.437 123.819 195.147 125.189 196.492 126.621C204.445 135.09 206.746 148.04 215.669 155.481C210.042 141.606 203.325 128.199 195.578 115.386V115.386Z" fill="#FAFBF5"/>
<path d="M244.463 187.216C243.584 186.106 243.224 185.846 242.357 184.725C235.293 175.589 228.654 166.145 222.439 156.392C218.218 149.768 214.206 143.017 210.403 136.139C208.593 132.869 206.832 129.573 205.121 126.252C203.793 123.677 202.495 121.086 201.226 118.48C200.863 117.736 200.511 116.988 200.16 116.239C199.334 114.476 198.523 112.705 197.652 110.967C196.751 108.879 195.373 107.033 193.629 105.576C192.799 104.946 191.808 104.564 190.769 104.476C189.307 104.485 187.875 104.895 186.63 105.662C177.206 110.616 168.41 116.682 160.429 123.73C152.437 130.749 145.293 138.68 139.143 147.359C138.955 147.628 138.51 147.371 138.7 147.101C139.447 146.043 140.21 144.997 140.987 143.962C150.654 131.106 162.507 120.05 176.004 111.3C178.275 109.829 180.588 108.426 182.944 107.093C184.132 106.42 185.325 105.756 186.538 105.133C187.7 104.452 189.004 104.048 190.348 103.953C194.972 103.881 197.366 109.117 199.01 112.64C199.527 113.749 200.05 114.854 200.579 115.956C202.58 120.14 204.657 124.285 206.811 128.393C208.141 130.929 209.499 133.45 210.887 135.956C215.206 143.761 219.796 151.407 224.658 158.896C231.099 168.815 237.489 177.578 244.826 186.854C245.028 187.11 244.667 187.477 244.463 187.216Z" fill="#FAFBF5"/>
<path d="M159.972 121.144C159.703 120.845 159.436 120.545 159.166 120.246C157.034 117.888 154.746 115.558 151.818 114.206C150.422 113.541 148.899 113.188 147.352 113.171C145.757 113.214 144.184 113.557 142.715 114.182C142.017 114.461 141.334 114.777 140.662 115.114C139.894 115.501 139.139 115.913 138.388 116.329C136.978 117.11 135.586 117.924 134.213 118.773C131.48 120.462 128.833 122.279 126.271 124.226C124.943 125.236 123.643 126.278 122.37 127.354C121.186 128.353 120.026 129.38 118.889 130.432C118.646 130.657 118.284 130.294 118.527 130.07C118.826 129.791 119.129 129.514 119.432 129.24C120.287 128.466 121.157 127.708 122.04 126.964C123.65 125.605 125.302 124.299 126.995 123.046C129.629 121.095 132.353 119.276 135.167 117.59C136.574 116.749 138 115.942 139.445 115.171C139.882 114.938 140.323 114.711 140.77 114.495C141.783 113.984 142.836 113.555 143.918 113.213C145.451 112.717 147.073 112.558 148.673 112.746C150.219 112.971 151.707 113.486 153.061 114.264C155.935 115.871 158.165 118.355 160.335 120.78C160.554 121.026 160.193 121.391 159.972 121.144Z" fill="#FAFBF5"/>
<path d="M218.872 145.579L225.76 143.059L229.18 141.809C230.285 141.364 231.412 140.976 232.557 140.646C233.558 140.36 234.62 140.373 235.613 140.685C236.499 141.012 237.309 141.515 237.997 142.162C238.699 142.809 239.353 143.507 239.952 144.25C240.697 145.145 241.43 146.049 242.167 146.951C245.209 150.67 248.23 154.406 251.232 158.158C254.233 161.909 257.215 165.677 260.176 169.461C263.145 173.254 266.093 177.063 269.021 180.887C269.38 181.356 269.738 181.824 270.096 182.293C270.294 182.553 270.74 182.297 270.539 182.034C267.59 178.171 264.62 174.324 261.629 170.493C258.632 166.652 255.613 162.828 252.574 159.02C249.534 155.212 246.474 151.42 243.394 147.645C242.627 146.705 241.858 145.765 241.088 144.827C240.439 144.035 239.796 143.235 239.084 142.499C238.478 141.768 237.733 141.164 236.893 140.721C236.052 140.278 235.133 140.006 234.187 139.919C233.042 139.959 231.913 140.207 230.857 140.651C229.705 141.068 228.556 141.492 227.406 141.913L220.469 144.45L218.735 145.084C218.427 145.197 218.56 145.693 218.872 145.579V145.579Z" fill="#FAFBF5"/>
<path d="M150.912 117.173C149.142 116.301 147.172 115.915 145.204 116.056C143.235 116.197 141.34 116.859 139.712 117.974C145.848 119.032 151.916 120.449 157.887 122.216C155.407 120.763 153.468 118.486 150.912 117.173Z" fill="#FAFBF5"/>
<path d="M139.676 117.968L139.002 118.515C139.23 118.324 139.467 118.144 139.71 117.974L139.676 117.968Z" fill="#FAFBF5"/>
<path d="M237.74 145.604C237.137 144.715 236.296 144.014 235.314 143.579L234.367 143.617C241.575 156.354 251.311 167.484 262.975 176.323L237.74 145.604Z" fill="#FAFBF5"/>
<path d="M233.309 131.658C236.321 131.658 238.763 129.217 238.763 126.205C238.763 123.194 236.321 120.752 233.309 120.752C230.298 120.752 227.856 123.194 227.856 126.205C227.856 129.217 230.298 131.658 233.309 131.658Z" fill="#99C221"/>
<path d="M312.443 186.803C313.516 186.801 314.545 186.374 315.305 185.615C316.064 184.856 316.491 183.827 316.493 182.753V99.0523C316.493 97.9782 316.066 96.9481 315.306 96.1885C314.547 95.429 313.517 95.0023 312.443 95.0023C311.368 95.0023 310.338 95.429 309.579 96.1885C308.819 96.9481 308.393 97.9782 308.393 99.0523V182.753C308.394 183.827 308.821 184.856 309.581 185.615C310.34 186.374 311.369 186.801 312.443 186.803V186.803Z" fill="#C0C0C0"/>
<path d="M312.443 186.803C313.516 186.801 314.545 186.374 315.305 185.615C316.064 184.856 316.491 183.827 316.493 182.753V165.005C316.026 164.369 315.416 163.852 314.713 163.495C314.009 163.139 313.231 162.953 312.443 162.953C311.654 162.953 310.876 163.139 310.173 163.495C309.469 163.852 308.859 164.369 308.393 165.005V182.753C308.394 183.827 308.821 184.856 309.581 185.615C310.34 186.374 311.369 186.801 312.443 186.803V186.803Z" fill="#C0C0C0"/>
<path d="M312.443 169.703C313.597 169.701 314.704 169.242 315.521 168.425C316.337 167.609 316.797 166.502 316.798 165.347V146.26C316.297 145.576 315.641 145.019 314.884 144.636C314.127 144.253 313.291 144.053 312.443 144.053C311.594 144.053 310.758 144.253 310.001 144.636C309.244 145.019 308.589 145.576 308.087 146.26V165.347C308.089 166.502 308.548 167.609 309.365 168.425C310.181 169.242 311.288 169.701 312.443 169.703V169.703Z" fill="#474747"/>
<path d="M312.442 166.232C313.284 166.231 314.091 165.896 314.687 165.3C315.282 164.705 315.617 163.897 315.619 163.055V149.133C315.253 148.634 314.774 148.228 314.222 147.949C313.67 147.669 313.06 147.523 312.442 147.523C311.823 147.523 311.213 147.669 310.661 147.949C310.109 148.228 309.631 148.634 309.265 149.133V163.055C309.266 163.897 309.601 164.705 310.197 165.3C310.792 165.896 311.599 166.231 312.442 166.232V166.232Z" fill="#99C221"/>
<path d="M187.501 280.834C186.79 280.197 186.361 279.305 186.307 278.352C186.254 277.399 186.581 276.463 187.216 275.751L222.6 236.158C222.916 235.806 223.297 235.519 223.723 235.314C224.149 235.108 224.611 234.989 225.083 234.963C225.555 234.936 226.028 235.003 226.474 235.159C226.92 235.315 227.331 235.558 227.684 235.873C228.036 236.188 228.323 236.569 228.528 236.995C228.733 237.421 228.853 237.883 228.879 238.355C228.906 238.827 228.839 239.3 228.683 239.746C228.527 240.193 228.284 240.604 227.969 240.956L192.585 280.549C191.948 281.26 191.055 281.689 190.102 281.743C189.149 281.796 188.214 281.47 187.501 280.834Z" fill="#99C221"/>
<path d="M481.037 346.022C481.037 352.583 479.489 357.605 479.678 361.619C469.063 366.253 458.148 370.168 447.008 373.338C445.748 373.698 444.488 374.04 443.219 374.382C436.352 353.357 429.476 334.106 426.767 332.063C420.566 327.41 417.461 346.661 417.461 342.008C417.461 337.355 420.566 337.355 412.817 331.154C405.058 324.953 409.712 297.044 409.712 297.044L398.857 269.135L410.999 224.62L426.767 166.795H442.274C442.274 166.795 442.733 167.128 443.498 167.749C447.377 170.917 459.077 181.501 457.781 193.156C457.394 196.63 458.258 206.728 459.761 220.174C464.333 260.774 474.836 304.91 474.836 316.556C474.836 332.063 481.037 336.716 481.037 346.022Z" fill="#E6E6E6"/>
<path d="M468.036 220.022C468.018 219.977 468.009 219.941 467.991 219.905C467.644 218.969 467.238 218.055 466.776 217.169C464.157 212.246 466.929 204.686 463.977 196.334C459.207 182.798 453.393 174.815 444.87 167.66C444.618 167.444 444.366 167.237 444.105 167.021L444.096 167.012C438.408 162.341 431.55 157.976 423.036 152.54C421.263 151.406 419.409 150.227 417.483 148.985C414.999 147.392 415.134 142.082 415.278 136.466C415.44 130.229 415.611 123.767 412.551 119.735L412.353 119.474L412.038 119.393C401.546 117.317 390.845 116.493 380.16 116.936H380.151C375.613 117.104 371.108 117.765 366.714 118.907C366.389 118.997 366.066 119.087 365.75 119.195C365.507 119.258 365.264 119.339 365.021 119.42L364.823 119.492L364.671 119.636C361.71 122.597 361.025 127.907 360.701 133.442V133.451C360.639 134.459 360.584 135.467 360.539 136.475C360.287 141.857 360.053 146.942 358.073 149.147C353.657 154.15 348.319 158.257 342.35 161.243C333.053 165.833 325.7 165.689 325.592 165.689L324.737 165.662L324.656 166.508C318.482 178.271 318.716 208.619 318.527 241.118C318.518 242.928 318.506 244.746 318.491 246.573C318.383 261.711 318.095 277.11 316.961 291.141C316.466 297.171 315.827 302.94 314.972 308.331C310.814 334.584 291.977 312.786 282.968 330.255C283.264 331.973 283.762 333.65 284.453 335.25C285.488 335.862 286.55 336.456 287.603 337.05C292.274 339.651 297.032 342.078 301.877 344.331C302.147 344.457 302.417 344.583 302.687 344.7C311.574 348.812 320.734 352.306 330.101 355.158C331.928 355.716 333.755 356.247 335.6 356.751C351.921 361.257 368.726 363.774 385.65 364.248C385.718 364.241 385.788 364.238 385.857 364.239C405.872 363.686 425.756 360.82 445.113 355.698C445.383 355.626 445.653 355.554 445.923 355.482C447.192 355.14 448.452 354.798 449.712 354.438C460.852 351.268 471.767 347.354 482.382 342.72C482.393 343.116 482.432 343.51 482.499 343.899C482.509 344.026 482.527 344.153 482.553 344.277C482.571 344.133 482.589 343.989 482.598 343.845C482.652 343.422 482.697 342.99 482.742 342.558C488.251 288.846 476.811 243.242 468.036 220.022Z" fill="#7F8792"/>
<path d="M344.344 88.3807C349.837 98.4254 358.588 106.3 369.154 110.707C379.72 115.115 391.472 115.792 402.475 112.628C413.478 109.464 423.075 102.647 429.686 93.3006C436.297 83.9537 439.528 72.634 438.846 61.2057C438.164 49.7774 433.611 38.9219 425.936 30.4271C418.261 21.9323 407.921 16.3047 396.62 14.471C385.32 12.6374 373.731 14.707 363.764 20.3391C353.796 25.9712 346.044 34.83 341.784 45.4564C341.553 46.033 341.346 46.6097 341.138 47.2094C338.73 53.9082 337.77 61.0419 338.323 68.1391C338.875 75.2363 340.928 82.1354 344.344 88.3807V88.3807Z" fill="#F9CCB5"/>
<path d="M504.784 226.574C504.658 228.473 504.547 230.495 504.451 232.64C502.543 273.042 504.19 327.429 491.328 356.94C488.449 358.515 485.539 360.021 482.598 361.458C482.481 361.512 482.373 361.566 482.274 361.62C481.482 362.007 480.69 362.385 479.898 362.745C479.87 362.77 479.836 362.789 479.799 362.799C471.102 366.909 462.139 370.43 452.97 373.338C451.845 373.698 450.711 374.04 449.577 374.382C449.334 374.454 449.091 374.526 448.848 374.598C431.574 379.707 413.716 382.577 395.712 383.14C394.776 383.167 393.858 383.185 392.967 383.203C392.652 383.212 392.346 383.221 392.04 383.221C391.032 383.23 390.033 383.239 389.025 383.239C386.991 383.239 384.966 383.209 382.95 383.149C366.026 382.674 349.221 380.157 332.9 375.652C331.055 375.148 329.228 374.617 327.401 374.059C318.034 371.207 308.874 367.712 299.987 363.6C299.717 363.483 299.447 363.357 299.177 363.231C294.335 360.981 289.577 358.554 284.903 355.95C283.85 355.356 282.788 354.762 281.753 354.15C281.063 352.55 280.564 350.873 280.268 349.155C278.225 339.336 276.587 345.96 275.417 325.53C274.346 306.801 273.662 288.018 273.41 277.281C273.329 274.419 273.302 272.124 273.293 270.558C274.247 263.736 289.583 255.996 311.948 248.643C314.063 247.95 316.25 247.257 318.491 246.573C324.539 244.71 331.001 242.882 337.751 241.118C354.942 236.618 374.031 232.487 392.976 229.076C402.327 227.402 411.642 225.899 420.687 224.621C436.554 222.371 451.566 220.814 464.409 220.175C465.642 220.112 466.848 220.058 468.036 220.022C469.314 219.968 470.565 219.932 471.789 219.905C490.293 219.5 502.93 221.426 504.784 226.574Z" fill="#4F5860"/>
<path d="M504.784 226.574C504.658 228.473 504.547 230.495 504.451 232.64C490.429 217.538 339.371 285.003 275.417 325.53C274.346 306.801 273.662 288.018 273.41 277.281C273.329 274.419 273.302 272.124 273.293 270.558C274.247 263.736 289.583 255.996 311.948 248.643C314.063 247.95 316.25 247.257 318.491 246.572C324.539 244.71 331.001 242.882 337.751 241.118C354.942 236.618 374.031 232.487 392.976 229.076C402.327 227.402 411.642 225.899 420.687 224.621C436.554 222.371 451.566 220.814 464.409 220.175C465.642 220.112 466.849 220.058 468.036 220.022C469.314 219.968 470.565 219.932 471.789 219.905C490.294 219.5 502.93 221.426 504.784 226.574Z" fill="#99C221"/>
<path d="M197.582 273.386C198.998 275.172 200.789 276.626 202.828 277.644C204.867 278.663 207.105 279.223 209.383 279.283C211.662 279.344 213.926 278.904 216.016 277.995C218.107 277.086 219.972 275.729 221.482 274.021L272.735 295.071L267.205 266.815L219.381 251.157C216.343 248.812 212.551 247.662 208.722 247.926C204.894 248.19 201.295 249.849 198.608 252.589C195.921 255.329 194.332 258.959 194.143 262.793C193.954 266.626 195.177 270.395 197.582 273.386V273.386Z" fill="#F9CCB5"/>
<path d="M368.072 155.719L367.791 155.689L338.522 158.401C334.922 159.301 334.725 159.697 331.38 161.508C328.034 163.32 325.112 165.823 322.808 168.85C321.737 170.252 320.841 171.213 320.072 172.801L319.172 174.601C316.595 179.873 316.679 184.596 317.822 190.351L327.583 260.701L293.727 257.625L281.368 259.738L266.783 253.854L236.857 254.363L236.163 256.656L229.885 277.468L229.393 279.103L275.091 307.9L288.34 303.87L294.581 308.664L294.881 308.672L307.258 308.917L360.041 309.951L374.469 284.39L376.724 280.383C393.48 242.844 397.615 216.639 396.303 198.585C395.616 189.046 393.41 181.795 390.741 176.331C382.485 159.444 368.653 155.861 368.072 155.719Z" fill="#7F8792"/>
<path d="M447.451 61.2972C445.759 60.6319 444.066 60.0749 442.595 59.7191C450.903 69.9484 436.877 78.9252 434.701 89.3941C434.882 97.7047 430.236 101.475 422.107 103.751L422.297 103.101C356.184 119.663 425.925 64.532 374.235 63.0129C366.357 63.4632 376.878 39.2384 368.778 40.4571C348.212 43.5514 347.253 41.4251 345.048 55.9304C341.045 57.2127 335.555 51.2872 336.204 45.0986C334.739 42.4943 330.91 44.1613 329.37 40.2091C327.74 37.1927 324.64 17.4665 331.711 26.6875C332.179 20.3925 330.358 7.52309 338.387 18.5186C337.342 13.5164 341.782 15.6826 343.639 18.6578C344.952 15.7337 346.266 12.8251 347.563 9.90098C347.199 11.216 347.436 12.6549 348.101 13.9545C351.833 6.2014 357.53 5.49917 366.42 3.31013C366.317 5.68515 366.373 8.46403 366.705 10.6126C377.028 -6.11392 402.029 -1.44082 411.997 13.3364C418.314 14.7471 420.984 12.6085 427.312 14.1556C444.316 18.3128 452.089 43.953 447.451 61.2972V61.2972Z" fill="#4F5860"/>
</svg>
