<svg width="166" height="43" viewBox="0 0 166 43" fill="none" xmlns="http://www.w3.org/2000/svg">
<path d="M21.05 42.8C18.2 42.8 15.5417 42.2583 13.075 41.175C10.625 40.075 8.475 38.55 6.625 36.6C4.79167 34.65 3.35833 32.3833 2.325 29.8C1.29167 27.2 0.775 24.4 0.775 21.4C0.775 18.6 1.24167 15.9167 2.175 13.35C3.10833 10.7833 4.46667 8.5 6.25 6.5C8.03333 4.5 10.2 2.91666 12.75 1.75C15.3167 0.583331 18.2167 -1.66893e-06 21.45 -1.66893e-06C23.4833 -1.66893e-06 25.4333 0.249998 27.3 0.749998C29.1833 1.23333 30.9333 1.925 32.55 2.825C34.1667 3.725 35.6 4.79166 36.85 6.025L34.325 9.925C32.7917 8.275 30.8833 6.96666 28.6 6C26.3333 5.01666 23.95 4.525 21.45 4.525C19.0333 4.525 16.8833 4.96666 15 5.85C13.1167 6.73333 11.525 7.95 10.225 9.5C8.925 11.05 7.93333 12.825 7.25 14.825C6.58333 16.825 6.25 18.95 6.25 21.2C6.25 23.6333 6.625 25.8833 7.375 27.95C8.14167 30 9.20833 31.7917 10.575 33.325C11.9417 34.8583 13.5333 36.05 15.35 36.9C17.1667 37.7333 19.125 38.15 21.225 38.15C22.925 38.15 24.5833 37.8667 26.2 37.3C27.8167 36.7333 29.2667 35.925 30.55 34.875C31.85 33.8083 32.875 32.5417 33.625 31.075C34.3917 29.6083 34.775 27.975 34.775 26.175V24.975H20.875V20.95H39.975V25.4C39.975 28.2 39.4333 30.6833 38.35 32.85C37.2667 35 35.8083 36.8167 33.975 38.3C32.1583 39.7667 30.125 40.8833 27.875 41.65C25.6417 42.4167 23.3667 42.8 21.05 42.8ZM49.8355 42V0.749998H54.9105V19.1H75.3105V0.749998H80.3855V42H75.3105V23.55H54.9105V42H49.8355ZM111.37 42.8C108.27 42.8 105.378 42.2583 102.695 41.175C100.028 40.075 97.6866 38.5583 95.6699 36.625C93.6699 34.675 92.1116 32.4 90.9949 29.8C89.8783 27.2 89.3199 24.4 89.3199 21.4C89.3199 18.4 89.8783 15.6 90.9949 13C92.1283 10.4 93.6949 8.13333 95.6949 6.2C97.6949 4.25 100.028 2.73333 102.695 1.65C105.362 0.549998 108.245 -1.66893e-06 111.345 -1.66893e-06C113.912 -1.66893e-06 116.328 0.374998 118.595 1.125C120.878 1.85833 122.87 2.86666 124.57 4.15L122.27 8.425C120.903 7.325 119.303 6.48333 117.47 5.9C115.637 5.3 113.703 5 111.67 5C109.22 5 106.97 5.41667 104.92 6.25C102.87 7.08333 101.087 8.25 99.5699 9.75C98.0699 11.2333 96.9033 12.975 96.0699 14.975C95.2533 16.9583 94.8449 19.1 94.8449 21.4C94.8449 23.7 95.2533 25.85 96.0699 27.85C96.9033 29.8333 98.0699 31.575 99.5699 33.075C101.087 34.5583 102.87 35.7167 104.92 36.55C106.97 37.3833 109.22 37.8 111.67 37.8C113.703 37.8 115.637 37.5083 117.47 36.925C119.303 36.325 120.903 35.475 122.27 34.375L124.57 38.65C122.903 39.9 120.937 40.9083 118.67 41.675C116.403 42.425 113.97 42.8 111.37 42.8ZM128.493 42L144.818 0.749998H149.543L165.868 42H160.393L155.818 29.975H138.543L133.943 42H128.493ZM140.268 25.5H154.093L147.168 7.525L140.268 25.5Z" fill="#5F4B8B"/>
</svg>
