<svg width="397" height="80" viewBox="0 0 397 80" fill="none" xmlns="http://www.w3.org/2000/svg">
<path d="M21.9 62.5C17.8 62.5 14.2667 61.75 11.3 60.25C8.36667 58.75 6.1 56.6 4.5 53.8C2.93333 51 2.15 47.65 2.15 43.75C2.15 39.85 2.93333 36.5 4.5 33.7C6.06667 30.9 8.3 28.75 11.2 27.25C14.1 25.75 17.5667 25 21.6 25C23.8 25 25.9 25.25 27.9 25.75C29.9 26.2167 31.6833 26.9333 33.25 27.9L31.95 32.65C30.5167 31.7833 28.9 31.1333 27.1 30.7C25.3 30.2333 23.4667 30 21.6 30C18.7667 30 16.3333 30.55 14.3 31.65C12.3 32.7167 10.75 34.2833 9.65 36.35C8.58333 38.3833 8.05 40.85 8.05 43.75C8.05 46.65 8.58333 49.1333 9.65 51.2C10.75 53.2333 12.3333 54.8 14.4 55.9C16.4667 56.9667 18.9667 57.5 21.9 57.5C23.4667 57.5 25 57.35 26.5 57.05C28 56.7167 29.3333 56.25 30.5 55.65L29.65 57.6V45.65H17.4V40.95H35.15V59.65C33.3833 60.55 31.3167 61.25 28.95 61.75C26.6167 62.25 24.2667 62.5 21.9 62.5ZM48.7195 62.5C46.1195 62.5 44.0695 61.8 42.5695 60.4C41.0695 58.9667 40.3195 57.0333 40.3195 54.6C40.3195 51.5667 41.5195 49.2333 43.9195 47.6C46.3195 45.9333 49.7362 45.1 54.1695 45.1H57.9195C57.9195 43.7667 57.7529 42.7333 57.4195 42C57.0862 41.2667 56.5029 40.75 55.6695 40.45C54.8695 40.15 53.7529 40 52.3195 40C50.6195 40 48.8862 40.1667 47.1195 40.5C45.3862 40.8333 43.7362 41.3333 42.1695 42L41.4195 37.55C43.0862 36.9167 44.9195 36.4167 46.9195 36.05C48.9529 35.6833 50.9862 35.5 53.0195 35.5C55.6195 35.5 57.6529 35.8167 59.1195 36.45C60.6195 37.0833 61.6862 38.15 62.3195 39.65C62.9862 41.15 63.3195 43.1333 63.3195 45.6V62H58.1695L58.1195 59H58.0195C57.1195 60.0333 55.7862 60.8833 54.0195 61.55C52.2862 62.1833 50.5195 62.5 48.7195 62.5ZM50.6195 58.1C51.9529 58.1 53.1695 57.85 54.2695 57.35C55.4029 56.85 56.2862 56.1833 56.9195 55.35C57.5862 54.5167 57.9195 53.5833 57.9195 52.55V49.2H54.9195C51.8529 49.2 49.5529 49.6 48.0195 50.4C46.4862 51.2 45.7195 52.4167 45.7195 54.05C45.7195 55.3167 46.1362 56.3167 46.9695 57.05C47.8362 57.75 49.0529 58.1 50.6195 58.1ZM84.1563 62.5C82.3896 62.5 80.7563 62.1833 79.2562 61.55C77.7563 60.9167 76.5229 60.0333 75.5563 58.9H75.4563L75.4063 62H70.2563V25.5H75.6563V39.1H75.7563C76.6896 37.9333 77.8896 37.05 79.3563 36.45C80.8229 35.8167 82.4229 35.5 84.1563 35.5C87.6229 35.5 90.3396 36.7 92.3063 39.1C94.2729 41.4667 95.2563 44.7667 95.2563 49C95.2563 53.2333 94.2729 56.55 92.3063 58.95C90.3396 61.3167 87.6229 62.5 84.1563 62.5ZM82.9063 58C85.1729 58 86.9063 57.2167 88.1063 55.65C89.3396 54.0833 89.9563 51.8667 89.9563 49C89.9563 46.1333 89.3396 43.9167 88.1063 42.35C86.9063 40.7833 85.1729 40 82.9063 40C81.5396 40 80.3063 40.2833 79.2063 40.85C78.1063 41.4167 77.2396 42.2 76.6063 43.2C75.9729 44.1667 75.6563 45.2833 75.6563 46.55V51.45C75.6563 52.6833 75.9729 53.8 76.6063 54.8C77.2396 55.8 78.1063 56.5833 79.2063 57.15C80.3063 57.7167 81.5396 58 82.9063 58ZM101.067 62V36H106.267L106.317 41H106.417C107.25 39.8333 108.25 38.85 109.417 38.05C110.617 37.2167 111.95 36.5833 113.417 36.15C114.917 35.7167 116.467 35.5 118.067 35.5V40.25C115.933 40.25 113.983 40.6667 112.217 41.5C110.483 42.3333 109.1 43.45 108.067 44.85C107.033 46.25 106.517 47.8 106.517 49.5V62H101.067ZM122.756 31V25.5H128.256V31H122.756ZM122.756 62V36H128.256V62H122.756ZM148.52 62.5C144.02 62.5 140.553 61.3333 138.12 59C135.686 56.6667 134.47 53.3333 134.47 49C134.47 44.8 135.586 41.5 137.82 39.1C140.086 36.7 143.186 35.5 147.12 35.5C150.92 35.5 153.836 36.6333 155.87 38.9C157.936 41.1667 158.97 44.3833 158.97 48.55C158.97 48.9833 158.953 49.4667 158.92 50C158.92 50.5333 158.903 50.95 158.87 51.25H137.47V47H154.77L153.92 48.3C153.92 45.4667 153.353 43.3667 152.22 42C151.086 40.6 149.386 39.9 147.12 39.9C144.72 39.9 142.886 40.6333 141.62 42.1C140.386 43.5667 139.77 45.7 139.77 48.5V50C139.77 52.7 140.47 54.7167 141.87 56.05C143.303 57.35 145.453 58 148.32 58C149.72 58 151.203 57.8667 152.77 57.6C154.37 57.3 155.786 56.9167 157.02 56.45L157.72 60.8C156.453 61.3333 155.003 61.75 153.37 62.05C151.77 62.35 150.153 62.5 148.52 62.5ZM165.09 62V25.5H170.59V62H165.09ZM210.017 62.5C206.084 62.5 202.684 61.75 199.817 60.25C196.984 58.75 194.801 56.6 193.267 53.8C191.767 51 191.017 47.65 191.017 43.75C191.017 39.85 191.767 36.5 193.267 33.7C194.801 30.9 196.984 28.75 199.817 27.25C202.684 25.75 206.084 25 210.017 25C214.517 25 218.517 26 222.017 28L220.667 32.9C217.301 30.9667 213.817 30 210.217 30C207.451 30 205.051 30.55 203.017 31.65C200.984 32.75 199.417 34.3333 198.317 36.4C197.251 38.4333 196.717 40.8833 196.717 43.75C196.717 46.5833 197.251 49.0333 198.317 51.1C199.417 53.1667 200.984 54.75 203.017 55.85C205.051 56.95 207.451 57.5 210.217 57.5C213.717 57.5 217.201 56.5333 220.667 54.6L222.017 59.5C218.517 61.5 214.517 62.5 210.017 62.5ZM234.266 62.5C231.666 62.5 229.616 61.8 228.116 60.4C226.616 58.9667 225.866 57.0333 225.866 54.6C225.866 51.5667 227.066 49.2333 229.466 47.6C231.866 45.9333 235.283 45.1 239.716 45.1H243.466C243.466 43.7667 243.3 42.7333 242.966 42C242.633 41.2667 242.05 40.75 241.216 40.45C240.416 40.15 239.3 40 237.866 40C236.166 40 234.433 40.1667 232.666 40.5C230.933 40.8333 229.283 41.3333 227.716 42L226.966 37.55C228.633 36.9167 230.466 36.4167 232.466 36.05C234.5 35.6833 236.533 35.5 238.566 35.5C241.166 35.5 243.2 35.8167 244.666 36.45C246.166 37.0833 247.233 38.15 247.866 39.65C248.533 41.15 248.866 43.1333 248.866 45.6V62H243.716L243.666 59H243.566C242.666 60.0333 241.333 60.8833 239.566 61.55C237.833 62.1833 236.066 62.5 234.266 62.5ZM236.166 58.1C237.5 58.1 238.716 57.85 239.816 57.35C240.95 56.85 241.833 56.1833 242.466 55.35C243.133 54.5167 243.466 53.5833 243.466 52.55V49.2H240.466C237.4 49.2 235.1 49.6 233.566 50.4C232.033 51.2 231.266 52.4167 231.266 54.05C231.266 55.3167 231.683 56.3167 232.516 57.05C233.383 57.75 234.6 58.1 236.166 58.1ZM255.803 62V36H261.003L261.053 41H261.153C261.986 39.8333 262.986 38.85 264.153 38.05C265.353 37.2167 266.686 36.5833 268.153 36.15C269.653 35.7167 271.203 35.5 272.803 35.5V40.25C270.67 40.25 268.72 40.6667 266.953 41.5C265.22 42.3333 263.836 43.45 262.803 44.85C261.77 46.25 261.253 47.8 261.253 49.5V62H255.803ZM277.58 62V36H282.73L282.78 39.1H282.88C283.914 37.9 285.164 37 286.63 36.4C288.097 35.8 289.797 35.5 291.73 35.5C294.93 35.5 297.28 36.35 298.78 38.05C300.314 39.75 301.08 42.4 301.08 46V62H295.68V47C295.68 44.6 295.23 42.8333 294.33 41.7C293.464 40.5667 292.097 40 290.23 40C288.83 40 287.58 40.2833 286.48 40.85C285.38 41.4167 284.514 42.1833 283.88 43.15C283.28 44.1167 282.98 45.2333 282.98 46.5V62H277.58ZM320.199 62.5C315.699 62.5 312.233 61.3333 309.799 59C307.366 56.6667 306.149 53.3333 306.149 49C306.149 44.8 307.266 41.5 309.499 39.1C311.766 36.7 314.866 35.5 318.799 35.5C322.599 35.5 325.516 36.6333 327.549 38.9C329.616 41.1667 330.649 44.3833 330.649 48.55C330.649 48.9833 330.633 49.4667 330.599 50C330.599 50.5333 330.583 50.95 330.549 51.25H309.149V47H326.449L325.599 48.3C325.599 45.4667 325.033 43.3667 323.899 42C322.766 40.6 321.066 39.9 318.799 39.9C316.399 39.9 314.566 40.6333 313.299 42.1C312.066 43.5667 311.449 45.7 311.449 48.5V50C311.449 52.7 312.149 54.7167 313.549 56.05C314.983 57.35 317.133 58 319.999 58C321.399 58 322.883 57.8667 324.449 57.6C326.049 57.3 327.466 56.9167 328.699 56.45L329.399 60.8C328.133 61.3333 326.683 61.75 325.049 62.05C323.449 62.35 321.833 62.5 320.199 62.5ZM336.77 31V25.5H342.27V31H336.77ZM336.77 62V36H342.27V62H336.77ZM350.383 62V36H355.583L355.633 41H355.733C356.567 39.8333 357.567 38.85 358.733 38.05C359.933 37.2167 361.267 36.5833 362.733 36.15C364.233 35.7167 365.783 35.5 367.383 35.5V40.25C365.25 40.25 363.3 40.6667 361.533 41.5C359.8 42.3333 358.417 43.45 357.383 44.85C356.35 46.25 355.833 47.8 355.833 49.5V62H350.383ZM381.503 62.5C377.369 62.5 374.169 61.3333 371.903 59C369.636 56.6333 368.503 53.3 368.503 49C368.503 44.7 369.636 41.3833 371.903 39.05C374.169 36.6833 377.369 35.5 381.503 35.5C385.636 35.5 388.836 36.6833 391.103 39.05C393.369 41.3833 394.503 44.7 394.503 49C394.503 53.3 393.369 56.6333 391.103 59C388.836 61.3333 385.636 62.5 381.503 62.5ZM381.503 58C383.969 58 385.853 57.2333 387.153 55.7C388.453 54.1667 389.103 51.9333 389.103 49C389.103 46.0667 388.453 43.8333 387.153 42.3C385.853 40.7667 383.969 40 381.503 40C379.069 40 377.186 40.7667 375.853 42.3C374.553 43.8333 373.903 46.0667 373.903 49C373.903 51.9333 374.553 54.1667 375.853 55.7C377.186 57.2333 379.069 58 381.503 58Z" fill="#99C221"/>
</svg>
