<svg width="146" height="47" viewBox="0 0 146 47" fill="none" xmlns="http://www.w3.org/2000/svg">
<path d="M15.2961 40.704C19.7121 40.704 22.7841 34.752 22.7841 26.944H12.4161V21.184H29.1201V45.824H23.3601L26.2401 36.544H23.6801C22.6561 41.6 19.9681 46.464 14.5281 46.464C6.91213 46.464 0.000125408 40.384 0.000125408 23.424C0.000125408 7.03997 6.27213 -2.67029e-05 15.1681 -2.67029e-05C24.3201 -2.67029e-05 29.0561 8.06397 29.1201 16.384H23.2961C23.4881 10.496 20.2881 5.75997 15.1681 5.75997C9.40813 5.75997 5.76013 10.88 5.76013 23.424C5.76013 36.16 9.28013 40.704 15.2961 40.704ZM61.2231 25.472H44.5831V45.824H38.8231V1.02397H44.5831V19.712H61.2231V1.02397H66.9831V45.824H61.2231V25.472ZM91.2141 5.75997C85.2621 5.75997 81.8701 11.392 81.8701 23.424C81.8701 35.456 85.2621 40.832 91.2141 40.832C96.0781 40.832 99.8541 36.608 99.5981 29.44H105.358C105.358 39.68 99.6621 46.592 91.2141 46.592C81.2941 46.592 76.1101 38.016 76.1101 23.424C76.1101 8.83197 81.2301 -2.67029e-05 91.2141 -2.67029e-05C99.4701 -2.67029e-05 105.038 6.65597 105.23 16.384H99.4061C99.5981 9.79197 95.8221 5.75997 91.2141 5.75997ZM134.325 1.02397L145.781 45.824H139.829L136.821 33.984H122.485L119.477 45.824H113.525L124.981 1.02397H134.325ZM123.957 28.224H135.349L131.125 11.904L130.933 5.50397H128.373L128.181 11.904L123.957 28.224Z" fill="#B00000"/>
</svg>
