<svg width="199" height="52" viewBox="0 0 199 52" fill="none" xmlns="http://www.w3.org/2000/svg">
<path d="M24.86 51.96C21.44 51.96 18.25 51.31 15.29 50.01C12.35 48.69 9.77 46.86 7.55 44.52C5.35 42.18 3.63 39.46 2.39 36.36C1.15 33.24 0.53 29.88 0.53 26.28C0.53 22.92 1.09 19.7 2.21 16.62C3.33 13.54 4.96 10.8 7.1 8.4C9.24 6 11.84 4.1 14.9 2.7C17.98 1.3 21.46 0.599998 25.34 0.599998C27.78 0.599998 30.12 0.899998 32.36 1.5C34.62 2.08 36.72 2.91 38.66 3.99C40.6 5.07 42.32 6.35 43.82 7.83L40.79 12.51C38.95 10.53 36.66 8.96 33.92 7.8C31.2 6.62 28.34 6.03 25.34 6.03C22.44 6.03 19.86 6.56 17.6 7.62C15.34 8.68 13.43 10.14 11.87 12C10.31 13.86 9.12 15.99 8.3 18.39C7.5 20.79 7.1 23.34 7.1 26.04C7.1 28.96 7.55 31.66 8.45 34.14C9.37 36.6 10.65 38.75 12.29 40.59C13.93 42.43 15.84 43.86 18.02 44.88C20.2 45.88 22.55 46.38 25.07 46.38C27.11 46.38 29.1 46.04 31.04 45.36C32.98 44.68 34.72 43.71 36.26 42.45C37.82 41.17 39.05 39.65 39.95 37.89C40.87 36.13 41.33 34.17 41.33 32.01V30.57H24.65V25.74H47.57V31.08C47.57 34.44 46.92 37.42 45.62 40.02C44.32 42.6 42.57 44.78 40.37 46.56C38.19 48.32 35.75 49.66 33.05 50.58C30.37 51.5 27.64 51.96 24.86 51.96ZM59.4027 51V1.5H65.4927V23.52H89.9727V1.5H96.0627V51H89.9727V28.86H65.4927V51H59.4027ZM133.244 51.96C129.524 51.96 126.054 51.31 122.834 50.01C119.634 48.69 116.824 46.87 114.404 44.55C112.004 42.21 110.134 39.48 108.794 36.36C107.454 33.24 106.784 29.88 106.784 26.28C106.784 22.68 107.454 19.32 108.794 16.2C110.154 13.08 112.034 10.36 114.434 8.04C116.834 5.7 119.634 3.88 122.834 2.58C126.034 1.26 129.494 0.599998 133.214 0.599998C136.294 0.599998 139.194 1.05 141.914 1.95C144.654 2.83 147.044 4.04 149.084 5.58L146.324 10.71C144.684 9.39 142.764 8.38 140.564 7.68C138.364 6.96 136.044 6.6 133.604 6.6C130.664 6.6 127.964 7.1 125.504 8.1C123.044 9.1 120.904 10.5 119.084 12.3C117.284 14.08 115.884 16.17 114.884 18.57C113.904 20.95 113.414 23.52 113.414 26.28C113.414 29.04 113.904 31.62 114.884 34.02C115.884 36.4 117.284 38.49 119.084 40.29C120.904 42.07 123.044 43.46 125.504 44.46C127.964 45.46 130.664 45.96 133.604 45.96C136.044 45.96 138.364 45.61 140.564 44.91C142.764 44.19 144.684 43.17 146.324 41.85L149.084 46.98C147.084 48.48 144.724 49.69 142.004 50.61C139.284 51.51 136.364 51.96 133.244 51.96ZM153.792 51L173.382 1.5H179.052L198.642 51H192.072L186.582 36.57H165.852L160.332 51H153.792ZM167.922 31.2H184.512L176.202 9.63L167.922 31.2Z" fill="#8D9B66"/>
</svg>
