<svg width="20" height="20" viewBox="0 0 20 20" fill="none" xmlns="http://www.w3.org/2000/svg">
<path d="M10 0C4.48 0 0 4.48 0 10C0 15.52 4.48 20 10 20C15.52 20 20 15.52 20 10C20 4.48 15.52 0 10 0ZM2 10C2 8.05 2.7 6.26 3.87 4.87L7 8V9C7 10.1 7.9 11 9 11V16.59C9 16.86 9.11 17.11 9.29 17.3L10 18C5.58 18 2 14.42 2 10ZM11 17.94V16L14.75 10.38C14.91 10.13 15 9.84 15 9.55V8.5C15 7.95 14.55 7.5 14 7.5H12.5L11.1 5.75C10.72 5.28 10.15 5 9.54 5H6V3.07C7.18 2.39 8.54 2 10 2C14.41 2 18 5.59 18 10C18 14.07 14.94 17.44 11 17.94Z" fill="#8D9B66"/>
</svg>
