<svg width="555" height="421" viewBox="0 0 555 421" fill="none" xmlns="http://www.w3.org/2000/svg">
<g clip-path="url(#clip0_862_3226)">
<path d="M477.159 356.426C507.555 333.274 522.072 294.371 512.984 257.259C512.758 256.337 512.519 255.417 512.268 254.499C506.243 232.471 491.336 211.534 469.61 204.495C451.367 198.585 431.455 203.13 412.423 200.779C375.063 196.166 346.098 165.937 325.718 134.287C305.338 102.638 289.675 67.2104 262.594 41.063C217.956 -2.03636 145.14 -11.3157 89.7945 16.7388C34.4494 44.7934 -0.804885 107.035 0.69861 169.066C2.20217 231.097 39.0274 290.404 92.5068 321.869C112.153 333.429 134.876 341.617 157.489 338.752C177.111 336.266 194.939 325.723 214.469 322.593C245.173 317.671 275.682 331.554 302.239 347.731C328.796 363.908 354.448 383.083 384.627 390.583C413.93 397.865 450.233 376.934 477.159 356.426Z" fill="#D8CFB2"/>
<path d="M1.03516 313.54C7.14358 320.777 13.7505 327.579 20.8077 333.896L534.513 334.599C541.57 328.283 548.177 321.481 554.286 314.243L1.03516 313.54Z" fill="#3F3D56"/>
<path d="M380.453 239.21V306.754C380.454 307.615 380.796 308.44 381.405 309.049C382.013 309.658 382.839 310 383.699 310H483.792C484.653 310 485.478 309.658 486.087 309.049C486.696 308.44 487.038 307.615 487.039 306.754V239.21C487.037 238.35 486.694 237.526 486.085 236.918C485.477 236.311 484.652 235.969 483.792 235.968H383.699C382.839 235.969 382.015 236.311 381.406 236.918C380.798 237.526 380.455 238.35 380.453 239.21Z" fill="#3F3D56"/>
<path d="M382.801 240.051V305.921C382.802 306.381 382.985 306.822 383.31 307.147C383.635 307.472 384.076 307.655 384.536 307.656H482.959C483.419 307.655 483.859 307.472 484.185 307.147C484.51 306.822 484.693 306.381 484.694 305.921V240.051C484.694 239.59 484.511 239.149 484.186 238.823C483.86 238.497 483.419 238.313 482.959 238.312H384.536C384.075 238.313 383.634 238.497 383.309 238.823C382.984 239.149 382.801 239.59 382.801 240.051Z" fill="#5F4B8B"/>
<path d="M378.358 319.927C378.541 320.157 378.774 320.342 379.039 320.469C379.304 320.596 379.595 320.661 379.889 320.66H487.065C487.358 320.66 487.648 320.594 487.912 320.468C488.177 320.341 488.41 320.158 488.594 319.93C488.779 319.702 488.911 319.436 488.98 319.152C489.049 318.867 489.053 318.57 488.993 318.283L487.329 310.381C487.26 310.058 487.112 309.759 486.897 309.508C486.683 309.258 486.409 309.065 486.101 308.948C485.878 308.861 485.641 308.816 485.402 308.816H381.546C381.307 308.816 381.069 308.861 380.846 308.948C380.538 309.065 380.265 309.258 380.05 309.508C379.836 309.759 379.687 310.058 379.618 310.381L377.955 318.283C377.896 318.57 377.901 318.866 377.971 319.151C378.04 319.435 378.172 319.7 378.358 319.927Z" fill="#2F2E41"/>
<path d="M481.724 312.22H484.256C484.468 312.22 484.641 312.047 484.641 311.835V310.624C484.641 310.411 484.468 310.239 484.256 310.239H481.724C481.512 310.239 481.34 310.411 481.34 310.624V311.835C481.34 312.047 481.512 312.22 481.724 312.22Z" fill="#3F3D56"/>
<path d="M475.123 312.22H477.654C477.867 312.22 478.039 312.047 478.039 311.835V310.624C478.039 310.411 477.867 310.239 477.654 310.239H475.123C474.91 310.239 474.738 310.411 474.738 310.624V311.835C474.738 312.047 474.91 312.22 475.123 312.22Z" fill="#3F3D56"/>
<path d="M468.521 312.22H471.053C471.265 312.22 471.438 312.047 471.438 311.835V310.624C471.438 310.411 471.265 310.239 471.053 310.239H468.521C468.309 310.239 468.137 310.411 468.137 310.624V311.835C468.137 312.047 468.309 312.22 468.521 312.22Z" fill="#3F3D56"/>
<path d="M461.92 312.22H464.451C464.664 312.22 464.836 312.047 464.836 311.835V310.624C464.836 310.411 464.664 310.239 464.451 310.239H461.92C461.707 310.239 461.535 310.411 461.535 310.624V311.835C461.535 312.047 461.707 312.22 461.92 312.22Z" fill="#3F3D56"/>
<path d="M455.318 312.22H457.85C458.062 312.22 458.234 312.047 458.234 311.835V310.624C458.234 310.411 458.062 310.239 457.85 310.239H455.318C455.106 310.239 454.933 310.411 454.933 310.624V311.835C454.933 312.047 455.106 312.22 455.318 312.22Z" fill="#3F3D56"/>
<path d="M448.717 312.22H451.248C451.461 312.22 451.633 312.047 451.633 311.835V310.624C451.633 310.411 451.461 310.239 451.248 310.239H448.717C448.504 310.239 448.332 310.411 448.332 310.624V311.835C448.332 312.047 448.504 312.22 448.717 312.22Z" fill="#3F3D56"/>
<path d="M442.115 312.22H444.647C444.859 312.22 445.031 312.047 445.031 311.835V310.624C445.031 310.411 444.859 310.239 444.647 310.239H442.115C441.903 310.239 441.73 310.411 441.73 310.624V311.835C441.73 312.047 441.903 312.22 442.115 312.22Z" fill="#3F3D56"/>
<path d="M435.513 312.22H438.045C438.257 312.22 438.43 312.047 438.43 311.835V310.624C438.43 310.411 438.257 310.239 438.045 310.239H435.513C435.301 310.239 435.129 310.411 435.129 310.624V311.835C435.129 312.047 435.301 312.22 435.513 312.22Z" fill="#3F3D56"/>
<path d="M428.908 312.22H431.439C431.652 312.22 431.824 312.047 431.824 311.835V310.624C431.824 310.411 431.652 310.239 431.439 310.239H428.908C428.696 310.239 428.523 310.411 428.523 310.624V311.835C428.523 312.047 428.696 312.22 428.908 312.22Z" fill="#3F3D56"/>
<path d="M422.306 312.22H424.838C425.05 312.22 425.223 312.047 425.223 311.835V310.624C425.223 310.411 425.05 310.239 424.838 310.239H422.306C422.094 310.239 421.922 310.411 421.922 310.624V311.835C421.922 312.047 422.094 312.22 422.306 312.22Z" fill="#3F3D56"/>
<path d="M415.705 312.22H418.236C418.449 312.22 418.621 312.047 418.621 311.835V310.624C418.621 310.411 418.449 310.239 418.236 310.239H415.705C415.492 310.239 415.32 310.411 415.32 310.624V311.835C415.32 312.047 415.492 312.22 415.705 312.22Z" fill="#3F3D56"/>
<path d="M409.103 312.22H411.635C411.847 312.22 412.02 312.047 412.02 311.835V310.624C412.02 310.411 411.847 310.239 411.635 310.239H409.103C408.891 310.239 408.719 310.411 408.719 310.624V311.835C408.719 312.047 408.891 312.22 409.103 312.22Z" fill="#3F3D56"/>
<path d="M402.502 312.22H405.033C405.246 312.22 405.418 312.047 405.418 311.835V310.624C405.418 310.411 405.246 310.239 405.033 310.239H402.502C402.289 310.239 402.117 310.411 402.117 310.624V311.835C402.117 312.047 402.289 312.22 402.502 312.22Z" fill="#3F3D56"/>
<path d="M395.9 312.22H398.432C398.644 312.22 398.816 312.047 398.816 311.835V310.624C398.816 310.411 398.644 310.239 398.432 310.239H395.9C395.688 310.239 395.515 310.411 395.515 310.624V311.835C395.515 312.047 395.688 312.22 395.9 312.22Z" fill="#3F3D56"/>
<path d="M389.299 312.22H391.83C392.043 312.22 392.215 312.047 392.215 311.835V310.624C392.215 310.411 392.043 310.239 391.83 310.239H389.299C389.086 310.239 388.914 310.411 388.914 310.624V311.835C388.914 312.047 389.086 312.22 389.299 312.22Z" fill="#3F3D56"/>
<path d="M382.693 312.22H385.225C385.437 312.22 385.609 312.047 385.609 311.835V310.624C385.609 310.411 385.437 310.239 385.225 310.239H382.693C382.481 310.239 382.308 310.411 382.308 310.624V311.835C382.308 312.047 382.481 312.22 382.693 312.22Z" fill="#3F3D56"/>
<path d="M481.803 315.521H484.334C484.546 315.521 484.719 315.348 484.719 315.136V313.925C484.719 313.712 484.546 313.54 484.334 313.54H481.803C481.59 313.54 481.418 313.712 481.418 313.925V315.136C481.418 315.348 481.59 315.521 481.803 315.521Z" fill="#3F3D56"/>
<path d="M475.201 315.521H477.732C477.945 315.521 478.117 315.348 478.117 315.136V313.925C478.117 313.712 477.945 313.54 477.732 313.54H475.201C474.988 313.54 474.816 313.712 474.816 313.925V315.136C474.816 315.348 474.988 315.521 475.201 315.521Z" fill="#3F3D56"/>
<path d="M468.599 315.521H471.131C471.343 315.521 471.516 315.348 471.516 315.136V313.925C471.516 313.712 471.343 313.54 471.131 313.54H468.599C468.387 313.54 468.215 313.712 468.215 313.925V315.136C468.215 315.348 468.387 315.521 468.599 315.521Z" fill="#3F3D56"/>
<path d="M461.998 315.521H464.529C464.742 315.521 464.914 315.348 464.914 315.136V313.925C464.914 313.712 464.742 313.54 464.529 313.54H461.998C461.785 313.54 461.613 313.712 461.613 313.925V315.136C461.613 315.348 461.785 315.521 461.998 315.521Z" fill="#3F3D56"/>
<path d="M455.396 315.521H457.928C458.14 315.521 458.312 315.348 458.312 315.136V313.925C458.312 313.712 458.14 313.54 457.928 313.54H455.396C455.184 313.54 455.012 313.712 455.012 313.925V315.136C455.012 315.348 455.184 315.521 455.396 315.521Z" fill="#3F3D56"/>
<path d="M448.791 315.521H451.322C451.535 315.521 451.707 315.348 451.707 315.136V313.925C451.707 313.712 451.535 313.54 451.322 313.54H448.791C448.578 313.54 448.406 313.712 448.406 313.925V315.136C448.406 315.348 448.578 315.521 448.791 315.521Z" fill="#3F3D56"/>
<path d="M442.189 315.521H444.721C444.933 315.521 445.105 315.348 445.105 315.136V313.925C445.105 313.712 444.933 313.54 444.721 313.54H442.189C441.977 313.54 441.804 313.712 441.804 313.925V315.136C441.804 315.348 441.977 315.521 442.189 315.521Z" fill="#3F3D56"/>
<path d="M435.588 315.521H438.119C438.332 315.521 438.504 315.348 438.504 315.136V313.925C438.504 313.712 438.332 313.54 438.119 313.54H435.588C435.375 313.54 435.203 313.712 435.203 313.925V315.136C435.203 315.348 435.375 315.521 435.588 315.521Z" fill="#3F3D56"/>
<path d="M428.986 315.521H431.518C431.73 315.521 431.902 315.348 431.902 315.136V313.925C431.902 313.712 431.73 313.54 431.518 313.54H428.986C428.774 313.54 428.601 313.712 428.601 313.925V315.136C428.601 315.348 428.774 315.521 428.986 315.521Z" fill="#3F3D56"/>
<path d="M422.385 315.521H424.916C425.129 315.521 425.301 315.348 425.301 315.136V313.925C425.301 313.712 425.129 313.54 424.916 313.54H422.385C422.172 313.54 422 313.712 422 313.925V315.136C422 315.348 422.172 315.521 422.385 315.521Z" fill="#3F3D56"/>
<path d="M415.783 315.521H418.314C418.527 315.521 418.699 315.348 418.699 315.136V313.925C418.699 313.712 418.527 313.54 418.314 313.54H415.783C415.571 313.54 415.398 313.712 415.398 313.925V315.136C415.398 315.348 415.571 315.521 415.783 315.521Z" fill="#3F3D56"/>
<path d="M409.181 315.521H411.713C411.925 315.521 412.098 315.348 412.098 315.136V313.925C412.098 313.712 411.925 313.54 411.713 313.54H409.181C408.969 313.54 408.797 313.712 408.797 313.925V315.136C408.797 315.348 408.969 315.521 409.181 315.521Z" fill="#3F3D56"/>
<path d="M402.58 315.521H405.111C405.324 315.521 405.496 315.348 405.496 315.136V313.925C405.496 313.712 405.324 313.54 405.111 313.54H402.58C402.367 313.54 402.195 313.712 402.195 313.925V315.136C402.195 315.348 402.367 315.521 402.58 315.521Z" fill="#3F3D56"/>
<path d="M395.978 315.521H398.51C398.722 315.521 398.895 315.348 398.895 315.136V313.925C398.895 313.712 398.722 313.54 398.51 313.54H395.978C395.766 313.54 395.594 313.712 395.594 313.925V315.136C395.594 315.348 395.766 315.521 395.978 315.521Z" fill="#3F3D56"/>
<path d="M389.377 315.521H391.908C392.121 315.521 392.293 315.348 392.293 315.136V313.925C392.293 313.712 392.121 313.54 391.908 313.54H389.377C389.164 313.54 388.992 313.712 388.992 313.925V315.136C388.992 315.348 389.164 315.521 389.377 315.521Z" fill="#3F3D56"/>
<path d="M382.771 315.521H385.303C385.515 315.521 385.688 315.348 385.688 315.136V313.925C385.688 313.712 385.515 313.54 385.303 313.54H382.771C382.559 313.54 382.386 313.712 382.386 313.925V315.136C382.386 315.348 382.559 315.521 382.771 315.521Z" fill="#3F3D56"/>
<path d="M427.008 319.482H452.647C452.859 319.482 453.031 319.31 453.031 319.097V317.886C453.031 317.674 452.859 317.501 452.647 317.501H427.008C426.796 317.501 426.623 317.674 426.623 317.886V319.097C426.623 319.31 426.796 319.482 427.008 319.482Z" fill="#3F3D56"/>
<path d="M399.843 252.723H397.601C396.922 252.723 396.371 253.274 396.371 253.953C396.371 254.633 396.922 255.184 397.601 255.184H399.843C400.522 255.184 401.073 254.633 401.073 253.953C401.073 253.274 400.522 252.723 399.843 252.723Z" fill="white"/>
<path d="M425.475 252.723H423.234C422.555 252.723 422.004 253.274 422.004 253.953C422.004 254.633 422.555 255.184 423.234 255.184H425.475C426.155 255.184 426.706 254.633 426.706 253.953C426.706 253.274 426.155 252.723 425.475 252.723Z" fill="white"/>
<path d="M432.737 252.723H430.496C429.816 252.723 429.266 253.274 429.266 253.953C429.266 254.633 429.816 255.184 430.496 255.184H432.737C433.417 255.184 433.967 254.633 433.967 253.953C433.967 253.274 433.417 252.723 432.737 252.723Z" fill="white"/>
<path d="M418.503 252.518H404.574C403.895 252.518 403.344 253.069 403.344 253.748C403.344 254.428 403.895 254.978 404.574 254.978H418.503C419.182 254.978 419.733 254.428 419.733 253.748C419.733 253.069 419.182 252.518 418.503 252.518Z" fill="white"/>
<path d="M452.679 252.518H438.75C438.07 252.518 437.52 253.069 437.52 253.748C437.52 254.428 438.07 254.978 438.75 254.978H452.679C453.358 254.978 453.909 254.428 453.909 253.748C453.909 253.069 453.358 252.518 452.679 252.518Z" fill="white"/>
<path d="M406.678 258.276H404.437C403.758 258.276 403.207 258.827 403.207 259.507C403.207 260.186 403.758 260.737 404.437 260.737H406.678C407.358 260.737 407.909 260.186 407.909 259.507C407.909 258.827 407.358 258.276 406.678 258.276Z" fill="white"/>
<path d="M432.311 258.276H430.07C429.391 258.276 428.84 258.827 428.84 259.507C428.84 260.186 429.391 260.737 430.07 260.737H432.311C432.991 260.737 433.542 260.186 433.542 259.507C433.542 258.827 432.991 258.276 432.311 258.276Z" fill="white"/>
<path d="M439.573 258.276H437.332C436.652 258.276 436.102 258.827 436.102 259.507C436.102 260.186 436.652 260.737 437.332 260.737H439.573C440.252 260.737 440.803 260.186 440.803 259.507C440.803 258.827 440.252 258.276 439.573 258.276Z" fill="white"/>
<path d="M425.339 258.071H411.41C410.731 258.071 410.18 258.622 410.18 259.302C410.18 259.981 410.731 260.532 411.41 260.532H425.339C426.018 260.532 426.569 259.981 426.569 259.302C426.569 258.622 426.018 258.071 425.339 258.071Z" fill="white"/>
<path d="M459.515 258.071H445.586C444.906 258.071 444.355 258.622 444.355 259.302C444.355 259.981 444.906 260.532 445.586 260.532H459.515C460.194 260.532 460.745 259.981 460.745 259.302C460.745 258.622 460.194 258.071 459.515 258.071Z" fill="white"/>
<path d="M413.514 263.83H411.273C410.594 263.83 410.043 264.381 410.043 265.06C410.043 265.74 410.594 266.291 411.273 266.291H413.514C414.194 266.291 414.745 265.74 414.745 265.06C414.745 264.381 414.194 263.83 413.514 263.83Z" fill="white"/>
<path d="M439.147 263.83H436.906C436.227 263.83 435.676 264.381 435.676 265.06C435.676 265.74 436.227 266.291 436.906 266.291H439.147C439.827 266.291 440.377 265.74 440.377 265.06C440.377 264.381 439.827 263.83 439.147 263.83Z" fill="white"/>
<path d="M446.409 263.83H444.168C443.488 263.83 442.938 264.381 442.938 265.06C442.938 265.74 443.488 266.291 444.168 266.291H446.409C447.088 266.291 447.639 265.74 447.639 265.06C447.639 264.381 447.088 263.83 446.409 263.83Z" fill="white"/>
<path d="M432.171 263.625H418.242C417.563 263.625 417.012 264.176 417.012 264.855C417.012 265.535 417.563 266.085 418.242 266.085H432.171C432.85 266.085 433.401 265.535 433.401 264.855C433.401 264.176 432.85 263.625 432.171 263.625Z" fill="white"/>
<path d="M466.351 263.625H452.422C451.742 263.625 451.191 264.176 451.191 264.855C451.191 265.535 451.742 266.085 452.422 266.085H466.351C467.03 266.085 467.581 265.535 467.581 264.855C467.581 264.176 467.03 263.625 466.351 263.625Z" fill="white"/>
<path d="M420.35 269.384H418.109C417.43 269.384 416.879 269.934 416.879 270.614C416.879 271.293 417.43 271.844 418.109 271.844H420.35C421.03 271.844 421.581 271.293 421.581 270.614C421.581 269.934 421.03 269.384 420.35 269.384Z" fill="white"/>
<path d="M445.979 269.384H443.738C443.059 269.384 442.508 269.934 442.508 270.614C442.508 271.293 443.059 271.844 443.738 271.844H445.979C446.659 271.844 447.21 271.293 447.21 270.614C447.21 269.934 446.659 269.384 445.979 269.384Z" fill="white"/>
<path d="M453.241 269.384H451C450.32 269.384 449.77 269.934 449.77 270.614C449.77 271.293 450.32 271.844 451 271.844H453.241C453.92 271.844 454.471 271.293 454.471 270.614C454.471 269.934 453.92 269.384 453.241 269.384Z" fill="white"/>
<path d="M439.007 269.178H425.078C424.398 269.178 423.848 269.729 423.848 270.409C423.848 271.088 424.398 271.639 425.078 271.639H439.007C439.686 271.639 440.237 271.088 440.237 270.409C440.237 269.729 439.686 269.178 439.007 269.178Z" fill="white"/>
<path d="M425.475 291.467H423.234C422.555 291.467 422.004 292.017 422.004 292.697C422.004 293.376 422.555 293.927 423.234 293.927H425.475C426.155 293.927 426.706 293.376 426.706 292.697C426.706 292.017 426.155 291.467 425.475 291.467Z" fill="white"/>
<path d="M432.737 291.467H430.496C429.816 291.467 429.266 292.017 429.266 292.697C429.266 293.376 429.816 293.927 430.496 293.927H432.737C433.417 293.927 433.967 293.376 433.967 292.697C433.967 292.017 433.417 291.467 432.737 291.467Z" fill="white"/>
<path d="M452.679 291.672H438.75C438.07 291.672 437.52 292.223 437.52 292.902C437.52 293.582 438.07 294.132 438.75 294.132H452.679C453.358 294.132 453.909 293.582 453.909 292.902C453.909 292.223 453.358 291.672 452.679 291.672Z" fill="white"/>
<path d="M399.843 291.467H397.601C396.922 291.467 396.371 292.017 396.371 292.697C396.371 293.376 396.922 293.927 397.601 293.927H399.843C400.522 293.927 401.073 293.376 401.073 292.697C401.073 292.017 400.522 291.467 399.843 291.467Z" fill="white"/>
<path d="M418.503 291.672H404.574C403.895 291.672 403.344 292.223 403.344 292.902C403.344 293.582 403.895 294.132 404.574 294.132H418.503C419.182 294.132 419.733 293.582 419.733 292.902C419.733 292.223 419.182 291.672 418.503 291.672Z" fill="white"/>
<path d="M406.678 285.913H404.437C403.758 285.913 403.207 286.464 403.207 287.143C403.207 287.823 403.758 288.374 404.437 288.374H406.678C407.358 288.374 407.909 287.823 407.909 287.143C407.909 286.464 407.358 285.913 406.678 285.913Z" fill="white"/>
<path d="M432.311 285.913H430.07C429.391 285.913 428.84 286.464 428.84 287.143C428.84 287.823 429.391 288.374 430.07 288.374H432.311C432.991 288.374 433.542 287.823 433.542 287.143C433.542 286.464 432.991 285.913 432.311 285.913Z" fill="white"/>
<path d="M439.573 285.913H437.332C436.652 285.913 436.102 286.464 436.102 287.143C436.102 287.823 436.652 288.374 437.332 288.374H439.573C440.252 288.374 440.803 287.823 440.803 287.143C440.803 286.464 440.252 285.913 439.573 285.913Z" fill="white"/>
<path d="M425.339 286.118H411.41C410.731 286.118 410.18 286.669 410.18 287.349C410.18 288.028 410.731 288.579 411.41 288.579H425.339C426.018 288.579 426.569 288.028 426.569 287.349C426.569 286.669 426.018 286.118 425.339 286.118Z" fill="white"/>
<path d="M413.514 280.36H411.273C410.594 280.36 410.043 280.91 410.043 281.59C410.043 282.269 410.594 282.82 411.273 282.82H413.514C414.194 282.82 414.745 282.269 414.745 281.59C414.745 280.91 414.194 280.36 413.514 280.36Z" fill="white"/>
<path d="M439.147 280.36H436.906C436.227 280.36 435.676 280.91 435.676 281.59C435.676 282.269 436.227 282.82 436.906 282.82H439.147C439.827 282.82 440.377 282.269 440.377 281.59C440.377 280.91 439.827 280.36 439.147 280.36Z" fill="white"/>
<path d="M446.409 280.36H444.168C443.488 280.36 442.938 280.91 442.938 281.59C442.938 282.269 443.488 282.82 444.168 282.82H446.409C447.088 282.82 447.639 282.269 447.639 281.59C447.639 280.91 447.088 280.36 446.409 280.36Z" fill="white"/>
<path d="M432.171 280.565H418.242C417.563 280.565 417.012 281.116 417.012 281.795C417.012 282.474 417.563 283.025 418.242 283.025H432.171C432.85 283.025 433.401 282.474 433.401 281.795C433.401 281.116 432.85 280.565 432.171 280.565Z" fill="white"/>
<path d="M420.35 274.806H418.109C417.43 274.806 416.879 275.357 416.879 276.036C416.879 276.716 417.43 277.267 418.109 277.267H420.35C421.03 277.267 421.581 276.716 421.581 276.036C421.581 275.357 421.03 274.806 420.35 274.806Z" fill="white"/>
<path d="M445.979 274.806H443.738C443.059 274.806 442.508 275.357 442.508 276.036C442.508 276.716 443.059 277.267 443.738 277.267H445.979C446.659 277.267 447.21 276.716 447.21 276.036C447.21 275.357 446.659 274.806 445.979 274.806Z" fill="white"/>
<path d="M453.241 274.806H451C450.32 274.806 449.77 275.357 449.77 276.036C449.77 276.716 450.32 277.267 451 277.267H453.241C453.92 277.267 454.471 276.716 454.471 276.036C454.471 275.357 453.92 274.806 453.241 274.806Z" fill="white"/>
<path d="M439.007 275.011H425.078C424.398 275.011 423.848 275.562 423.848 276.242C423.848 276.921 424.398 277.472 425.078 277.472H439.007C439.686 277.472 440.237 276.921 440.237 276.242C440.237 275.562 439.686 275.011 439.007 275.011Z" fill="white"/>
<path d="M410.741 313.987L410.773 313.962L410.801 313.931L424.431 298.83C426.143 296.933 428.324 295.519 430.754 294.729C433.184 293.938 435.779 293.799 438.279 294.326C440.78 294.853 443.098 296.027 445.003 297.73C446.908 299.433 448.332 301.607 449.134 304.033C450.322 307.629 450.067 311.546 448.422 314.956C446.777 318.367 443.871 321.006 440.318 322.315L418.764 330.255L418.683 330.285L418.617 330.34L388.045 355.803L378.068 340.033L410.741 313.987Z" fill="#FFB6B6" stroke="#2B2924"/>
<path d="M141.07 235.971V316.799H197.696V235.971C197.697 235.389 197.511 234.823 197.167 234.355C196.822 233.887 196.336 233.542 195.781 233.37C195.519 233.284 195.245 233.241 194.969 233.244H143.805C143.446 233.243 143.091 233.313 142.759 233.45C142.428 233.587 142.127 233.787 141.873 234.041C141.619 234.294 141.417 234.595 141.279 234.926C141.142 235.257 141.071 235.612 141.07 235.971ZM163.169 263.744C163.184 262.15 163.827 260.627 164.959 259.505C166.091 258.384 167.62 257.755 169.214 257.755C170.807 257.755 172.336 258.384 173.468 259.505C174.6 260.627 175.244 262.15 175.258 263.744V273.122C175.25 274.72 174.61 276.25 173.477 277.377C172.344 278.503 170.811 279.136 169.214 279.136C167.616 279.136 166.083 278.503 164.95 277.377C163.817 276.25 163.177 274.72 163.169 273.122V263.744Z" fill="#2F2E41"/>
<path d="M140.898 314.214V322.008C140.9 322.412 141.06 322.799 141.345 323.085C141.63 323.372 142.016 323.534 142.419 323.537H196.35C196.754 323.535 197.141 323.373 197.426 323.087C197.711 322.8 197.871 322.413 197.871 322.008V314.214H140.898Z" fill="#3F3D56"/>
<path d="M51.9922 114.193V261.773C51.9937 263.654 52.7414 265.457 54.0713 266.787C55.4012 268.117 57.2044 268.865 59.0851 268.866H277.785C279.665 268.865 281.469 268.117 282.799 266.787C284.128 265.457 284.876 263.654 284.878 261.773V114.193C284.873 112.314 284.124 110.513 282.795 109.185C281.465 107.857 279.664 107.11 277.785 107.108H59.0851C57.2061 107.11 55.4045 107.857 54.0751 109.185C52.7456 110.513 51.9967 112.314 51.9922 114.193Z" fill="#3F3D56"/>
<path d="M57.1211 116.029V259.953C57.1228 260.958 57.5228 261.921 58.2333 262.631C58.9438 263.342 59.907 263.742 60.9119 263.744H275.962C276.967 263.742 277.93 263.342 278.641 262.631C279.352 261.921 279.752 260.958 279.753 259.953V116.029C279.753 115.023 279.354 114.058 278.643 113.346C277.933 112.634 276.969 112.232 275.962 112.23H60.9119C59.9058 112.232 58.9417 112.634 58.231 113.346C57.5204 114.058 57.1212 115.023 57.1211 116.029Z" fill="white"/>
<path d="M97.0332 323.009C97.2521 323.284 97.5303 323.505 97.847 323.656C98.1637 323.808 98.5106 323.886 98.8616 323.884H226.803C227.153 323.884 227.498 323.805 227.814 323.654C228.13 323.504 228.408 323.285 228.628 323.013C228.849 322.741 229.006 322.424 229.088 322.084C229.17 321.743 229.176 321.389 229.104 321.047L227.118 311.613C227.036 311.228 226.859 310.871 226.602 310.572C226.346 310.273 226.02 310.043 225.652 309.903C225.386 309.799 225.103 309.745 224.817 309.745H100.84C100.554 309.745 100.271 309.799 100.004 309.903C99.6368 310.043 99.3101 310.273 99.0541 310.572C98.798 310.87 98.6208 311.228 98.5385 311.613L96.5525 321.047C96.4818 321.389 96.4883 321.743 96.5715 322.082C96.6546 322.422 96.8124 322.738 97.0332 323.009Z" fill="#2F2E41"/>
<path d="M268.985 132.056H67.7631C67.5539 132.052 67.3549 131.965 67.2086 131.816C67.0624 131.666 66.9805 131.465 66.9805 131.256C66.9805 131.047 67.0624 130.846 67.2086 130.696C67.3549 130.547 67.5539 130.461 67.7631 130.456H268.985C269.194 130.461 269.393 130.547 269.54 130.696C269.686 130.846 269.768 131.047 269.768 131.256C269.768 131.465 269.686 131.666 269.54 131.816C269.393 131.965 269.194 132.052 268.985 132.056Z" fill="#3F3D56"/>
<path d="M81.463 126.37C84.053 126.37 86.1526 124.224 86.1526 121.576C86.1526 118.928 84.053 116.782 81.463 116.782C78.873 116.782 76.7734 118.928 76.7734 121.576C76.7734 124.224 78.873 126.37 81.463 126.37Z" fill="#3F3D56"/>
<path d="M97.6622 126.37C100.252 126.37 102.352 124.224 102.352 121.576C102.352 118.928 100.252 116.782 97.6622 116.782C95.0722 116.782 92.9727 118.928 92.9727 121.576C92.9727 124.224 95.0722 126.37 97.6622 126.37Z" fill="#3F3D56"/>
<path d="M113.861 126.37C116.451 126.37 118.551 124.224 118.551 121.576C118.551 118.928 116.451 116.782 113.861 116.782C111.271 116.782 109.172 118.928 109.172 121.576C109.172 124.224 111.271 126.37 113.861 126.37Z" fill="#3F3D56"/>
<path d="M259.232 117.968H247.726C247.498 117.973 247.282 118.067 247.123 118.23C246.964 118.393 246.875 118.611 246.875 118.838C246.875 119.066 246.964 119.285 247.123 119.447C247.282 119.61 247.498 119.704 247.726 119.709H259.232C259.461 119.706 259.679 119.613 259.84 119.45C260.001 119.287 260.091 119.067 260.091 118.838C260.091 118.61 260.001 118.39 259.84 118.227C259.679 118.064 259.461 117.971 259.232 117.968Z" fill="#3F3D56"/>
<path d="M259.229 121.238H247.723C247.495 121.243 247.279 121.337 247.119 121.5C246.96 121.663 246.871 121.881 246.871 122.109C246.871 122.337 246.96 122.555 247.119 122.718C247.279 122.881 247.495 122.975 247.723 122.98H259.229C259.458 122.977 259.677 122.884 259.838 122.721C259.999 122.558 260.09 122.338 260.09 122.109C260.09 121.88 259.999 121.66 259.838 121.497C259.677 121.334 259.458 121.241 259.229 121.238Z" fill="#3F3D56"/>
<path d="M259.232 124.509H247.726C247.498 124.514 247.282 124.608 247.123 124.771C246.964 124.934 246.875 125.152 246.875 125.38C246.875 125.607 246.964 125.826 247.123 125.989C247.282 126.151 247.498 126.245 247.726 126.251H259.232C259.461 126.247 259.679 126.154 259.84 125.991C260.001 125.828 260.091 125.609 260.091 125.38C260.091 125.151 260.001 124.931 259.84 124.768C259.679 124.605 259.461 124.512 259.232 124.509Z" fill="#3F3D56"/>
<path d="M192.415 175.56H157.588C156.167 175.56 155.016 176.711 155.016 178.132V181.535C155.016 182.955 156.167 184.107 157.588 184.107H192.415C193.836 184.107 194.988 182.955 194.988 181.535V178.132C194.988 176.711 193.836 175.56 192.415 175.56Z" fill="#5F4B8B"/>
<path d="M212.719 192.655H137.291C135.871 192.655 134.719 193.806 134.719 195.227V198.63C134.719 200.05 135.871 201.202 137.291 201.202H212.719C214.14 201.202 215.292 200.05 215.292 198.63V195.227C215.292 193.806 214.14 192.655 212.719 192.655Z" fill="#D8CFB2"/>
<path d="M212.719 209.75H137.291C135.871 209.75 134.719 210.902 134.719 212.322V215.725C134.719 217.146 135.871 218.297 137.291 218.297H212.719C214.14 218.297 215.292 217.146 215.292 215.725V212.322C215.292 210.902 214.14 209.75 212.719 209.75Z" fill="#D8CFB2"/>
<path d="M230.02 385.585L227.248 388.527L224.445 376.233L224.334 375.749L223.849 375.856L192.834 382.743C192.631 381.642 192.508 381.053 192.431 380.735C192.388 380.557 192.355 380.441 192.323 380.362C192.32 380.354 192.316 380.344 192.312 380.334C192.311 380.329 192.311 380.323 192.31 380.317C192.305 380.249 192.297 380.142 192.285 379.999C192.251 379.598 192.184 378.846 192.041 377.424C192.164 377.304 192.291 377.183 192.42 377.06C192.671 376.827 192.931 376.575 193.126 376.316C193.318 376.063 193.502 375.735 193.494 375.355L192.994 375.366L193.494 375.357C193.314 364.499 193.494 349.834 194.843 335.09C196.192 320.337 198.709 305.543 203.186 294.404L203.186 294.404L203.188 294.398C204.584 290.778 206.423 287.347 208.665 284.181C208.846 283.936 209.017 283.693 209.185 283.455L209.188 283.45C209.188 283.45 209.189 283.449 209.189 283.449C210.91 281.038 212.372 278.641 213.747 276.385C214.041 275.903 214.332 275.427 214.619 274.959C216.26 272.292 217.825 269.878 219.651 267.88L219.675 267.854L244.479 254.702L245.547 284.724L245.547 284.724L246.329 306.876L246.329 306.876L247.062 327.425L241.134 340.109L241.134 340.109L237.053 348.848L237.026 348.905L237.015 348.966L230.02 385.585Z" fill="#3F3D56" stroke="black"/>
<path d="M357.534 254.97L358.005 255.746L358.005 255.747L367.534 271.35L367.681 271.589H367.743C369.61 273.644 371.206 276.135 372.892 278.886C373.126 279.268 373.361 279.654 373.599 280.044C375.109 282.522 376.724 285.172 378.676 287.825C385.654 297.318 389.566 313.676 391.669 330.943C393.769 348.18 394.054 366.218 393.842 378.99C393.832 379.37 394.016 379.7 394.208 379.955C394.406 380.218 394.669 380.471 394.927 380.704C397.247 382.834 398.761 385.699 399.213 388.817C399.609 391.552 399.166 394.333 397.957 396.799L390.855 374.241L390.719 373.81L390.276 373.902L364.696 379.2L364.695 379.2L363.278 379.491L362.963 379.555L362.891 379.869L360.081 392.16L357.32 389.227L350.328 352.611L350.316 352.549L350.289 352.493L347.683 346.928L347.683 346.928L340.287 331.105L357.534 254.97ZM367.55 271.363L367.55 271.363L367.55 271.363Z" fill="#3F3D56" stroke="black"/>
<path d="M346.001 333.839L345.503 333.888L345.503 333.888L345.503 333.889L345.503 333.891L345.505 333.902L345.509 333.947L345.526 334.123C345.541 334.279 345.564 334.51 345.593 334.814C345.652 335.421 345.737 336.316 345.846 337.466C346.062 339.767 346.37 343.09 346.734 347.179C346.833 348.322 346.941 349.518 347.058 350.768C347.342 353.965 347.653 355.946 347.981 357.4C348.24 358.547 348.51 359.365 348.776 360.17C348.847 360.385 348.918 360.599 348.988 360.818C349.647 362.877 350.331 365.603 350.941 374.58C350.981 375.201 350.82 375.835 350.528 376.503C350.233 377.175 349.823 377.848 349.389 378.554L349.365 378.592C348.946 379.275 348.507 379.99 348.184 380.717C347.854 381.46 347.628 382.252 347.677 383.081L347.677 383.083C347.806 385.118 348.93 387.156 349.97 389.045L349.992 389.084C351.072 391.044 352.053 392.84 352.136 394.53L352.136 394.531C352.514 401.824 352.78 408.659 352.884 414.541C338.56 418.027 323.908 419.995 309.171 420.41L309.17 420.41C307.161 420.47 305.143 420.5 303.116 420.5C302.112 420.5 301.116 420.491 300.109 420.482H300.104C299.814 420.482 299.523 420.474 299.216 420.465L299.193 420.464L299.189 420.464L298.998 420.46C298.168 420.444 297.317 420.426 296.452 420.401C278.509 419.841 260.713 416.981 243.498 411.89L242.773 411.675L242.771 411.674L346.001 333.839ZM346.001 333.839L345.503 333.888L345.497 333.824L345.507 333.76L350.344 303.274L357.912 255.59L357.498 254.909L356.973 254.65L356.972 254.649L316.902 234.816L316.728 234.731L316.658 234.55L314.483 228.978C314.483 228.978 314.482 228.978 314.482 228.977C313.885 227.465 312.849 226.165 311.507 225.246C310.165 224.326 308.579 223.83 306.952 223.819C306.952 223.819 306.952 223.819 306.952 223.819L280.557 223.711L280.557 223.711C279.267 223.705 277.993 224.007 276.843 224.592C275.693 225.177 274.699 226.027 273.943 227.073C273.943 227.073 273.943 227.073 273.943 227.073L266.796 236.972L266.74 237.048L266.66 237.1L219.702 267.209L219.745 267.346L219.753 267.361L219.764 267.396L224.907 283.03L224.907 283.031L230.822 301.047L230.822 301.047L241.953 334.905L241.976 334.976L241.978 335.051L242.085 340.311L242.086 340.321L242.085 340.334V340.339L242.913 382.638L242.914 382.739L242.877 382.833L240.647 388.413L241.185 390.374C241.405 390.723 241.599 391.106 241.77 391.503C242.34 392.823 242.695 394.389 242.908 395.608C243.015 396.221 243.088 396.754 243.133 397.133C243.156 397.323 243.172 397.475 243.183 397.58C243.188 397.633 243.192 397.674 243.195 397.702L243.198 397.734L243.198 397.743L243.198 397.745L243.199 397.746C243.199 397.746 243.199 397.746 242.7 397.788L243.199 397.746L242.218 397.92L240.262 390.789C240.164 390.645 240.063 390.512 239.959 390.393C239.627 390.014 239.282 389.795 238.923 389.73C238.22 389.6 237.121 390.019 235.543 392.044C233.734 394.371 231.773 396.724 229.837 399.045L229.763 399.134C228.001 401.246 226.262 403.331 224.669 405.357M346.001 333.839L224.669 405.357M224.669 405.357C229.502 407.295 234.409 409.054 239.39 410.634L239.391 410.634C240.51 410.992 241.638 411.332 242.771 411.674L224.669 405.357Z" fill="#3F3D56" stroke="black"/>
<path d="M329.14 180.582C329.14 199.701 313.641 215.199 294.523 215.199C275.405 215.199 259.906 199.701 259.906 180.582C259.906 161.464 275.405 145.966 294.523 145.966C313.641 145.966 329.14 161.464 329.14 180.582Z" fill="#FFB6B6" stroke="#2B2924"/>
<path d="M341.984 156.054C341.712 155.763 341.384 155.53 341.02 155.369C340.655 155.208 340.262 155.122 339.864 155.116L340.392 153.65C340.565 153.188 340.611 152.689 340.527 152.203C340.443 151.718 340.231 151.263 339.914 150.886C339.596 150.509 339.184 150.224 338.72 150.058C338.256 149.893 337.756 149.854 337.271 149.946L335.348 150.316L335.53 149.032C335.599 148.553 335.543 148.065 335.366 147.615C335.19 147.165 334.899 146.768 334.523 146.464C334.147 146.161 333.699 145.96 333.221 145.882C332.744 145.805 332.255 145.852 331.802 146.021C331.39 146.183 330.946 146.251 330.505 146.22C330.063 146.188 329.634 146.059 329.248 145.84C328.862 145.628 328.526 145.334 328.265 144.978C328.003 144.623 327.823 144.215 327.735 143.783L327.065 140.552L326.994 140.378C323.732 134.94 317.458 130.984 309.782 129.534C302.949 128.233 295.943 128.895 289.189 129.518C286.509 129.77 283.483 130.054 280.961 131.599C278.818 132.923 277.005 135.571 277.375 138.242C270.716 136.201 263.576 140.276 260.037 145.414C255.844 151.53 255.159 159.19 255.048 165.18C254.749 179.35 257.673 190.943 263.717 199.644C264.159 200.274 264.269 201.59 265.144 202.032L264.963 201.74C265.94 202.229 266.933 203.017 266.562 203.86C265.499 206.288 272.568 211.655 277.549 213.428C286.636 216.667 298.717 216.391 307.213 215.225L307.512 213.215C310.578 212.797 312.738 212.001 313.344 210.756C314.416 209.842 315.33 209.022 316.126 208.266L316.134 208.258C316.15 208.242 316.182 208.218 316.197 208.203C320.035 204.522 320.926 202.426 321.328 199.234C321.714 196.105 321.029 192.929 320.327 190.068C335.096 192.354 314.511 174.338 328.271 170.854C328.429 170.806 328.59 170.766 328.752 170.736C329.154 170.641 329.556 170.547 329.942 170.437C331.803 169.931 333.586 169.17 335.238 168.175C339.084 165.834 340.353 162.729 342.339 159.23C342.625 158.731 342.746 158.155 342.682 157.584C342.618 157.012 342.374 156.476 341.984 156.054Z" fill="#2F2E41"/>
<path d="M418.723 333.661C418.715 335.04 418.699 336.971 418.636 339.359C418.628 339.69 418.62 340.029 418.612 340.376C418.51 344.766 418.407 348.446 418.242 352.536C418.234 352.82 418.226 353.096 418.21 353.38C417.99 359.086 417.643 365.729 417.044 376.251C415.933 395.685 413.994 378.922 412.047 385.739C411.953 386.078 411.85 386.48 411.756 386.953C411.461 388.669 410.964 390.343 410.274 391.942C409.242 392.556 408.178 393.148 407.13 393.739C404.143 395.402 401.108 397.001 398.051 398.522C396.332 399.374 394.607 400.209 392.873 401.013C392.597 401.139 392.329 401.265 392.061 401.383C383.182 405.49 374.032 408.982 364.674 411.834C362.846 412.385 361.025 412.921 359.181 413.418C357.258 413.954 355.335 414.458 353.389 414.931C338.907 418.486 324.089 420.491 309.184 420.913C307.174 420.976 305.149 420.999 303.115 420.999C302.107 420.999 301.114 420.991 300.105 420.983C299.797 420.983 299.49 420.976 299.183 420.968C298.292 420.944 297.37 420.928 296.44 420.905C278.455 420.344 260.616 417.475 243.361 412.369L242.628 412.157C241.493 411.81 240.366 411.471 239.239 411.108C234.038 409.461 228.912 407.617 223.863 405.576C220.01 404.023 216.2 402.358 212.436 400.579C212.401 400.57 212.369 400.554 212.341 400.532C211.553 400.17 210.757 399.791 209.969 399.405C209.867 399.35 209.756 399.295 209.646 399.24C206.706 397.805 203.798 396.303 200.922 394.732C198.502 389.175 195.097 388.112 192.985 383.225C192.371 381.774 191.926 380.256 191.661 378.702C191.661 378.686 191.653 378.67 191.653 378.646C191.874 381.578 190.716 373.445 191.646 378.615C191.638 378.52 191.63 378.418 191.622 378.3C191.598 378.016 191.567 377.669 191.52 377.236C188.816 350.842 188.99 320.658 187.815 295.785C187.737 294.177 187.655 292.638 187.571 291.167C187.547 290.678 187.516 290.197 187.484 289.724C187.54 289.583 187.603 289.433 187.674 289.291C187.689 289.25 187.707 289.211 187.729 289.173C187.752 289.124 187.778 289.076 187.808 289.031C187.823 289.007 187.847 288.976 187.863 288.952C187.874 288.925 187.887 288.899 187.902 288.873C187.973 288.763 188.052 288.645 188.138 288.534C188.178 288.487 188.209 288.448 188.249 288.408C188.276 288.368 188.308 288.331 188.343 288.298C188.368 288.26 188.397 288.226 188.43 288.195C188.462 288.164 188.493 288.125 188.533 288.085C188.549 288.06 188.571 288.039 188.596 288.022C188.658 287.95 188.726 287.885 188.8 287.825C189.082 287.566 189.382 287.329 189.699 287.116C189.809 287.045 189.927 286.974 190.038 286.895C190.832 286.42 191.668 286.019 192.536 285.697C192.836 285.587 193.135 285.484 193.458 285.374C193.576 285.343 193.687 285.303 193.805 285.264C193.978 285.209 194.152 285.153 194.333 285.114C195.231 284.846 196.201 284.617 197.249 284.405C197.375 284.381 197.509 284.357 197.643 284.326C197.832 284.286 198.029 284.255 198.226 284.223C198.494 284.176 198.77 284.129 199.046 284.082C201.387 283.711 204.042 283.435 206.974 283.254C207.25 283.238 207.526 283.223 207.802 283.207C208.125 283.191 208.448 283.175 208.779 283.159C209.055 283.144 209.339 283.136 209.622 283.128C209.898 283.112 210.182 283.104 210.473 283.096C211.269 283.073 212.089 283.049 212.924 283.033C215.305 282.986 217.811 283.002 220.443 283.057C221.665 283.089 222.91 283.12 224.186 283.175C224.273 283.175 224.352 283.183 224.431 283.183C225.542 283.223 226.661 283.27 227.812 283.333C228.616 283.372 229.427 283.412 230.239 283.459C231.004 283.506 231.776 283.554 232.556 283.609C233.163 283.64 233.77 283.687 234.385 283.727C234.905 283.766 235.425 283.806 235.945 283.837L236.654 283.885C237.04 283.916 237.427 283.94 237.821 283.979C238.688 284.05 239.555 284.121 240.437 284.192C241.312 284.271 242.203 284.35 243.093 284.428C243.984 284.507 244.882 284.594 245.781 284.681C245.875 284.688 245.962 284.696 246.049 284.704C246.868 284.791 247.688 284.87 248.515 284.956C248.704 284.972 248.901 284.988 249.091 285.012C249.88 285.091 250.684 285.184 251.48 285.268C251.724 285.295 251.968 285.32 252.213 285.347C252.836 285.415 253.451 285.474 254.079 285.547C254.907 285.642 255.75 285.729 256.57 285.839C257.208 285.91 257.846 285.981 258.485 286.06C259.486 286.178 260.502 286.304 261.519 286.438C261.905 286.485 262.291 286.533 262.678 286.588C265.578 286.95 268.509 287.352 271.489 287.77C276.004 288.408 280.591 289.102 285.209 289.851C289.836 290.599 294.488 291.39 299.167 292.223C300.349 292.435 301.531 292.648 302.721 292.869C303.257 292.971 303.793 293.074 304.329 293.176C305.243 293.342 306.157 293.515 307.072 293.689C307.986 293.862 308.9 294.035 309.814 294.217C310.902 294.429 311.997 294.642 313.085 294.855C320.249 296.274 327.373 297.787 334.324 299.371C335.467 299.631 336.61 299.899 337.745 300.159C340.014 300.687 342.263 301.223 344.491 301.767C345.106 301.908 345.712 302.058 346.319 302.208C347.832 302.586 349.346 302.965 350.835 303.351L351.095 303.422C352.191 303.69 353.262 303.965 354.334 304.249C356.864 304.911 359.352 305.581 361.798 306.259C363.421 306.708 365.026 307.163 366.613 307.622C368.985 308.308 371.31 309.001 373.572 309.703C374.131 309.876 374.691 310.05 375.243 310.215C376.898 310.727 378.529 311.248 380.113 311.768C381.374 312.178 382.604 312.595 383.817 313.013C385.031 313.431 386.221 313.848 387.387 314.266C388.136 314.534 388.877 314.818 389.618 315.086C390.682 315.48 391.73 315.874 392.754 316.268C393.07 316.386 393.377 316.512 393.684 316.63C393.881 316.717 394.071 316.788 394.26 316.867C394.63 317.016 395.008 317.158 395.371 317.308C395.741 317.45 396.104 317.6 396.466 317.757C396.821 317.899 397.184 318.049 397.53 318.199C397.885 318.34 398.232 318.49 398.579 318.648C398.87 318.766 399.154 318.892 399.43 319.018C399.989 319.263 400.549 319.507 401.093 319.759C401.361 319.885 401.629 320.003 401.896 320.129L402.511 320.413C402.598 320.46 402.685 320.5 402.771 320.539C402.968 320.634 403.173 320.736 403.37 320.831C403.827 321.044 404.277 321.272 404.718 321.485C405.309 321.785 405.884 322.084 406.436 322.376C406.996 322.675 407.539 322.975 408.059 323.266C408.146 323.313 408.225 323.361 408.312 323.408C408.43 323.471 408.548 323.542 408.666 323.605C409.068 323.834 409.454 324.07 409.841 324.299C410.597 324.764 411.314 325.221 411.984 325.678C412.134 325.78 412.276 325.883 412.426 325.977C412.922 326.332 413.395 326.679 413.836 327.033C413.836 327.041 413.836 327.041 413.844 327.041C413.994 327.151 414.136 327.27 414.278 327.38C414.396 327.49 414.522 327.585 414.64 327.695C415.05 328.05 415.428 328.389 415.775 328.736C415.891 328.843 416.002 328.956 416.106 329.074C416.152 329.112 416.194 329.155 416.232 329.201C416.39 329.358 416.532 329.516 416.666 329.673C416.686 329.695 416.705 329.719 416.721 329.744C416.91 329.965 417.083 330.186 417.249 330.406C417.328 330.517 417.414 330.627 417.485 330.737C417.58 330.871 417.674 331.013 417.753 331.147C417.824 331.258 417.887 331.376 417.95 331.486C418.117 331.77 418.26 332.068 418.376 332.377C418.464 332.586 418.536 332.802 418.589 333.023C418.648 333.232 418.693 333.446 418.723 333.661Z" fill="#2F2E41"/>
<path opacity="0.2" d="M418.723 333.661C418.715 335.04 418.699 336.971 418.636 339.359C418.628 339.69 418.612 340.029 418.605 340.376C418.526 343.725 418.408 347.863 418.242 352.536C418.234 352.82 418.226 353.096 418.21 353.38C417.99 359.086 417.643 365.729 417.044 376.25C415.933 395.685 413.994 378.922 412.047 385.739C406.641 382.413 400.715 378.93 394.378 375.352C393.235 374.706 392.082 374.057 390.918 373.405C378.246 366.336 364.091 358.928 349.314 351.591C348.731 351.299 348.14 351.007 347.557 350.724C313.708 333.992 276.761 317.718 246.829 306.858C241.052 304.761 235.535 302.87 230.35 301.207C219.426 297.716 209.985 295.273 202.719 294.216C195.153 293.113 189.928 293.507 187.815 295.785C187.737 294.177 187.655 292.638 187.571 291.167C187.54 290.678 187.508 290.197 187.477 289.724C187.525 289.595 187.588 289.471 187.65 289.346C187.658 289.328 187.665 289.309 187.674 289.291C187.689 289.25 187.707 289.21 187.729 289.173C187.752 289.124 187.778 289.076 187.808 289.031C187.833 288.975 187.865 288.922 187.902 288.873C187.973 288.763 188.052 288.645 188.139 288.534C188.202 288.452 188.271 288.373 188.343 288.298C188.368 288.26 188.397 288.225 188.43 288.195C188.462 288.164 188.493 288.124 188.533 288.085C188.549 288.06 188.571 288.039 188.596 288.022C188.658 287.95 188.727 287.884 188.801 287.825C189.082 287.566 189.382 287.329 189.699 287.116C189.809 287.045 189.928 286.974 190.038 286.895C190.832 286.42 191.668 286.019 192.536 285.697C192.836 285.587 193.135 285.484 193.458 285.374C193.577 285.342 193.687 285.303 193.805 285.264C193.978 285.208 194.152 285.153 194.333 285.114C195.232 284.846 196.201 284.617 197.249 284.405C197.564 284.341 197.895 284.278 198.226 284.223C198.494 284.176 198.77 284.129 199.046 284.081C201.387 283.711 204.043 283.435 206.974 283.254C207.25 283.238 207.526 283.222 207.802 283.207C208.125 283.191 208.448 283.175 208.779 283.159C209.055 283.144 209.339 283.136 209.622 283.128C209.898 283.112 210.182 283.104 210.474 283.096C211.27 283.073 212.089 283.049 212.925 283.033C215.305 282.994 217.811 283.01 220.443 283.065C221.665 283.088 222.91 283.128 224.187 283.183C224.265 283.183 224.352 283.191 224.431 283.191C225.542 283.222 226.669 283.278 227.812 283.333C228.616 283.372 229.427 283.412 230.239 283.459C231.004 283.506 231.776 283.553 232.556 283.609C233.163 283.64 233.77 283.687 234.385 283.727C234.905 283.766 235.425 283.806 235.945 283.837C236.568 283.884 237.19 283.932 237.821 283.979C238.688 284.05 239.555 284.121 240.437 284.192C241.312 284.271 242.203 284.349 243.093 284.428C243.984 284.507 244.882 284.594 245.781 284.68C245.875 284.688 245.962 284.696 246.049 284.704C246.868 284.791 247.688 284.87 248.515 284.956C253.102 285.421 257.823 285.965 262.678 286.588C265.578 286.958 268.515 287.355 271.489 287.778C276.005 288.416 280.591 289.11 285.21 289.85C289.836 290.599 294.488 291.39 299.167 292.223C300.349 292.435 301.531 292.648 302.721 292.869C304.171 293.137 305.622 293.41 307.072 293.688C307.986 293.862 308.9 294.035 309.814 294.216C310.902 294.429 311.997 294.642 313.085 294.855C320.249 296.273 327.373 297.787 334.324 299.371C335.467 299.631 336.61 299.899 337.745 300.159C340.015 300.687 342.263 301.223 344.491 301.767C345.106 301.916 345.713 302.066 346.319 302.216C347.84 302.594 349.346 302.972 350.835 303.351V303.358C350.922 303.374 351.009 303.398 351.095 303.422C352.183 303.697 353.263 303.973 354.334 304.257C356.864 304.919 359.352 305.586 361.798 306.259C363.421 306.716 365.029 307.165 366.613 307.622C368.985 308.316 371.31 309.009 373.572 309.703C374.132 309.876 374.691 310.05 375.243 310.215C376.898 310.735 378.521 311.253 380.113 311.768C381.374 312.177 382.604 312.595 383.817 313.013C385.031 313.43 386.221 313.848 387.388 314.266C388.144 314.534 388.885 314.81 389.618 315.078C390.69 315.472 391.73 315.866 392.755 316.268C393.07 316.386 393.377 316.512 393.685 316.63C394.26 316.851 394.819 317.079 395.371 317.308C395.742 317.45 396.104 317.6 396.467 317.757C396.821 317.899 397.184 318.049 397.531 318.199C397.885 318.34 398.232 318.49 398.579 318.648C398.87 318.766 399.154 318.892 399.43 319.018C399.989 319.262 400.549 319.507 401.093 319.759C401.361 319.885 401.629 320.003 401.897 320.129L402.511 320.413C402.598 320.46 402.685 320.5 402.771 320.539C403.441 320.854 404.088 321.17 404.718 321.485C405.309 321.784 405.884 322.084 406.436 322.376C407.09 322.722 407.713 323.061 408.312 323.408C408.43 323.471 408.548 323.542 408.666 323.605C409.068 323.833 409.455 324.07 409.841 324.298C410.597 324.763 411.315 325.221 411.984 325.678C412.646 326.135 413.261 326.584 413.836 327.033C413.836 327.041 413.836 327.041 413.844 327.041C414.12 327.262 414.388 327.482 414.64 327.695C415.05 328.05 415.428 328.389 415.775 328.735C415.891 328.843 416.002 328.956 416.106 329.074C416.152 329.112 416.194 329.155 416.232 329.2C416.398 329.382 416.563 329.563 416.721 329.744C416.91 329.965 417.083 330.186 417.249 330.406C417.328 330.517 417.414 330.627 417.485 330.737C417.58 330.871 417.675 331.013 417.753 331.147C417.824 331.257 417.887 331.376 417.95 331.486C418.118 331.77 418.26 332.068 418.376 332.377C418.462 332.587 418.533 332.803 418.589 333.023C418.648 333.232 418.693 333.446 418.723 333.661Z" fill="#2B2924"/>
</g>
<defs>
<clipPath id="clip0_862_3226">
<rect width="555" height="421" fill="white"/>
</clipPath>
</defs>
</svg>
