<svg width="108" height="134" viewBox="0 0 108 134" fill="none" xmlns="http://www.w3.org/2000/svg">
<path d="M28.86 52.96C25.44 52.96 22.25 52.31 19.29 51.01C16.35 49.69 13.77 47.86 11.55 45.52C9.35 43.18 7.63 40.46 6.39 37.36C5.15 34.24 4.53 30.88 4.53 27.28C4.53 23.92 5.09 20.7 6.21 17.62C7.33 14.54 8.96 11.8 11.1 9.4C13.24 7 15.84 5.1 18.9 3.7C21.98 2.3 25.46 1.6 29.34 1.6C31.78 1.6 34.12 1.9 36.36 2.5C38.62 3.08 40.72 3.91 42.66 4.99C44.6 6.07 46.32 7.35 47.82 8.83L44.79 13.51C42.95 11.53 40.66 9.96 37.92 8.8C35.2 7.62 32.34 7.03 29.34 7.03C26.44 7.03 23.86 7.56 21.6 8.62C19.34 9.68 17.43 11.14 15.87 13C14.31 14.86 13.12 16.99 12.3 19.39C11.5 21.79 11.1 24.34 11.1 27.04C11.1 29.96 11.55 32.66 12.45 35.14C13.37 37.6 14.65 39.75 16.29 41.59C17.93 43.43 19.84 44.86 22.02 45.88C24.2 46.88 26.55 47.38 29.07 47.38C31.11 47.38 33.1 47.04 35.04 46.36C36.98 45.68 38.72 44.71 40.26 43.45C41.82 42.17 43.05 40.65 43.95 38.89C44.87 37.13 45.33 35.17 45.33 33.01V31.57H28.65V26.74H51.57V32.08C51.57 35.44 50.92 38.42 49.62 41.02C48.32 43.6 46.57 45.78 44.37 47.56C42.19 49.32 39.75 50.66 37.05 51.58C34.37 52.5 31.64 52.96 28.86 52.96ZM63.4027 52V2.5H69.4927V24.52H93.9727V2.5H100.063V52H93.9727V29.86H69.4927V52H63.4027ZM29.49 119.96C25.77 119.96 22.3 119.31 19.08 118.01C15.88 116.69 13.07 114.87 10.65 112.55C8.25 110.21 6.38 107.48 5.04 104.36C3.7 101.24 3.03 97.88 3.03 94.28C3.03 90.68 3.7 87.32 5.04 84.2C6.4 81.08 8.28 78.36 10.68 76.04C13.08 73.7 15.88 71.88 19.08 70.58C22.28 69.26 25.74 68.6 29.46 68.6C32.54 68.6 35.44 69.05 38.16 69.95C40.9 70.83 43.29 72.04 45.33 73.58L42.57 78.71C40.93 77.39 39.01 76.38 36.81 75.68C34.61 74.96 32.29 74.6 29.85 74.6C26.91 74.6 24.21 75.1 21.75 76.1C19.29 77.1 17.15 78.5 15.33 80.3C13.53 82.08 12.13 84.17 11.13 86.57C10.15 88.95 9.66 91.52 9.66 94.28C9.66 97.04 10.15 99.62 11.13 102.02C12.13 104.4 13.53 106.49 15.33 108.29C17.15 110.07 19.29 111.46 21.75 112.46C24.21 113.46 26.91 113.96 29.85 113.96C32.29 113.96 34.61 113.61 36.81 112.91C39.01 112.19 40.93 111.17 42.57 109.85L45.33 114.98C43.33 116.48 40.97 117.69 38.25 118.61C35.53 119.51 32.61 119.96 29.49 119.96Z" fill="#8D9B66"/>
<path d="M60.46 119L80.05 69.5H85.72L105.31 119H98.74L93.25 104.57H72.52L67 119H60.46ZM74.59 99.2H91.18L82.87 77.63L74.59 99.2Z" fill="#8D9B66"/>
</svg>
