<svg width="53" height="49" viewBox="0 0 53 49" fill="none" xmlns="http://www.w3.org/2000/svg">
<path opacity="0.74" d="M17.5 49C27.165 49 35 41.165 35 31.5C35 21.835 27.165 14 17.5 14C7.83502 14 0 21.835 0 31.5C0 41.165 7.83502 49 17.5 49Z" fill="#2C3427"/>
<path opacity="0.74" d="M35.5 49C45.165 49 53 41.165 53 31.5C53 21.835 45.165 14 35.5 14C25.835 14 18 21.835 18 31.5C18 41.165 25.835 49 35.5 49Z" fill="#8D9B66"/>
<path opacity="0.74" d="M26.5 35C36.165 35 44 27.165 44 17.5C44 7.83501 36.165 0 26.5 0C16.835 0 9 7.83501 9 17.5C9 27.165 16.835 35 26.5 35Z" fill="#B3B89F"/>
</svg>
