<svg width="35" height="35" viewBox="0 0 35 35" fill="none" xmlns="http://www.w3.org/2000/svg">
<rect x="0.5" y="0.5" width="34" height="34" rx="1.5" stroke="#2B2924"/>
<path d="M8.58656 24V12.32H11.9466C13.6852 12.32 14.9706 12.64 15.8026 13.28C16.6452 13.9093 17.0666 14.8853 17.0666 16.208C17.0666 17.5093 16.6612 18.4853 15.8506 19.136C15.0506 19.776 13.8292 20.096 12.1866 20.096H9.46656V18.496H11.9786C13.1306 18.496 13.9679 18.3147 14.4906 17.952C15.0132 17.5893 15.2746 17.008 15.2746 16.208C15.2746 15.408 15.0132 14.8267 14.4906 14.464C13.9679 14.1013 13.1306 13.92 11.9786 13.92H10.3466V24H8.58656ZM21.5027 24V13.92H17.5347V12.32H27.2947V13.92H23.3267V24H21.5027Z" fill="#2B2924"/>
</svg>
