<svg width="50" height="52" viewBox="0 0 50 52" fill="none" xmlns="http://www.w3.org/2000/svg">
<path d="M42.677 7.97479C38.0644 3.2271 31.9224 0.625977 25.3858 0.625977C11.918 0.625977 0.941472 11.8639 0.941472 25.6524C0.941472 30.0718 2.07613 34.3649 4.19743 38.1529L0.744141 51.1333L13.694 47.6483C17.2706 49.6434 21.2912 50.704 25.3858 50.704C38.8537 50.704 49.8302 39.4661 49.8302 25.6776C49.8302 18.9854 47.2896 12.6972 42.677 7.97479ZM25.3858 46.4614C21.7352 46.4614 18.1586 45.4512 15.026 43.5572L14.286 43.1027L6.59007 45.1735L8.63738 37.4963L8.14405 36.7135C6.12141 33.4052 5.03609 29.5667 5.03609 25.6524C5.03609 14.1872 14.1626 4.84334 25.3612 4.84334C30.7878 4.84334 35.8937 7.01516 39.717 10.9547C43.565 14.8943 45.6616 20.1218 45.6616 25.6776C45.7109 37.1428 36.5844 46.4614 25.3858 46.4614ZM36.535 30.9051C35.9184 30.6021 32.9091 29.0869 32.3664 28.8596C31.7991 28.6576 31.4044 28.5565 30.9851 29.1626C30.5658 29.794 29.4065 31.2082 29.0611 31.6122C28.7158 32.0415 28.3458 32.092 27.7292 31.7638C27.1125 31.4607 25.1392 30.7789 22.8205 28.6576C20.9952 26.9908 19.7866 24.9453 19.4166 24.3139C19.0713 23.6826 19.3673 23.3543 19.6879 23.026C19.9592 22.7482 20.3046 22.2936 20.6006 21.9401C20.8966 21.5865 21.0199 21.3087 21.2172 20.9047C21.4146 20.4754 21.3159 20.1218 21.1679 19.8188C21.0199 19.5157 19.7866 16.4348 19.2933 15.1721C18.7999 13.9599 18.2819 14.1114 17.9119 14.0862C17.5419 14.0862 17.1473 14.0862 16.7279 14.0862C16.3086 14.0862 15.6673 14.2377 15.1 14.869C14.5573 15.5004 12.9787 17.0156 12.9787 20.0966C12.9787 23.1775 15.174 26.1574 15.47 26.5615C15.766 26.9908 19.7866 33.3042 25.9038 36.0064C27.3592 36.663 28.4938 37.0418 29.3818 37.3196C30.8371 37.7994 32.1691 37.7236 33.2298 37.5721C34.4137 37.3953 36.8557 36.0569 37.349 34.5922C37.867 33.1275 37.867 31.89 37.6944 31.6122C37.5217 31.3344 37.1517 31.2082 36.535 30.9051Z" fill="#FFD369"/>
</svg>
