<svg width="20" height="21" viewBox="0 0 20 21" fill="none" xmlns="http://www.w3.org/2000/svg">
<path d="M17 2.97929C15.13 1.05452 12.64 0 9.99 0C4.53 0 0.0800002 4.55595 0.0800002 10.146C0.0800002 11.9376 0.54 13.6781 1.4 15.2138L0 20.4762L5.25 19.0633C6.7 19.8721 8.33 20.3021 9.99 20.3021C15.45 20.3021 19.9 15.7462 19.9 10.1562C19.9 7.4431 18.87 4.89381 17 2.97929ZM9.99 18.5821C8.51 18.5821 7.06 18.1726 5.79 17.4048L5.49 17.2205L2.37 18.06L3.2 14.9476L3 14.6302C2.18 13.289 1.74 11.7329 1.74 10.146C1.74 5.49786 5.44 1.70976 9.98 1.70976C12.18 1.70976 14.25 2.59024 15.8 4.18738C17.36 5.78452 18.21 7.90381 18.21 10.1562C18.23 14.8043 14.53 18.5821 9.99 18.5821ZM14.51 12.2755C14.26 12.1526 13.04 11.5383 12.82 11.4462C12.59 11.3643 12.43 11.3233 12.26 11.569C12.09 11.825 11.62 12.3983 11.48 12.5621C11.34 12.7362 11.19 12.7567 10.94 12.6236C10.69 12.5007 9.89 12.2243 8.95 11.3643C8.21 10.6886 7.72 9.85929 7.57 9.60333C7.43 9.34738 7.55 9.21429 7.68 9.08119C7.79 8.96857 7.93 8.78429 8.05 8.64095C8.17 8.49762 8.22 8.385 8.3 8.22119C8.38 8.04714 8.34 7.90381 8.28 7.78095C8.22 7.6581 7.72 6.40905 7.52 5.89714C7.32 5.40571 7.11 5.46714 6.96 5.4569C6.81 5.4569 6.65 5.4569 6.48 5.4569C6.31 5.4569 6.05 5.51833 5.82 5.77429C5.6 6.03024 4.96 6.64452 4.96 7.89357C4.96 9.14262 5.85 10.3507 5.97 10.5145C6.09 10.6886 7.72 13.2481 10.2 14.3436C10.79 14.6098 11.25 14.7633 11.61 14.876C12.2 15.0705 12.74 15.0398 13.17 14.9783C13.65 14.9067 14.64 14.364 14.84 13.7702C15.05 13.1764 15.05 12.6748 14.98 12.5621C14.91 12.4495 14.76 12.3983 14.51 12.2755Z" fill="#8D9B66"/>
</svg>
