<svg width="31" height="32" viewBox="0 0 31 32" fill="none" xmlns="http://www.w3.org/2000/svg">
<path d="M26.0019 4.55689C23.1417 1.61292 19.3332 0 15.28 0C6.92875 0 0.122362 6.96844 0.122362 15.5185C0.122362 18.2589 0.825944 20.921 2.14134 23.2699L0 31.3188L8.03001 29.1578C10.2478 30.3949 12.7409 31.0526 15.28 31.0526C23.6312 31.0526 30.4376 24.0842 30.4376 15.5341C30.4376 11.3844 28.8621 7.4852 26.0019 4.55689ZM15.28 28.4219C13.0163 28.4219 10.7984 27.7955 8.85595 26.621L8.39709 26.3392L3.62497 27.6232L4.89448 22.8628L4.58858 22.3773C3.33436 20.3259 2.66137 17.9457 2.66137 15.5185C2.66137 8.40911 8.32062 2.61512 15.2647 2.61512C18.6296 2.61512 21.7957 3.96183 24.1665 6.4047C26.5526 8.84757 27.8527 12.0891 27.8527 15.5341C27.8832 22.6435 22.224 28.4219 15.28 28.4219ZM22.1934 18.7756C21.811 18.5877 19.945 17.6482 19.6085 17.5072C19.2567 17.382 19.012 17.3193 18.752 17.6951C18.492 18.0866 17.7731 18.9636 17.5589 19.2141C17.3448 19.4803 17.1154 19.5116 16.733 19.3081C16.3506 19.1202 15.127 18.6974 13.6892 17.382C12.5574 16.3484 11.8079 15.08 11.5785 14.6885C11.3644 14.2971 11.5479 14.0935 11.7468 13.8899C11.915 13.7177 12.1291 13.4358 12.3127 13.2166C12.4962 12.9973 12.5727 12.8251 12.6951 12.5745C12.8174 12.3083 12.7562 12.0891 12.6645 11.9012C12.5727 11.7132 11.8079 9.8028 11.502 9.01983C11.1961 8.26818 10.8749 8.36213 10.6455 8.34647C10.4161 8.34647 10.1713 8.34647 9.91132 8.34647C9.6513 8.34647 9.25363 8.44043 8.90184 8.83191C8.56534 9.2234 7.58644 10.163 7.58644 12.0734C7.58644 13.9839 8.94772 15.8317 9.13126 16.0822C9.31481 16.3484 11.8079 20.2633 15.6012 21.9389C16.5036 22.346 17.2072 22.5809 17.7578 22.7531C18.6602 23.0507 19.4861 23.0037 20.1438 22.9097C20.878 22.8001 22.3922 21.9702 22.6982 21.0619C23.0194 20.1537 23.0194 19.3864 22.9123 19.2141C22.8052 19.0419 22.5758 18.9636 22.1934 18.7756Z" fill="#F3F1E8"/>
</svg>
